<svg width="197" height="34" viewBox="0 0 197 34" fill="none" xmlns="http://www.w3.org/2000/svg">
<path fill-rule="evenodd" clip-rule="evenodd" d="M189.951 0.537954C191.084 0.517414 192.209 0.738567 193.252 1.18694C194.172 1.58705 194.988 2.19741 195.634 2.96987C196.265 3.73473 196.695 4.6469 196.886 5.62287C197.076 6.70419 197.028 7.8146 196.744 8.87494L195.217 15.3363C194.705 17.2407 193.734 18.9877 192.39 20.4212C191.7 21.2259 190.892 21.9186 189.993 22.4751C189.149 22.9837 188.241 23.3747 187.293 23.6376C186.313 23.9084 185.309 24.0804 184.295 24.1511C183.249 24.2177 182.144 24.2509 180.98 24.2509H179.078L176.738 33.3011H166.989L175.239 0.537954H189.951ZM49.0564 0.00307429L40.2973 34H33.1218C32.3451 34.0001 31.5936 33.7221 31.001 33.2155C30.3659 32.6985 29.8922 32.0076 29.6366 31.2258L25.3172 17.3046L21.0189 34H6.55483C6.26104 33.9981 5.9798 33.8796 5.77206 33.67C5.56431 33.4604 5.44678 33.1767 5.44492 32.8803C5.44492 32.5834 5.56186 32.2986 5.77001 32.0886C5.97815 31.8786 6.26046 31.7606 6.55483 31.7606C11.3408 31.7606 5.52269 31.7606 10.3228 31.7606C10.6172 31.7606 10.8995 31.6427 11.1077 31.4327C11.3158 31.2227 11.4328 30.9379 11.4328 30.641C11.4328 30.344 11.3158 30.0592 11.1077 29.8492C10.8995 29.6392 10.6172 29.5213 10.3228 29.5213C6.08117 29.5213 9.48158 29.4714 5.3106 29.4714C5.01624 29.4714 4.73393 29.3534 4.52578 29.1434C4.31764 28.9334 4.2007 28.6486 4.2007 28.3517C4.2007 28.0547 4.31764 27.7699 4.52578 27.5599C4.73393 27.35 5.01624 27.232 5.3106 27.232C9.63711 27.232 11.0793 27.1892 15.4482 27.1892C15.7426 27.1892 16.0249 27.0712 16.233 26.8613C16.4412 26.6513 16.5581 26.3665 16.5581 26.0695C16.5581 25.7726 16.4412 25.4878 16.233 25.2778C16.0249 25.0678 15.7426 24.9498 15.4482 24.9498C11.6236 24.9498 10.6763 24.9498 6.89416 24.9498C6.5998 24.9498 6.31749 24.8319 6.10934 24.6219C5.90119 24.4119 5.78426 24.1271 5.78426 23.8302C5.78426 23.5332 5.90119 23.2484 6.10934 23.0384C6.31749 22.8284 6.5998 22.7105 6.89416 22.7105C12.0124 22.7105 12.9315 22.7105 18.078 22.7105C18.3724 22.7105 18.6547 22.5925 18.8629 22.3825C19.071 22.1726 19.1879 21.8878 19.1879 21.5908C19.1861 21.2944 19.0686 21.0107 18.8608 20.8011C18.6531 20.5916 18.3718 20.473 18.078 20.4711H8.88775V20.4355C8.61694 20.3886 8.37276 20.2426 8.20191 20.0255C8.03105 19.8084 7.94552 19.5354 7.96165 19.2587C7.96165 18.9618 8.07859 18.677 8.28673 18.467C8.49488 18.257 8.77719 18.139 9.07155 18.139H9.48158H15.0947C15.2405 18.139 15.3848 18.1101 15.5195 18.0538C15.6541 17.9975 15.7765 17.9151 15.8796 17.8111C15.9826 17.7071 16.0644 17.5837 16.1201 17.4479C16.1759 17.312 16.2046 17.1664 16.2046 17.0194C16.2046 16.8723 16.1759 16.7267 16.1201 16.5909C16.0644 16.455 15.9826 16.3316 15.8796 16.2276C15.7765 16.1237 15.6541 16.0412 15.5195 15.9849C15.3848 15.9286 15.2405 15.8997 15.0947 15.8997C8.47065 15.8997 7.7425 15.8997 1.10428 15.8997C0.954235 15.8989 0.805905 15.8675 0.668251 15.8072C0.530597 15.747 0.406478 15.6592 0.303396 15.5493C0.200314 15.4393 0.120409 15.3093 0.0685095 15.1673C0.0166104 15.0253 -0.00620487 14.8741 0.00144264 14.723C0.00144264 14.426 0.118379 14.1412 0.326526 13.9312C0.534674 13.7212 0.816982 13.6033 1.11135 13.6033C9.32605 13.6033 11.659 13.6033 19.8808 13.6033C20.1751 13.6033 20.4574 13.4853 20.6656 13.2753C20.8737 13.0653 20.9907 12.7805 20.9907 12.4836C20.9907 12.1866 20.8737 11.9018 20.6656 11.6919C20.4574 11.4819 20.1751 11.3639 19.8808 11.3639C13.4617 11.3639 11.3974 11.3639 4.9642 11.3639C4.66984 11.3639 4.38753 11.2459 4.17938 11.036C3.97123 10.826 3.8543 10.5412 3.8543 10.2442C3.84765 10.0942 3.87097 9.94443 3.92288 9.80372C3.97479 9.663 4.05422 9.53426 4.15645 9.42514C4.25868 9.31602 4.38162 9.22876 4.51796 9.16854C4.65429 9.10833 4.80124 9.07639 4.95006 9.07463C9.76436 9.07463 9.89868 9.07463 14.7059 9.07463C15.0003 9.07463 15.2826 8.95666 15.4907 8.74668C15.6989 8.5367 15.8158 8.2519 15.8158 7.95495C15.8158 7.65799 15.6989 7.37319 15.4907 7.16321C15.2826 6.95323 15.0003 6.83527 14.7059 6.83527C10.4289 6.83527 11.659 6.78534 7.36782 6.78534C7.22085 6.78443 7.07554 6.75408 6.9403 6.69605C6.80506 6.63803 6.68259 6.55349 6.57999 6.44733C6.47739 6.34118 6.39672 6.21553 6.34264 6.07767C6.28857 5.93982 6.26217 5.7925 6.26498 5.64427C6.26498 5.34731 6.38192 5.06251 6.59006 4.85253C6.79821 4.64255 7.08052 4.52459 7.37489 4.52459C12.0195 4.52459 15.3563 4.52459 20.0009 4.52459C20.2953 4.52459 20.5776 4.40662 20.7858 4.19664C20.9939 3.98666 21.1108 3.70186 21.1108 3.40491C21.1108 1.02291 16.5793 3.55467 16.5793 1.18694C16.5765 1.0393 16.6027 0.892565 16.6563 0.755173C16.7099 0.61778 16.79 0.492446 16.8918 0.386389C16.9937 0.280331 17.1153 0.195643 17.2497 0.137201C17.3842 0.0787598 17.5287 0.0477185 17.6751 0.0458646C25.1546 0.0458646 19.6475 0.00307429 27.1411 0.00307429C27.9144 0.00126534 28.6643 0.271066 29.2619 0.766169C29.9035 1.28752 30.3762 1.99032 30.6193 2.78445L34.9458 16.7056L39.244 0.00307429H49.0564ZM9.31192 0.00307429C9.02937 0.00494342 8.75893 0.119001 8.55914 0.320554C8.35934 0.522106 8.24628 0.794933 8.24443 1.07996V1.17981C8.24628 1.46484 8.35934 1.73767 8.55914 1.93922C8.75893 2.14077 9.02937 2.25483 9.31192 2.2567H13.7303C14.0129 2.25483 14.2833 2.14077 14.4831 1.93922C14.6829 1.73767 14.796 1.46484 14.7978 1.17981V1.07996C14.796 0.796155 14.6839 0.524388 14.4856 0.323034C14.2874 0.121681 14.0187 0.00680273 13.7374 0.00307429H9.31192ZM186.31 10.0802C186.388 9.85137 186.412 9.60755 186.382 9.36762C186.351 9.1277 186.266 8.89811 186.133 8.69664C185.995 8.50718 185.812 8.35527 185.601 8.25447C185.39 8.15367 185.157 8.10712 184.924 8.11898H183.199L181.163 15.9639H182.931C183.478 15.9577 184.005 15.7526 184.415 15.3862C184.863 15.0376 185.188 14.5524 185.341 14.0026L186.317 10.0802H186.31ZM159.913 0.00307429H157.968C156.524 -0.0114036 155.088 0.229983 153.727 0.716247C151.263 1.59205 149.206 3.35449 147.951 5.66566C147.282 6.89372 146.775 8.20534 146.445 9.56672C146.078 10.9931 145.696 12.4907 145.321 13.9813C144.946 15.4718 144.614 16.8339 144.289 18.082L143.229 22.3182C142.708 24.1046 142.59 25.9856 142.882 27.8239C143.107 29.1517 143.7 30.388 144.593 31.3898C145.43 32.2827 146.486 32.937 147.654 33.2868C148.535 33.6555 149.479 33.8446 150.432 33.8431H154.893C156.571 33.8535 158.247 33.7559 159.913 33.5507C161.01 33.3847 162.052 32.9568 162.952 32.3027C163.901 31.5584 164.668 30.6044 165.193 29.5141C165.938 27.9603 166.521 26.3326 166.932 24.6574C167.399 22.9316 167.901 21.17 168.389 19.3728C168.877 17.5756 169.336 15.6287 169.803 13.5533C170.285 11.6931 170.429 9.75999 170.227 7.84797C170.054 6.29943 169.481 4.82381 168.566 3.56894C167.65 2.38033 166.427 1.4697 165.031 0.93733C163.399 0.302598 161.662 -0.0144103 159.913 0.00307429ZM160.103 10.0802L156.491 24.6574C156.392 25.2508 156.098 25.7934 155.657 26.1979C155.207 26.5021 154.671 26.6498 154.13 26.6187C153.905 26.6393 153.679 26.6055 153.47 26.5198C153.26 26.4342 153.075 26.2994 152.928 26.1266C152.688 25.7985 152.702 25.0711 152.984 23.9443L156.519 10.123C156.622 9.54454 156.865 9.00067 157.226 8.53975C157.664 8.20991 158.21 8.05958 158.753 8.11898C158.986 8.10712 159.219 8.15367 159.43 8.25447C159.641 8.35527 159.823 8.50718 159.962 8.69664C160.095 8.89811 160.18 9.1277 160.21 9.36762C160.241 9.60755 160.217 9.85137 160.139 10.0802H160.103ZM133.133 0.00307429C134.897 -0.0342348 136.651 0.268336 138.301 0.89454C139.697 1.42691 140.92 2.33754 141.836 3.52615C142.752 4.78102 143.325 6.25664 143.497 7.80518C143.699 9.7172 143.556 11.6503 143.073 13.5106C142.592 15.5859 142.133 17.5329 141.659 19.33C141.186 21.1272 140.669 22.8959 140.203 24.6147C139.791 26.2899 139.208 27.9175 138.464 29.4714C137.938 30.5616 137.171 31.5156 136.223 32.2599C135.322 32.914 134.28 33.3419 133.183 33.5079C131.518 33.7131 129.841 33.8107 128.164 33.8003H123.703C122.737 33.8043 121.78 33.6127 120.889 33.2369C119.721 32.8868 118.666 32.2325 117.828 31.3399C116.935 30.3381 116.342 29.1018 116.117 27.774C115.825 25.9356 115.943 24.0546 116.464 22.2683L117.524 18.0321C117.835 16.784 118.189 15.4147 118.556 13.9313C118.924 12.4479 119.313 10.9788 119.68 9.51679C120.01 8.15541 120.517 6.84379 121.186 5.61574C122.451 3.32337 124.506 1.57971 126.962 0.716247C128.323 0.229983 129.759 -0.0114036 131.203 0.00307429H133.133ZM133.324 10.0802C133.402 9.85137 133.427 9.60755 133.396 9.36762C133.365 9.1277 133.28 8.89811 133.148 8.69664C133.009 8.50718 132.826 8.35527 132.615 8.25447C132.404 8.15367 132.172 8.10712 131.939 8.11898C131.395 8.05958 130.85 8.20991 130.412 8.53975C130.05 9.00067 129.807 9.54454 129.705 10.123L126.17 23.9443C125.887 25.0711 125.873 25.8057 126.113 26.1266C126.26 26.2994 126.446 26.4342 126.655 26.5198C126.864 26.6055 127.091 26.6393 127.315 26.6187C127.856 26.6498 128.392 26.5021 128.842 26.1979C129.284 25.7934 129.578 25.2508 129.676 24.6574L133.289 10.0802H133.324ZM104.884 25.7272H114.527L112.618 33.3011H93.4384L101.858 0.537954H111.317L104.877 25.7272H104.884ZM100.388 0.537954H75.2982L73.3541 8.11898H81.0457L74.563 33.3082H84.0219L90.4905 8.11898H98.4012L100.388 0.537954ZM73.8702 0.537954H64.0719L58.0912 23.7161C57.9261 24.2601 57.6036 24.7419 57.1651 25.0996C56.7552 25.4661 56.2281 25.6712 55.6805 25.6773C55.4564 25.6888 55.2332 25.6417 55.0325 25.5404C54.8318 25.4392 54.6605 25.2874 54.5352 25.0996C54.4045 24.8971 54.3223 24.6665 54.2953 24.4264C54.2683 24.1862 54.2972 23.943 54.3797 23.7161L59.9646 0.537954H50.4208L44.2633 24.6147C44.1733 25.0032 44.1212 25.3997 44.1078 25.7985C44.0939 26.2087 44.1176 26.6194 44.1785 27.0252C44.2315 27.949 44.4721 28.852 44.8854 29.6782C45.3159 30.532 45.9469 31.2665 46.7235 31.8177C47.7065 32.4901 48.8042 32.9737 49.9613 33.244C51.5814 33.6349 53.2445 33.8147 54.9099 33.7789C56.3819 33.7862 57.8528 33.7004 59.3142 33.5222C60.3841 33.4066 61.4373 33.1673 62.453 32.809C63.2237 32.534 63.9413 32.1262 64.5738 31.6037C65.1088 31.1459 65.5671 30.604 65.9312 29.9991C66.1759 29.6009 66.3887 29.1835 66.5674 28.7511C66.7579 28.2873 66.9162 27.8107 67.0411 27.3247L73.8702 0.537954Z" fill="#80C46D"/>
</svg>
