<svg width="18" height="21" viewBox="0 0 18 21" fill="none" xmlns="http://www.w3.org/2000/svg">
<path d="M15 7H17C17.2652 7 17.5196 7.10536 17.7071 7.29289C17.8946 7.48043 18 7.73478 18 8V20C18 20.2652 17.8946 20.5196 17.7071 20.7071C17.5196 20.8946 17.2652 21 17 21H1C0.734784 21 0.48043 20.8946 0.292893 20.7071C0.105357 20.5196 0 20.2652 0 20V8C0 7.73478 0.105357 7.48043 0.292893 7.29289C0.48043 7.10536 0.734784 7 1 7H3V6C3 4.4087 3.63214 2.88258 4.75736 1.75736C5.88258 0.632141 7.4087 0 9 0C10.5913 0 12.1174 0.632141 13.2426 1.75736C14.3679 2.88258 15 4.4087 15 6V7ZM2 9V19H16V9H2ZM8 13H10V15H8V13ZM4 13H6V15H4V13ZM12 13H14V15H12V13ZM13 7V6C13 4.93913 12.5786 3.92172 11.8284 3.17157C11.0783 2.42143 10.0609 2 9 2C7.93913 2 6.92172 2.42143 6.17157 3.17157C5.42143 3.92172 5 4.93913 5 6V7H13Z" fill="#80C46D"/>
</svg>
