<svg width="22" height="22" viewBox="0 0 22 22" fill="none" xmlns="http://www.w3.org/2000/svg">
<path d="M10.781 11.683C10.8536 11.6857 10.9265 11.6875 11 11.6875C11.0682 11.6875 11.136 11.686 11.2036 11.6835C12.7424 11.7167 14.2559 12.1239 15.5931 12.8681C16.0079 13.0989 16.5312 12.9499 16.762 12.5351C16.9928 12.1204 16.8438 11.597 16.429 11.3662C15.8133 11.0237 15.1663 10.7413 14.4983 10.5218C15.9213 9.45497 16.8438 7.75502 16.8438 5.84375C16.8438 2.62143 14.2222 0 11 0C7.77769 0 5.15627 2.62143 5.15627 5.84375C5.15627 7.7562 6.07976 9.45715 7.50427 10.5238C6.19926 10.9533 4.97466 11.6215 3.90279 12.5031C1.93781 14.1194 0.571538 16.3739 0.0557459 18.8514C-0.10589 19.6277 0.0878047 20.4249 0.58698 21.0389C1.08364 21.6497 1.82032 22 2.60785 22H9.32423C9.79873 22 10.1836 21.6153 10.1836 21.1406C10.1836 20.666 9.79873 20.2812 9.32423 20.2812H2.60785C2.24094 20.2812 2.01972 20.0765 1.92035 19.9545C1.74898 19.7436 1.68268 19.4694 1.73841 19.2017C2.63085 14.915 6.41377 11.7845 10.781 11.683ZM6.87501 5.84375C6.87501 3.56926 8.72535 1.71875 11 1.71875C13.2745 1.71875 15.125 3.56926 15.125 5.84375C15.125 8.04976 13.3844 9.85663 11.2046 9.96371C11.1363 9.96237 11.0682 9.96153 11 9.96153C10.9329 9.96153 10.8659 9.96254 10.7989 9.96371C8.61743 9.85864 6.87501 8.05093 6.87501 5.84375ZM22 15.977C22.0008 16.551 21.7764 17.0905 21.3684 17.4963L19.77 19.0858C19.6023 19.2527 19.3831 19.3359 19.1641 19.3359C18.9433 19.3359 18.7226 19.2513 18.5546 19.0825C18.2199 18.746 18.2214 18.202 18.558 17.8673L19.6293 16.8018H14.7593C13.7999 16.8018 13.0195 17.5823 13.0195 18.5415C13.0195 19.5008 13.7905 20.2812 14.7383 20.2812C15.2128 20.2812 15.5977 20.666 15.5977 21.1406C15.5977 21.6153 15.2128 22 14.7383 22C13.814 22 12.9479 21.6391 12.2998 20.9837C11.6554 20.3321 11.3008 19.4648 11.3008 18.5415C11.3008 16.6344 12.8522 15.083 14.7593 15.083H19.5504L18.5596 14.1033C18.2223 13.7695 18.2191 13.2253 18.5529 12.8879C18.8866 12.5506 19.4308 12.5474 19.7683 12.8812L21.3642 14.4593C21.7734 14.864 21.9992 15.403 22 15.977Z" fill="#80C46D"/>
</svg>
