<svg width="23" height="17" viewBox="0 0 23 17" fill="none" xmlns="http://www.w3.org/2000/svg">
<path d="M1.23169 2.42334H16.8196V4.6953H1.23169V2.42334Z" fill="#80C46D"/>
<path d="M8.91711 9.65282H8.17892C8.1195 9.65282 8.07129 9.60461 8.07129 9.54519V8.8071C8.07129 8.74768 8.1195 8.69946 8.17892 8.69946H8.91711C8.97653 8.69946 9.02474 8.74768 9.02474 8.8071V9.54519C9.02474 9.60461 8.97653 9.65282 8.91711 9.65282Z" fill="#80C46D"/>
<mask id="path-3-outside-1" maskUnits="userSpaceOnUse" x="0" y="0" width="23" height="17" fill="black">
<rect fill="white" width="23" height="17"/>
<path d="M5.16371 11.0265C5.16371 11.1532 5.06085 11.256 4.93411 11.256C4.93411 11.256 4.93411 11.256 4.93402 11.256L2.4209 11.2552C2.04125 11.2551 1.68437 11.1071 1.41602 10.8385C1.14767 10.57 0.999908 10.2129 1 9.83334L1.00248 2.42081C1.00257 2.04116 1.15052 1.68428 1.41914 1.41593C1.68749 1.14767 2.04437 1 2.42375 1H2.4243L15.6287 1.00432C16.0084 1.00441 16.3652 1.15245 16.6336 1.42098C16.9019 1.68951 17.0497 2.04657 17.0495 2.42623L17.0488 4.69818C17.0487 4.82492 16.9459 4.92768 16.8192 4.92768C16.8191 4.92768 16.8191 4.92768 16.8191 4.92768C16.6924 4.92759 16.5895 4.82483 16.5896 4.698L16.5903 2.42604C16.5904 2.16899 16.4904 1.92737 16.3088 1.74553C16.127 1.56379 15.8855 1.46359 15.6284 1.4635L2.42412 1.45909H2.42375C2.16688 1.45909 1.92535 1.5591 1.7437 1.74067C1.56195 1.92232 1.46176 2.16394 1.46166 2.4209L1.45919 9.83343C1.45909 10.0904 1.5591 10.3321 1.74076 10.5139C1.92241 10.6957 2.16403 10.7959 2.42099 10.796L4.93421 10.7968C5.06094 10.7968 5.16371 10.8997 5.16371 11.0265ZM22 7.01532V14.4279C22 15.2116 21.3624 15.8492 20.5786 15.8492H7.37422C6.59049 15.8492 5.95286 15.2116 5.95286 14.4279V7.01532C5.95286 6.23159 6.59049 5.59387 7.37422 5.59387H20.5786C21.3624 5.59396 22 6.23159 22 7.01532ZM21.5408 7.01532C21.5408 6.48478 21.1092 6.05306 20.5786 6.05306H7.37422C6.84368 6.05306 6.41205 6.48469 6.41205 7.01532V14.4279C6.41205 14.9584 6.84368 15.39 7.37422 15.39H20.5786C21.1092 15.39 21.5408 14.9584 21.5408 14.4279V7.01532ZM7.20616 9.81176V8.54055C7.20616 8.15107 7.523 7.83423 7.91248 7.83423H9.18378C9.57326 7.83423 9.8901 8.15107 9.8901 8.54055V9.81176C9.8901 10.2012 9.57326 10.518 9.18378 10.518H7.91239C7.523 10.518 7.20616 10.2011 7.20616 9.81176ZM7.66535 9.81176C7.66535 9.94795 7.77619 10.0588 7.91248 10.0588H9.18378C9.32007 10.0588 9.43091 9.94795 9.43091 9.81176V8.54055C9.43091 8.40427 9.32007 8.29342 9.18378 8.29342H7.91239C7.7761 8.29342 7.66525 8.40427 7.66525 8.54055V9.81176H7.66535ZM4.82639 6.3293H2.49428C2.36745 6.3293 2.26469 6.43207 2.26469 6.55889C2.26469 6.68572 2.36745 6.78849 2.49428 6.78849H4.82639C4.95322 6.78849 5.05598 6.68572 5.05598 6.55889C5.05598 6.43207 4.95322 6.3293 4.82639 6.3293ZM4.82639 7.68371H2.49428C2.36745 7.68371 2.26469 7.78648 2.26469 7.91331C2.26469 8.04013 2.36745 8.1429 2.49428 8.1429H4.82639C4.95322 8.1429 5.05598 8.04013 5.05598 7.91331C5.05598 7.78648 4.95322 7.68371 4.82639 7.68371ZM7.58912 12.1776C7.46229 12.1776 7.35953 12.2803 7.35953 12.4072C7.35953 12.534 7.46229 12.6368 7.58912 12.6368H9.66041C9.78724 12.6368 9.89001 12.534 9.89001 12.4072C9.89001 12.2803 9.78724 12.1776 9.66041 12.1776H7.58912ZM12.8896 13.5583H7.58912C7.46229 13.5583 7.35953 13.6611 7.35953 13.7879C7.35953 13.9148 7.46229 14.0175 7.58912 14.0175H12.8895C13.0163 14.0175 13.1191 13.9148 13.1191 13.7879C13.1192 13.6611 13.0164 13.5583 12.8896 13.5583ZM12.8896 12.1776H10.8183C10.6915 12.1776 10.5887 12.2803 10.5887 12.4072C10.5887 12.534 10.6915 12.6368 10.8183 12.6368H12.8896C13.0164 12.6368 13.1192 12.534 13.1192 12.4072C13.1192 12.2803 13.0164 12.1776 12.8896 12.1776ZM16.1187 12.1776H14.0475C13.9206 12.1776 13.8179 12.2803 13.8179 12.4072C13.8179 12.534 13.9206 12.6368 14.0475 12.6368H16.1187C16.2455 12.6368 16.3483 12.534 16.3483 12.4072C16.3483 12.2803 16.2455 12.1776 16.1187 12.1776ZM19.3478 12.1776H17.2765C17.1497 12.1776 17.047 12.2803 17.047 12.4072C17.047 12.534 17.1497 12.6368 17.2765 12.6368H19.3477C19.4746 12.6368 19.5773 12.534 19.5773 12.4072C19.5774 12.2803 19.4747 12.1776 19.3478 12.1776Z"/>
</mask>
<path d="M5.16371 11.0265C5.16371 11.1532 5.06085 11.256 4.93411 11.256C4.93411 11.256 4.93411 11.256 4.93402 11.256L2.4209 11.2552C2.04125 11.2551 1.68437 11.1071 1.41602 10.8385C1.14767 10.57 0.999908 10.2129 1 9.83334L1.00248 2.42081C1.00257 2.04116 1.15052 1.68428 1.41914 1.41593C1.68749 1.14767 2.04437 1 2.42375 1H2.4243L15.6287 1.00432C16.0084 1.00441 16.3652 1.15245 16.6336 1.42098C16.9019 1.68951 17.0497 2.04657 17.0495 2.42623L17.0488 4.69818C17.0487 4.82492 16.9459 4.92768 16.8192 4.92768C16.8191 4.92768 16.8191 4.92768 16.8191 4.92768C16.6924 4.92759 16.5895 4.82483 16.5896 4.698L16.5903 2.42604C16.5904 2.16899 16.4904 1.92737 16.3088 1.74553C16.127 1.56379 15.8855 1.46359 15.6284 1.4635L2.42412 1.45909H2.42375C2.16688 1.45909 1.92535 1.5591 1.7437 1.74067C1.56195 1.92232 1.46176 2.16394 1.46166 2.4209L1.45919 9.83343C1.45909 10.0904 1.5591 10.3321 1.74076 10.5139C1.92241 10.6957 2.16403 10.7959 2.42099 10.796L4.93421 10.7968C5.06094 10.7968 5.16371 10.8997 5.16371 11.0265ZM22 7.01532V14.4279C22 15.2116 21.3624 15.8492 20.5786 15.8492H7.37422C6.59049 15.8492 5.95286 15.2116 5.95286 14.4279V7.01532C5.95286 6.23159 6.59049 5.59387 7.37422 5.59387H20.5786C21.3624 5.59396 22 6.23159 22 7.01532ZM21.5408 7.01532C21.5408 6.48478 21.1092 6.05306 20.5786 6.05306H7.37422C6.84368 6.05306 6.41205 6.48469 6.41205 7.01532V14.4279C6.41205 14.9584 6.84368 15.39 7.37422 15.39H20.5786C21.1092 15.39 21.5408 14.9584 21.5408 14.4279V7.01532ZM7.20616 9.81176V8.54055C7.20616 8.15107 7.523 7.83423 7.91248 7.83423H9.18378C9.57326 7.83423 9.8901 8.15107 9.8901 8.54055V9.81176C9.8901 10.2012 9.57326 10.518 9.18378 10.518H7.91239C7.523 10.518 7.20616 10.2011 7.20616 9.81176ZM7.66535 9.81176C7.66535 9.94795 7.77619 10.0588 7.91248 10.0588H9.18378C9.32007 10.0588 9.43091 9.94795 9.43091 9.81176V8.54055C9.43091 8.40427 9.32007 8.29342 9.18378 8.29342H7.91239C7.7761 8.29342 7.66525 8.40427 7.66525 8.54055V9.81176H7.66535ZM4.82639 6.3293H2.49428C2.36745 6.3293 2.26469 6.43207 2.26469 6.55889C2.26469 6.68572 2.36745 6.78849 2.49428 6.78849H4.82639C4.95322 6.78849 5.05598 6.68572 5.05598 6.55889C5.05598 6.43207 4.95322 6.3293 4.82639 6.3293ZM4.82639 7.68371H2.49428C2.36745 7.68371 2.26469 7.78648 2.26469 7.91331C2.26469 8.04013 2.36745 8.1429 2.49428 8.1429H4.82639C4.95322 8.1429 5.05598 8.04013 5.05598 7.91331C5.05598 7.78648 4.95322 7.68371 4.82639 7.68371ZM7.58912 12.1776C7.46229 12.1776 7.35953 12.2803 7.35953 12.4072C7.35953 12.534 7.46229 12.6368 7.58912 12.6368H9.66041C9.78724 12.6368 9.89001 12.534 9.89001 12.4072C9.89001 12.2803 9.78724 12.1776 9.66041 12.1776H7.58912ZM12.8896 13.5583H7.58912C7.46229 13.5583 7.35953 13.6611 7.35953 13.7879C7.35953 13.9148 7.46229 14.0175 7.58912 14.0175H12.8895C13.0163 14.0175 13.1191 13.9148 13.1191 13.7879C13.1192 13.6611 13.0164 13.5583 12.8896 13.5583ZM12.8896 12.1776H10.8183C10.6915 12.1776 10.5887 12.2803 10.5887 12.4072C10.5887 12.534 10.6915 12.6368 10.8183 12.6368H12.8896C13.0164 12.6368 13.1192 12.534 13.1192 12.4072C13.1192 12.2803 13.0164 12.1776 12.8896 12.1776ZM16.1187 12.1776H14.0475C13.9206 12.1776 13.8179 12.2803 13.8179 12.4072C13.8179 12.534 13.9206 12.6368 14.0475 12.6368H16.1187C16.2455 12.6368 16.3483 12.534 16.3483 12.4072C16.3483 12.2803 16.2455 12.1776 16.1187 12.1776ZM19.3478 12.1776H17.2765C17.1497 12.1776 17.047 12.2803 17.047 12.4072C17.047 12.534 17.1497 12.6368 17.2765 12.6368H19.3477C19.4746 12.6368 19.5773 12.534 19.5773 12.4072C19.5774 12.2803 19.4747 12.1776 19.3478 12.1776Z" fill="#80C46D"/>
<path d="M5.16371 11.0265C5.16371 11.1532 5.06085 11.256 4.93411 11.256C4.93411 11.256 4.93411 11.256 4.93402 11.256L2.4209 11.2552C2.04125 11.2551 1.68437 11.1071 1.41602 10.8385C1.14767 10.57 0.999908 10.2129 1 9.83334L1.00248 2.42081C1.00257 2.04116 1.15052 1.68428 1.41914 1.41593C1.68749 1.14767 2.04437 1 2.42375 1H2.4243L15.6287 1.00432C16.0084 1.00441 16.3652 1.15245 16.6336 1.42098C16.9019 1.68951 17.0497 2.04657 17.0495 2.42623L17.0488 4.69818C17.0487 4.82492 16.9459 4.92768 16.8192 4.92768C16.8191 4.92768 16.8191 4.92768 16.8191 4.92768C16.6924 4.92759 16.5895 4.82483 16.5896 4.698L16.5903 2.42604C16.5904 2.16899 16.4904 1.92737 16.3088 1.74553C16.127 1.56379 15.8855 1.46359 15.6284 1.4635L2.42412 1.45909H2.42375C2.16688 1.45909 1.92535 1.5591 1.7437 1.74067C1.56195 1.92232 1.46176 2.16394 1.46166 2.4209L1.45919 9.83343C1.45909 10.0904 1.5591 10.3321 1.74076 10.5139C1.92241 10.6957 2.16403 10.7959 2.42099 10.796L4.93421 10.7968C5.06094 10.7968 5.16371 10.8997 5.16371 11.0265ZM22 7.01532V14.4279C22 15.2116 21.3624 15.8492 20.5786 15.8492H7.37422C6.59049 15.8492 5.95286 15.2116 5.95286 14.4279V7.01532C5.95286 6.23159 6.59049 5.59387 7.37422 5.59387H20.5786C21.3624 5.59396 22 6.23159 22 7.01532ZM21.5408 7.01532C21.5408 6.48478 21.1092 6.05306 20.5786 6.05306H7.37422C6.84368 6.05306 6.41205 6.48469 6.41205 7.01532V14.4279C6.41205 14.9584 6.84368 15.39 7.37422 15.39H20.5786C21.1092 15.39 21.5408 14.9584 21.5408 14.4279V7.01532ZM7.20616 9.81176V8.54055C7.20616 8.15107 7.523 7.83423 7.91248 7.83423H9.18378C9.57326 7.83423 9.8901 8.15107 9.8901 8.54055V9.81176C9.8901 10.2012 9.57326 10.518 9.18378 10.518H7.91239C7.523 10.518 7.20616 10.2011 7.20616 9.81176ZM7.66535 9.81176C7.66535 9.94795 7.77619 10.0588 7.91248 10.0588H9.18378C9.32007 10.0588 9.43091 9.94795 9.43091 9.81176V8.54055C9.43091 8.40427 9.32007 8.29342 9.18378 8.29342H7.91239C7.7761 8.29342 7.66525 8.40427 7.66525 8.54055V9.81176H7.66535ZM4.82639 6.3293H2.49428C2.36745 6.3293 2.26469 6.43207 2.26469 6.55889C2.26469 6.68572 2.36745 6.78849 2.49428 6.78849H4.82639C4.95322 6.78849 5.05598 6.68572 5.05598 6.55889C5.05598 6.43207 4.95322 6.3293 4.82639 6.3293ZM4.82639 7.68371H2.49428C2.36745 7.68371 2.26469 7.78648 2.26469 7.91331C2.26469 8.04013 2.36745 8.1429 2.49428 8.1429H4.82639C4.95322 8.1429 5.05598 8.04013 5.05598 7.91331C5.05598 7.78648 4.95322 7.68371 4.82639 7.68371ZM7.58912 12.1776C7.46229 12.1776 7.35953 12.2803 7.35953 12.4072C7.35953 12.534 7.46229 12.6368 7.58912 12.6368H9.66041C9.78724 12.6368 9.89001 12.534 9.89001 12.4072C9.89001 12.2803 9.78724 12.1776 9.66041 12.1776H7.58912ZM12.8896 13.5583H7.58912C7.46229 13.5583 7.35953 13.6611 7.35953 13.7879C7.35953 13.9148 7.46229 14.0175 7.58912 14.0175H12.8895C13.0163 14.0175 13.1191 13.9148 13.1191 13.7879C13.1192 13.6611 13.0164 13.5583 12.8896 13.5583ZM12.8896 12.1776H10.8183C10.6915 12.1776 10.5887 12.2803 10.5887 12.4072C10.5887 12.534 10.6915 12.6368 10.8183 12.6368H12.8896C13.0164 12.6368 13.1192 12.534 13.1192 12.4072C13.1192 12.2803 13.0164 12.1776 12.8896 12.1776ZM16.1187 12.1776H14.0475C13.9206 12.1776 13.8179 12.2803 13.8179 12.4072C13.8179 12.534 13.9206 12.6368 14.0475 12.6368H16.1187C16.2455 12.6368 16.3483 12.534 16.3483 12.4072C16.3483 12.2803 16.2455 12.1776 16.1187 12.1776ZM19.3478 12.1776H17.2765C17.1497 12.1776 17.047 12.2803 17.047 12.4072C17.047 12.534 17.1497 12.6368 17.2765 12.6368H19.3477C19.4746 12.6368 19.5773 12.534 19.5773 12.4072C19.5774 12.2803 19.4747 12.1776 19.3478 12.1776Z" stroke="#80C46D" stroke-width="0.6" mask="url(#path-3-outside-1)"/>
<path d="M13.8716 8.17724L14.0335 8.67564C14.0553 8.74304 14.1183 8.78869 14.1891 8.78869H14.7131C14.8716 8.78869 14.9374 8.99146 14.8092 9.08468L14.3853 9.3927C14.328 9.43439 14.3039 9.50823 14.3259 9.57564L14.4878 10.074C14.5368 10.2247 14.3643 10.3501 14.2361 10.257L13.8121 9.94895C13.7548 9.90726 13.6771 9.90726 13.6198 9.94895L13.1958 10.257C13.0676 10.3501 12.8951 10.2248 12.9441 10.074L13.106 9.57564C13.1279 9.50823 13.1039 9.43439 13.0466 9.3927L12.6227 9.08468C12.4945 8.99155 12.5603 8.78869 12.7188 8.78869H13.2429C13.3138 8.78869 13.3766 8.74304 13.3984 8.67564L13.5603 8.17724C13.6094 8.02653 13.8226 8.02653 13.8716 8.17724Z" fill="#80C46D"/>
<path d="M16.6676 8.1765L16.8295 8.6749C16.8514 8.74231 16.9142 8.78795 16.985 8.78795H17.5091C17.6676 8.78795 17.7334 8.99073 17.6052 9.08394L17.1812 9.39196C17.1239 9.43366 17.0998 9.5075 17.1218 9.5749L17.2837 10.0733C17.3327 10.224 17.1602 10.3494 17.032 10.2562L16.6081 9.94822C16.5508 9.90653 16.4731 9.90653 16.4158 9.94822L15.9917 10.2562C15.8635 10.3494 15.691 10.2241 15.74 10.0733L15.9019 9.5749C15.9238 9.5075 15.8998 9.43366 15.8425 9.39196L15.4186 9.08394C15.2904 8.99082 15.3562 8.78795 15.5147 8.78795H16.0388C16.1097 8.78795 16.1725 8.74231 16.1943 8.6749L16.3562 8.1765C16.4054 8.0258 16.6185 8.0258 16.6676 8.1765Z" fill="#80C46D"/>
<path d="M19.4638 8.1765L19.6257 8.6749C19.6475 8.74231 19.7104 8.78795 19.7813 8.78795H20.3053C20.4638 8.78795 20.5296 8.99073 20.4014 9.08394L19.9775 9.39196C19.9202 9.43366 19.8961 9.5075 19.9181 9.5749L20.08 10.0733C20.1289 10.224 19.9565 10.3494 19.8283 10.2562L19.4044 9.94822C19.347 9.90653 19.2694 9.90653 19.212 9.94822L18.7881 10.2562C18.6599 10.3494 18.4874 10.2241 18.5364 10.0733L18.6983 9.5749C18.7202 9.5075 18.6962 9.43366 18.6389 9.39196L18.215 9.08394C18.0868 8.99082 18.1526 8.78795 18.3111 8.78795H18.8351C18.906 8.78795 18.9689 8.74231 18.9907 8.6749L19.1526 8.1765C19.2016 8.0258 19.4148 8.0258 19.4638 8.1765Z" fill="#80C46D"/>
</svg>
