<svg width="16" height="22" viewBox="0 0 16 22" fill="none" xmlns="http://www.w3.org/2000/svg">
<path d="M13.9374 1H2.06249C1.54554 1 1.125 1.42054 1.125 1.93749V20.2234C1.125 20.8738 1.87812 21.2311 2.38253 20.8329L7.80629 16.5509C7.92031 16.4609 8.07953 16.4609 8.19359 16.5509L13.6174 20.8329C14.1215 21.2307 14.8749 20.8742 14.8749 20.2234V1.93749C14.8749 1.42054 14.4544 1 13.9374 1V1ZM14.2499 20.2234C14.2499 20.3504 14.1029 20.4199 14.0047 20.3423L8.58089 16.0604C8.2389 15.7904 7.76113 15.7903 7.41903 16.0604L1.99531 20.3423C1.89687 20.42 1.75004 20.3503 1.75004 20.2234V1.93749C1.75004 1.76519 1.89023 1.625 2.06253 1.625H13.9375C14.1098 1.625 14.25 1.76519 14.25 1.93749V20.2234H14.2499Z" fill="#80C46D" stroke="#80C46D"/>
<path d="M11.7309 6.85804L9.54015 6.53972L8.56043 4.55453C8.33126 4.09012 7.66864 4.09032 7.43954 4.55453L6.45978 6.53972L4.26905 6.85804C3.75655 6.93253 3.55198 7.56276 3.92269 7.92409L5.50795 9.46935L5.1337 11.6513C5.04616 12.1617 5.58236 12.5509 6.04053 12.3101L8.00001 11.28L9.95949 12.3101C10.4178 12.5511 10.9538 12.1614 10.8663 11.6513L10.4921 9.46939L12.0773 7.92416C12.4481 7.56256 12.2432 6.93249 11.7309 6.85804ZM9.93816 9.13646C9.86449 9.20826 9.8309 9.3117 9.84828 9.41306L10.2503 11.7569C7.96376 10.5548 8.10973 10.6144 7.99997 10.6144C7.88977 10.6144 8.03532 10.5552 5.74967 11.7569L6.1517 9.41306C6.16908 9.3117 6.13549 9.20826 6.06182 9.13646L4.35893 7.47655L6.71228 7.1346C6.81404 7.11979 6.90205 7.05589 6.94755 6.96366L7.99891 4.82922C8.00188 4.83313 8.03989 4.91192 9.05246 6.96366C9.09797 7.05589 9.18598 7.11983 9.28773 7.1346L11.6411 7.47655L9.93816 9.13646Z" fill="#80C46D" stroke="#80C46D"/>
</svg>
