<svg width="23" height="23" viewBox="0 0 23 23" fill="none" xmlns="http://www.w3.org/2000/svg">
<path d="M16.6337 1.90562L16.6336 1.90555C16.3665 1.43982 15.9345 1.10639 15.4178 0.968054L15.4178 0.96804C14.9035 0.830643 14.3654 0.902883 13.9052 1.17071L13.9052 1.17071L4.53233 6.62743H2.90906C1.80098 6.62743 0.9 7.52836 0.9 8.63649V20.0907C0.9 21.1988 1.80093 22.0998 2.90906 22.0998H19.1359C20.244 22.0998 21.145 21.1989 21.145 20.0907V17.208C21.7025 16.9797 22.0995 16.436 22.0995 15.7954V12.9318C22.0995 12.2912 21.7025 11.7475 21.145 11.5192V8.63649C21.145 7.60042 20.3552 6.75563 19.3489 6.64811L16.6337 1.90562ZM14.4863 2.16849L14.4865 2.16837C14.6792 2.05561 14.9038 2.02568 15.1191 2.08314C15.3054 2.13301 15.4652 2.24311 15.5784 2.39777L8.31361 6.62743H6.82696L14.4863 2.16849ZM17.1021 5.04814L18.0062 6.62743H14.3894L17.1021 5.04814ZM16.1567 3.39694L16.5285 4.04624L12.0949 6.62743H10.6081L16.1567 3.39694ZM19.9904 20.0907C19.9904 20.5617 19.6069 20.9452 19.1359 20.9452H2.90906C2.4381 20.9452 2.05455 20.5617 2.05455 20.0907V8.63649C2.05455 8.16554 2.4381 7.78198 2.90906 7.78198H19.1359C19.6069 7.78198 19.9904 8.16554 19.9904 8.63649V11.4H17.2269C15.5926 11.4 14.2633 12.7293 14.2633 14.3636C14.2633 15.9979 15.5926 17.3272 17.2269 17.3272H19.9904V20.0907ZM20.945 15.7954C20.945 16.0035 20.7758 16.1727 20.5677 16.1727H17.2269C16.2292 16.1727 15.4178 15.3613 15.4178 14.3636C15.4178 13.366 16.2292 12.5546 17.2269 12.5546H20.5677C20.7758 12.5546 20.945 12.7237 20.945 12.9318V15.7954Z" fill="#80C46D" stroke="#80C46D" stroke-width="0.2"/>
<path d="M16.1729 14.3639C16.1729 13.7825 16.646 13.3094 17.2275 13.3094C17.8089 13.3094 18.282 13.7825 18.282 14.3639H16.1729ZM16.1729 14.3639C16.1729 14.9453 16.646 15.4184 17.2275 15.4184M16.1729 14.3639L17.2275 15.4184M17.2275 15.4184C17.8089 15.4184 18.282 14.9453 18.282 14.3639L17.2275 15.4184Z" fill="#80C46D" stroke="#80C46D" stroke-width="0.2"/>
</svg>
