<svg width="65" height="65" viewBox="0 0 65 65" fill="none" xmlns="http://www.w3.org/2000/svg">
<rect width="65" height="65" rx="6" fill="#80C46D"/>
<path fill-rule="evenodd" clip-rule="evenodd" d="M57.7636 16L48.8784 50.9967H41.5992C40.8115 50.9967 40.0489 50.7104 39.4475 50.1889C38.8028 49.6563 38.3225 48.9458 38.063 48.1404L33.6817 33.8101L29.3216 50.9967H14.6485C14.3506 50.9951 14.0652 50.8731 13.8545 50.657C13.6438 50.4417 13.5243 50.1491 13.5227 49.8445C13.5227 49.539 13.6415 49.2456 13.8522 49.0295C14.0636 48.8134 14.3498 48.6922 14.6485 48.6922C19.5031 48.6922 13.6014 48.6922 18.4709 48.6922C18.7696 48.6922 19.0558 48.571 19.2673 48.3549C19.4788 48.1388 19.5975 47.8453 19.5975 47.5399C19.5975 47.2337 19.4788 46.9411 19.2673 46.725C19.0558 46.5089 18.7696 46.3877 18.4709 46.3877C14.1682 46.3877 17.6179 46.3359 13.3867 46.3359C13.088 46.3359 12.8018 46.2146 12.5904 45.9985C12.3797 45.7824 12.2609 45.489 12.2609 45.1836C12.2609 44.8782 12.3797 44.5847 12.5904 44.3686C12.8018 44.1525 13.088 44.0313 13.3867 44.0313C17.7759 44.0313 19.2382 43.9875 23.6706 43.9875C23.9694 43.9875 24.2555 43.8663 24.467 43.6502C24.6785 43.4341 24.7972 43.1406 24.7972 42.8352C24.7972 42.5298 24.6785 42.2364 24.467 42.0203C24.2555 41.8042 23.9694 41.683 23.6706 41.683C19.7909 41.683 18.8294 41.683 14.9929 41.683C14.6941 41.683 14.408 41.5618 14.1965 41.3457C13.985 41.1296 13.8663 40.8361 13.8663 40.5307C13.8663 40.2245 13.985 39.9319 14.1965 39.7158C14.408 39.4997 14.6941 39.3785 14.9929 39.3785C20.1847 39.3785 21.1171 39.3785 26.3381 39.3785C26.6368 39.3785 26.923 39.2572 27.1345 39.0411C27.346 38.825 27.4647 38.5316 27.4647 38.2262C27.4631 37.9208 27.3436 37.6289 27.1329 37.4128C26.9222 37.1967 26.6368 37.0747 26.3389 37.0731H17.0165V37.0365C16.7413 36.9878 16.4937 36.8379 16.3207 36.6146C16.1478 36.3914 16.0605 36.1099 16.077 35.8252C16.077 35.5198 16.1957 35.2263 16.4064 35.0102C16.6179 34.7941 16.9041 34.6729 17.2028 34.6729H17.6187H23.3129C23.4607 34.6729 23.6069 34.6434 23.7437 34.5852C23.8805 34.527 24.0047 34.4425 24.1093 34.3356C24.2139 34.2288 24.2964 34.1012 24.3538 33.9616C24.4104 33.8221 24.4395 33.6722 24.4395 33.5207C24.4395 33.3692 24.4104 33.2193 24.3538 33.0797C24.2972 32.9402 24.2147 32.8126 24.1093 32.7057C24.0047 32.5989 23.8805 32.5136 23.7437 32.4561C23.6069 32.3979 23.4607 32.3684 23.3129 32.3684C16.5935 32.3684 15.8545 32.3684 9.12098 32.3684C8.96847 32.3676 8.81831 32.3357 8.67837 32.2735C8.53843 32.2113 8.41265 32.1212 8.30808 32.008C8.20352 31.8948 8.12255 31.7608 8.06988 31.6149C8.0172 31.4689 7.99362 31.3127 8.00148 31.1572C8.00148 30.8518 8.12019 30.5583 8.33088 30.3422C8.54236 30.1261 8.82853 30.0049 9.12727 30.0049C17.4607 30.0049 19.827 30.0049 28.1675 30.0049C28.4663 30.0049 28.7524 29.8837 28.9639 29.6676C29.1754 29.4515 29.2941 29.1581 29.2941 28.8526C29.2941 28.5472 29.1754 28.2538 28.9639 28.0377C28.7524 27.8216 28.4663 27.7004 28.1675 27.7004C21.6557 27.7004 19.5613 27.7004 13.0361 27.7004C12.7374 27.7004 12.4512 27.5792 12.2397 27.3631C12.0282 27.147 11.9103 26.8535 11.9103 26.5481C11.9032 26.3934 11.9276 26.2395 11.9795 26.0944C12.0322 25.9493 12.1131 25.8169 12.2161 25.7045C12.3199 25.592 12.4449 25.5027 12.5825 25.4405C12.7209 25.3783 12.8694 25.3456 13.0212 25.344C17.9049 25.344 18.0409 25.344 22.9175 25.344C23.2162 25.344 23.5024 25.2228 23.7139 25.0067C23.9253 24.7906 24.0441 24.4972 24.0441 24.1918C24.0441 23.8856 23.9253 23.5929 23.7139 23.3768C23.5024 23.1607 23.2162 23.0395 22.9175 23.0395C18.5786 23.0395 19.827 22.9877 15.4732 22.9877C15.3239 22.9869 15.1768 22.9558 15.0393 22.896C14.9017 22.8362 14.7775 22.7493 14.6737 22.64C14.5699 22.5308 14.4882 22.4016 14.4331 22.2597C14.3781 22.1177 14.3514 21.9662 14.3545 21.8131C14.3545 21.5077 14.4732 21.2143 14.6847 20.9982C14.8954 20.7821 15.1824 20.6609 15.4811 20.6609C20.1926 20.6609 23.5779 20.6609 28.2894 20.6609C28.5881 20.6609 28.8743 20.5397 29.0858 20.3236C29.2972 20.1075 29.416 19.814 29.416 19.5086C29.416 17.0566 24.8192 19.6625 24.8192 17.2256C24.8161 17.0733 24.8428 16.9226 24.8978 16.7815C24.9521 16.6403 25.0331 16.5111 25.1368 16.4019C25.2398 16.2926 25.364 16.2057 25.5 16.1451C25.636 16.0853 25.7831 16.0534 25.9316 16.051C33.519 16.051 27.9325 16.0072 35.5339 16.0072C36.3185 16.0056 37.0787 16.2831 37.6857 16.7926C38.3366 17.3293 38.8162 18.0525 39.0623 18.8707L43.4514 33.2009L47.8115 16.0072H57.7652L57.7636 16ZM17.4457 16C17.1588 16.0016 16.8844 16.1196 16.6824 16.3269C16.4795 16.5343 16.3648 16.815 16.3632 17.1084V17.2113C16.3648 17.5047 16.4795 17.7854 16.6824 17.9927C16.8852 18.2001 17.1596 18.3173 17.4457 18.3197H21.9277C22.2146 18.3181 22.489 18.2001 22.6911 17.9927C22.8939 17.7854 23.0087 17.5047 23.0102 17.2113V17.1084C23.0087 16.8165 22.8947 16.5367 22.6934 16.3293C22.4922 16.122 22.2201 16.004 21.934 16H17.4457Z" fill="white"/>
</svg>
