<svg width="252" height="237" viewBox="0 0 252 237" fill="none" xmlns="http://www.w3.org/2000/svg">
<g clip-path="url(#clip0)">
<path d="M161.135 70.2919V60.5896H153.085V46.5944H148.06V31.8624H143.035V46.5944H137.791V60.5896H130.211V70.2919H126.552V181.192H164.794V70.2919H161.135Z" fill="#E6E7EA"/>
<path d="M88.6593 47.4488H69.6997V181.192H88.6593V47.4488Z" fill="#E6E7EA"/>
<path d="M203.037 11.4056H164.794V181.192H203.037V11.4056Z" fill="#E6E7EA"/>
<path d="M198.698 18.7458H169.143V27.9839H198.698V18.7458Z" fill="white"/>
<path d="M198.698 37.0461H169.143V46.2843H198.698V37.0461Z" fill="white"/>
<path d="M198.698 55.3476H169.143V64.5858H198.698V55.3476Z" fill="white"/>
<path d="M198.698 73.6491H169.143V82.8873H198.698V73.6491Z" fill="white"/>
<path d="M198.698 91.9495H169.143V101.188H198.698V91.9495Z" fill="white"/>
<path d="M198.698 110.251H169.143V119.489H198.698V110.251Z" fill="white"/>
<path d="M198.698 128.551H169.143V137.789H198.698V128.551Z" fill="white"/>
<path d="M198.698 146.853H169.143V156.091H198.698V146.853Z" fill="white"/>
<path d="M198.698 165.154H169.143V174.392H198.698V165.154Z" fill="white"/>
<path d="M126.588 24.1021H88.3459V181.193H126.588V24.1021Z" fill="#E6E7EA"/>
<path d="M93.0937 27.5946H90.6692V178.601H93.0937V27.5946Z" fill="white"/>
<path d="M98.4001 27.5946H95.9756V178.601H98.4001V27.5946Z" fill="white"/>
<path d="M103.707 27.5946H101.282V178.601H103.707V27.5946Z" fill="white"/>
<path d="M109.013 27.5946H106.589V178.601H109.013V27.5946Z" fill="white"/>
<path d="M114.32 27.5946H111.895V178.601H114.32V27.5946Z" fill="white"/>
<path d="M119.626 27.5946H117.202V178.601H119.626V27.5946Z" fill="white"/>
<path d="M124.932 27.5946H122.508V178.601H124.932V27.5946Z" fill="white"/>
<path d="M32.9613 61.6904C32.8797 61.6906 32.7991 61.6726 32.7253 61.6377C32.6515 61.6028 32.5863 61.552 32.5346 61.4888C32.4829 61.4256 32.446 61.3517 32.4264 61.2724C32.4068 61.1932 32.4051 61.1106 32.4214 61.0306C32.4638 60.8336 32.4863 60.6328 32.4885 60.4313C32.4876 59.6205 32.1652 58.8432 31.5919 58.2698C31.0187 57.6965 30.2414 57.374 29.4307 57.3732C29.2325 57.3734 29.0348 57.3925 28.8402 57.4304C28.7527 57.4472 28.6624 57.4426 28.577 57.4168C28.4917 57.391 28.4139 57.3448 28.3504 57.2822C28.2869 57.2197 28.2395 57.1426 28.2124 57.0577C28.1853 56.9728 28.1793 56.8825 28.1948 56.7947C28.3354 56.021 28.1725 55.2228 27.7399 54.5661C27.3073 53.9094 26.6383 53.4447 25.872 53.2685C25.1056 53.0924 24.3008 53.2184 23.625 53.6204C22.9491 54.0223 22.4541 54.6693 22.2429 55.4268C22.2174 55.5186 22.1685 55.6022 22.101 55.6694C22.0335 55.7366 21.9497 55.7851 21.8578 55.8102C21.7659 55.8352 21.669 55.836 21.5767 55.8123C21.4845 55.7887 21.3999 55.7415 21.3314 55.6753C20.9478 55.3053 20.4742 55.0421 19.9575 54.9116C19.4408 54.7812 18.8989 54.7881 18.3857 54.9317C17.8725 55.0753 17.4058 55.3506 17.0318 55.7302C16.6578 56.1099 16.3895 56.5807 16.2536 57.0961C16.2351 57.1664 16.2029 57.2323 16.1587 57.2901C16.1146 57.3479 16.0594 57.3963 15.9964 57.4326C15.9334 57.4689 15.8639 57.4924 15.7918 57.5016C15.7196 57.5109 15.6464 57.5057 15.5763 57.4864C15.1223 57.3611 14.6454 57.3423 14.183 57.4316C13.7205 57.5209 13.2849 57.7159 12.9102 58.0012C12.5354 58.2866 12.2317 58.6547 12.0226 59.0768C11.8135 59.4988 11.7047 59.9635 11.7048 60.4346C11.7069 60.6361 11.7294 60.8369 11.7718 61.0339C11.7863 61.1047 11.7867 61.1776 11.7729 61.2485C11.7592 61.3194 11.7316 61.3869 11.6918 61.4471C11.652 61.5074 11.6007 61.5592 11.5408 61.5996C11.481 61.64 11.4138 61.6683 11.343 61.6827C11.2723 61.6971 11.1994 61.6975 11.1285 61.6838C11.0576 61.67 10.9901 61.6425 10.9298 61.6026C10.8696 61.5628 10.8178 61.5115 10.7774 61.4517C10.737 61.3918 10.7087 61.3246 10.6943 61.2538C10.6375 60.9855 10.6077 60.7122 10.6052 60.4379C10.6051 59.8418 10.7332 59.2526 10.9808 58.7104C11.2284 58.1681 11.5897 57.6855 12.0403 57.2952C12.4908 56.9049 13.02 56.6161 13.592 56.4483C14.164 56.2806 14.7653 56.2378 15.3553 56.323C15.5851 55.7547 15.9378 55.2442 16.388 54.8281C16.8382 54.412 17.3749 54.1006 17.9595 53.9161C18.5441 53.7317 19.1623 53.6789 19.7697 53.7613C20.3772 53.8438 20.9589 54.0595 21.4732 54.3931C21.8948 53.5585 22.5854 52.8904 23.4335 52.4967C24.2817 52.1031 25.2377 52.007 26.1472 52.2239C27.0567 52.4408 27.8665 52.9581 28.4457 53.6921C29.025 54.4261 29.3398 55.334 29.3394 56.2691V56.2823H29.4296C30.5318 56.2835 31.5886 56.7219 32.368 57.5014C33.1474 58.2809 33.5858 59.3377 33.587 60.4401C33.5849 60.7144 33.555 60.9877 33.4979 61.256C33.4715 61.3788 33.4039 61.4889 33.3063 61.5679C33.2087 61.647 33.0869 61.6902 32.9613 61.6904Z" fill="#3D4A5D"/>
<path d="M43.2807 67.093C43.199 67.0932 43.1184 67.0752 43.0446 67.0403C42.9708 67.0054 42.9057 66.9546 42.854 66.8914C42.8023 66.8282 42.7653 66.7543 42.7457 66.6751C42.7261 66.5958 42.7244 66.5132 42.7408 66.4332C42.7754 66.2738 42.7938 66.1113 42.7958 65.9483C42.7952 65.2921 42.5344 64.663 42.0706 64.199C41.6068 63.7349 40.9778 63.4738 40.3218 63.4729C40.1612 63.473 40.001 63.4884 39.8435 63.5191C39.7558 63.5362 39.6654 63.5317 39.5799 63.506C39.4944 63.4803 39.4165 63.4341 39.3529 63.3716C39.2892 63.309 39.2417 63.2319 39.2146 63.1468C39.1874 63.0618 39.1813 62.9714 39.1969 62.8835C39.3077 62.2587 39.1742 61.6152 38.824 61.086C38.4738 60.5568 37.9337 60.1824 37.3153 60.0402C36.6969 59.898 36.0475 59.9989 35.5013 60.322C34.9552 60.6451 34.5541 61.1657 34.3809 61.7762C34.355 61.8676 34.3059 61.9507 34.2384 62.0175C34.1708 62.0843 34.0871 62.1325 33.9954 62.1573C33.9037 62.1821 33.8072 62.1827 33.7152 62.1591C33.6232 62.1355 33.5389 62.0884 33.4704 62.0225C33.1599 61.7224 32.7763 61.5088 32.3577 61.4029C31.9391 61.297 31.5 61.3026 31.0842 61.419C30.6684 61.5354 30.2903 61.7587 29.9875 62.0665C29.6846 62.3744 29.4677 62.7561 29.3581 63.1738C29.3396 63.2443 29.3073 63.3104 29.2631 63.3682C29.2189 63.4261 29.1636 63.4746 29.1005 63.5109C29.0374 63.5472 28.9677 63.5706 28.8955 63.5798C28.8232 63.5889 28.7499 63.5836 28.6797 63.5642C28.3123 63.4625 27.9264 63.4471 27.5521 63.5192C27.1778 63.5914 26.8253 63.749 26.522 63.9799C26.2187 64.2109 25.9729 64.5088 25.8038 64.8504C25.6347 65.192 25.5468 65.5681 25.5471 65.9494C25.5487 66.1124 25.5667 66.2749 25.6009 66.4343C25.6301 66.5772 25.6013 66.7259 25.5209 66.8475C25.4405 66.9692 25.315 67.0539 25.1721 67.0831C25.0292 67.1123 24.8806 67.0835 24.7589 67.003C24.6373 66.9226 24.5525 66.7971 24.5234 66.6542C24.4747 66.4235 24.4493 66.1885 24.4475 65.9527C24.4474 65.4459 24.555 64.945 24.7632 64.483C24.9714 64.021 25.2755 63.6086 25.6552 63.2731C26.035 62.9376 26.4817 62.6867 26.9658 62.5371C27.4499 62.3875 27.9603 62.3425 28.4631 62.4052C28.6644 61.9333 28.965 61.5103 29.3443 61.1649C29.7236 60.8195 30.1727 60.5597 30.6613 60.4032C31.1498 60.2468 31.6663 60.1973 32.1757 60.2581C32.6851 60.3189 33.1754 60.4886 33.6134 60.7557C33.9884 60.0622 34.5821 59.5122 35.3022 59.1912C36.0222 58.8703 36.8282 58.7965 37.5946 58.9813C38.3609 59.1662 39.0447 59.5993 39.5393 60.2132C40.034 60.827 40.3118 61.5873 40.3295 62.3755C41.2748 62.3801 42.1798 62.7587 42.8469 63.4286C43.514 64.0984 43.8889 65.0051 43.8898 65.9505C43.888 66.1863 43.8622 66.4214 43.8128 66.652C43.7879 66.7753 43.7215 66.8864 43.6247 66.9666C43.5278 67.0468 43.4064 67.0915 43.2807 67.093Z" fill="#3D4A5D"/>
<path d="M122.759 9.58457C122.677 9.58475 122.596 9.56675 122.523 9.53188C122.449 9.49701 122.384 9.44613 122.332 9.38296C122.28 9.31978 122.243 9.24589 122.224 9.16663C122.204 9.08738 122.202 9.00477 122.219 8.92478C122.261 8.72778 122.284 8.52699 122.286 8.32547C122.285 7.51467 121.962 6.73734 121.389 6.16401C120.816 5.59069 120.039 5.26822 119.228 5.26734C119.03 5.26758 118.832 5.28672 118.637 5.32453C118.55 5.34145 118.459 5.33679 118.374 5.31093C118.289 5.28508 118.211 5.23881 118.147 5.17612C118.084 5.11344 118.036 5.03622 118.009 4.95115C117.982 4.86607 117.976 4.7757 117.992 4.68783C118.12 3.91973 117.95 3.13178 117.517 2.48476C117.084 1.83775 116.42 1.38045 115.661 1.20619C114.902 1.03193 114.105 1.15384 113.433 1.54704C112.761 1.94025 112.265 2.57511 112.045 3.32206C112.019 3.41347 111.97 3.49662 111.902 3.56341C111.834 3.63019 111.751 3.67834 111.659 3.70314C111.567 3.72795 111.471 3.72858 111.379 3.70496C111.287 3.68134 111.203 3.63429 111.134 3.56838C110.751 3.1984 110.277 2.93513 109.76 2.80468C109.244 2.67424 108.702 2.68116 108.188 2.82475C107.675 2.96835 107.209 3.24363 106.835 3.62329C106.461 4.00295 106.192 4.4738 106.056 4.98913C106.038 5.05945 106.006 5.12541 105.961 5.18318C105.917 5.24095 105.862 5.28939 105.799 5.3257C105.736 5.36201 105.667 5.38546 105.595 5.39469C105.522 5.40393 105.449 5.39877 105.379 5.37951C104.925 5.25417 104.448 5.23541 103.986 5.32471C103.523 5.414 103.088 5.60893 102.713 5.8943C102.338 6.17966 102.034 6.54774 101.825 6.96984C101.616 7.39193 101.507 7.85662 101.508 8.32767C101.51 8.52919 101.532 8.72998 101.575 8.92698C101.589 8.99774 101.589 9.07065 101.576 9.14155C101.562 9.21245 101.534 9.27995 101.495 9.3402C101.455 9.40044 101.403 9.45226 101.344 9.49268C101.284 9.5331 101.217 9.56134 101.146 9.57578C101.075 9.59022 101.002 9.59058 100.931 9.57684C100.86 9.5631 100.793 9.53554 100.733 9.49571C100.672 9.45589 100.621 9.40459 100.58 9.34474C100.54 9.28489 100.511 9.21767 100.497 9.14691C100.44 8.87858 100.41 8.60524 100.408 8.33097C100.408 7.73486 100.536 7.14569 100.784 6.60344C101.031 6.06119 101.392 5.57854 101.843 5.18825C102.294 4.79795 102.823 4.50914 103.395 4.3414C103.967 4.17366 104.568 4.13092 105.158 4.21608C105.387 3.64752 105.74 3.13674 106.19 2.72029C106.64 2.30384 107.176 1.99203 107.761 1.80718C108.345 1.62234 108.963 1.56904 109.571 1.65109C110.178 1.73314 110.76 1.94851 111.275 2.28179C111.696 1.44723 112.387 0.779164 113.235 0.385533C114.083 -0.00809837 115.039 -0.104305 115.948 0.112458C116.858 0.329221 117.668 0.846292 118.247 1.58013C118.826 2.31397 119.141 3.22171 119.141 4.1567V4.16989H119.231C120.333 4.17106 121.39 4.60948 122.17 5.38896C122.949 6.16845 123.388 7.22532 123.389 8.32767C123.387 8.60196 123.357 8.87534 123.3 9.14361C123.274 9.26838 123.207 9.38053 123.108 9.46095C123.009 9.54136 122.886 9.58506 122.759 9.58457Z" fill="#3D4A5D"/>
<path d="M251.385 67.093C251.304 67.0932 251.223 67.0752 251.149 67.0403C251.075 67.0054 251.01 66.9546 250.959 66.8914C250.907 66.8282 250.87 66.7543 250.85 66.6751C250.831 66.5958 250.829 66.5132 250.845 66.4332C250.88 66.2738 250.898 66.1113 250.9 65.9483C250.9 65.2921 250.639 64.663 250.175 64.199C249.711 63.7349 249.082 63.4738 248.426 63.4729C248.266 63.473 248.106 63.4884 247.948 63.5191C247.86 63.5362 247.77 63.5317 247.685 63.506C247.599 63.4803 247.521 63.4341 247.457 63.3716C247.394 63.309 247.346 63.2319 247.319 63.1468C247.292 63.0618 247.286 62.9714 247.302 62.8835C247.412 62.2587 247.279 61.6152 246.929 61.086C246.578 60.5568 246.038 60.1824 245.42 60.0402C244.801 59.898 244.152 59.9989 243.606 60.322C243.06 60.6451 242.659 61.1657 242.485 61.7762C242.46 61.8681 242.41 61.9516 242.342 62.0186C242.275 62.0857 242.19 62.1339 242.098 62.1585C242.006 62.1831 241.909 62.1833 241.817 62.1591C241.724 62.1349 241.64 62.087 241.572 62.0203C241.261 61.721 240.878 61.5081 240.46 61.4026C240.042 61.2972 239.603 61.3029 239.188 61.4191C238.773 61.5353 238.395 61.7581 238.092 62.0653C237.79 62.3726 237.573 62.7536 237.463 63.1705C237.444 63.241 237.412 63.307 237.368 63.3649C237.324 63.4228 237.268 63.4713 237.205 63.5076C237.142 63.5439 237.072 63.5673 237 63.5765C236.928 63.5856 236.854 63.5803 236.784 63.5609C236.417 63.4597 236.031 63.4449 235.657 63.5174C235.283 63.59 234.931 63.7481 234.628 63.9793C234.325 64.2105 234.079 64.5087 233.911 64.8504C233.742 65.1921 233.654 65.5682 233.655 65.9494C233.657 66.1124 233.675 66.2749 233.709 66.4343C233.723 66.5051 233.724 66.578 233.71 66.6489C233.696 66.7198 233.669 66.7873 233.629 66.8475C233.589 66.9078 233.538 66.9596 233.478 67C233.418 67.0404 233.351 67.0687 233.28 67.0831C233.209 67.0975 233.136 67.0979 233.065 67.0842C232.995 67.0704 232.927 67.0429 232.867 67.003C232.807 66.9632 232.755 66.9119 232.714 66.8521C232.674 66.7922 232.646 66.725 232.631 66.6542C232.583 66.4235 232.557 66.1885 232.555 65.9527C232.555 65.446 232.663 64.9452 232.871 64.4833C233.079 64.0214 233.383 63.609 233.763 63.2736C234.142 62.9381 234.589 62.6872 235.073 62.5375C235.557 62.3878 236.067 62.3427 236.57 62.4052C236.771 61.9333 237.072 61.5103 237.451 61.1649C237.83 60.8195 238.28 60.5597 238.768 60.4032C239.257 60.2468 239.773 60.1973 240.283 60.2581C240.792 60.3189 241.282 60.4886 241.72 60.7557C242.095 60.0622 242.689 59.5122 243.409 59.1912C244.129 58.8703 244.935 58.7965 245.701 58.9813C246.468 59.1662 247.151 59.5993 247.646 60.2132C248.141 60.827 248.419 61.5873 248.436 62.3755C249.382 62.3801 250.287 62.7587 250.954 63.4286C251.621 64.0984 251.996 65.0051 251.997 65.9505C251.995 66.1863 251.969 66.4214 251.92 66.652C251.895 66.7757 251.828 66.887 251.731 66.9673C251.633 67.0476 251.511 67.092 251.385 67.093Z" fill="#3D4A5D"/>
<path d="M229.492 127.715H227.598V125.819C227.59 125.602 227.498 125.397 227.342 125.246C227.186 125.095 226.977 125.011 226.76 125.011C226.543 125.011 226.335 125.095 226.179 125.246C226.023 125.397 225.931 125.602 225.923 125.819V127.715H224.028C223.806 127.715 223.593 127.803 223.436 127.96C223.279 128.117 223.191 128.33 223.191 128.552C223.191 128.774 223.279 128.987 223.436 129.144C223.593 129.301 223.806 129.389 224.028 129.389H225.923V131.285C225.931 131.502 226.023 131.707 226.179 131.858C226.335 132.009 226.543 132.093 226.76 132.093C226.977 132.093 227.186 132.009 227.342 131.858C227.498 131.707 227.59 131.502 227.598 131.285V129.389H229.492C229.714 129.389 229.927 129.301 230.084 129.144C230.241 128.987 230.329 128.774 230.329 128.552C230.329 128.33 230.241 128.117 230.084 127.96C229.927 127.803 229.714 127.715 229.492 127.715Z" fill="#3D4A5D"/>
<path d="M6.3027 128.096H4.40707V126.2C4.39921 125.984 4.30756 125.778 4.15139 125.628C3.99522 125.477 3.78672 125.393 3.56976 125.393C3.3528 125.393 3.1443 125.477 2.98813 125.628C2.83197 125.778 2.74031 125.984 2.73245 126.2V128.096H0.836821C0.614753 128.096 0.40178 128.184 0.244754 128.341C0.087728 128.498 -0.000488281 128.711 -0.000488281 128.933C-0.000488281 129.156 0.087728 129.369 0.244754 129.526C0.40178 129.683 0.614753 129.771 0.836821 129.771H2.73245V131.667C2.74031 131.883 2.83197 132.089 2.98813 132.239C3.1443 132.39 3.3528 132.474 3.56976 132.474C3.78672 132.474 3.99522 132.39 4.15139 132.239C4.30756 132.089 4.39921 131.883 4.40707 131.667V129.771H6.3027C6.52477 129.771 6.73774 129.683 6.89477 129.526C7.05179 129.369 7.14001 129.156 7.14001 128.933C7.14001 128.711 7.05179 128.498 6.89477 128.341C6.73774 128.184 6.52477 128.096 6.3027 128.096Z" fill="#3D4A5D"/>
<path d="M28.1488 14.1382H26.2553V12.2435C26.2475 12.0267 26.1558 11.8214 25.9997 11.6707C25.8435 11.5201 25.635 11.4359 25.418 11.4359C25.2011 11.4359 24.9926 11.5201 24.8364 11.6707C24.6802 11.8214 24.5886 12.0267 24.5807 12.2435V14.1393H22.6862C22.4641 14.1393 22.2511 14.2275 22.0941 14.3846C21.9371 14.5416 21.8489 14.7546 21.8489 14.9767C21.8489 15.1988 21.9371 15.4118 22.0941 15.5688C22.2511 15.7259 22.4641 15.8141 22.6862 15.8141H24.5807V17.7044C24.5886 17.9212 24.6802 18.1266 24.8364 18.2772C24.9926 18.4278 25.2011 18.512 25.418 18.512C25.635 18.512 25.8435 18.4278 25.9997 18.2772C26.1558 18.1266 26.2475 17.9212 26.2553 17.7044V15.813H28.1488C28.3708 15.813 28.5838 15.7248 28.7408 15.5677C28.8979 15.4107 28.9861 15.1977 28.9861 14.9756C28.9861 14.7535 28.8979 14.5405 28.7408 14.3835C28.5838 14.2264 28.3708 14.1382 28.1488 14.1382Z" fill="#3D4A5D"/>
<path d="M224.579 10.5687H222.685V8.67294C222.677 8.4561 222.585 8.25077 222.429 8.10015C222.273 7.94952 222.064 7.86536 221.847 7.86536C221.63 7.86536 221.422 7.94952 221.266 8.10015C221.11 8.25077 221.018 8.4561 221.01 8.67294V10.5687H219.116C218.894 10.5687 218.681 10.657 218.524 10.814C218.367 10.971 218.278 11.184 218.278 11.4061C218.278 11.6282 218.367 11.8412 218.524 11.9982C218.681 12.1553 218.894 12.2435 219.116 12.2435H221.01V14.1393C221.018 14.3561 221.11 14.5615 221.266 14.7121C221.422 14.8627 221.63 14.9469 221.847 14.9469C222.064 14.9469 222.273 14.8627 222.429 14.7121C222.585 14.5615 222.677 14.3561 222.685 14.1393V12.2435H224.579C224.801 12.2435 225.014 12.1553 225.171 11.9982C225.328 11.8412 225.417 11.6282 225.417 11.4061C225.417 11.184 225.328 10.971 225.171 10.814C225.014 10.657 224.801 10.5687 224.579 10.5687Z" fill="#3D4A5D"/>
<path d="M56.3301 156.323H29.125C28.9062 156.323 28.6965 156.236 28.5418 156.082C28.3872 155.927 28.3003 155.717 28.3003 155.498C28.3003 155.28 28.3872 155.07 28.5418 154.915C28.6965 154.76 28.9062 154.674 29.125 154.674H56.3301C56.5488 154.674 56.7586 154.76 56.9132 154.915C57.0679 155.07 57.1548 155.28 57.1548 155.498C57.1548 155.717 57.0679 155.927 56.9132 156.082C56.7586 156.236 56.5488 156.323 56.3301 156.323Z" fill="black" fill-opacity="0.15"/>
<path d="M56.3302 163.45H15.197C14.9783 163.45 14.7685 163.363 14.6139 163.208C14.4592 163.054 14.3723 162.844 14.3723 162.625C14.3723 162.406 14.4592 162.197 14.6139 162.042C14.7685 161.887 14.9783 161.8 15.197 161.8H56.3302C56.5489 161.8 56.7586 161.887 56.9133 162.042C57.0679 162.197 57.1548 162.406 57.1548 162.625C57.1548 162.844 57.0679 163.054 56.9133 163.208C56.7586 163.363 56.5489 163.45 56.3302 163.45Z" fill="black" fill-opacity="0.15"/>
<path d="M56.3302 171.134H25.4184C25.1997 171.134 24.9899 171.047 24.8353 170.893C24.6806 170.738 24.5938 170.528 24.5938 170.309C24.5938 170.091 24.6806 169.881 24.8353 169.726C24.9899 169.572 25.1997 169.485 25.4184 169.485H56.3302C56.5489 169.485 56.7586 169.572 56.9133 169.726C57.0679 169.881 57.1548 170.091 57.1548 170.309C57.1548 170.528 57.0679 170.738 56.9133 170.893C56.7586 171.047 56.5489 171.134 56.3302 171.134Z" fill="black" fill-opacity="0.15"/>
<path d="M66.633 214.877H41.2729C41.0542 214.877 40.8444 214.79 40.6898 214.636C40.5351 214.481 40.4482 214.271 40.4482 214.053C40.4482 213.834 40.5351 213.624 40.6898 213.469C40.8444 213.315 41.0542 213.228 41.2729 213.228H66.633C66.8517 213.228 67.0615 213.315 67.2161 213.469C67.3708 213.624 67.4577 213.834 67.4577 214.053C67.4577 214.271 67.3708 214.481 67.2161 214.636C67.0615 214.79 66.8517 214.877 66.633 214.877Z" fill="black" fill-opacity="0.15"/>
<path d="M73.5538 214.877H69.7053C69.4866 214.877 69.2768 214.79 69.1222 214.636C68.9675 214.481 68.8806 214.271 68.8806 214.053C68.8806 213.834 68.9675 213.624 69.1222 213.469C69.2768 213.315 69.4866 213.228 69.7053 213.228H73.5538C73.7725 213.228 73.9822 213.315 74.1369 213.469C74.2915 213.624 74.3784 213.834 74.3784 214.053C74.3784 214.271 74.2915 214.481 74.1369 214.636C73.9822 214.79 73.7725 214.877 73.5538 214.877Z" fill="black" fill-opacity="0.15"/>
<path d="M38.7825 214.877H34.934C34.7153 214.877 34.5056 214.79 34.3509 214.636C34.1963 214.481 34.1094 214.271 34.1094 214.053C34.1094 213.834 34.1963 213.624 34.3509 213.469C34.5056 213.315 34.7153 213.228 34.934 213.228H38.7825C39.0012 213.228 39.2109 213.315 39.3656 213.469C39.5203 213.624 39.6071 213.834 39.6071 214.053C39.6071 214.271 39.5203 214.481 39.3656 214.636C39.2109 214.79 39.0012 214.877 38.7825 214.877Z" fill="black" fill-opacity="0.15"/>
<path d="M89.2652 214.877H76.5698C76.3511 214.877 76.1413 214.79 75.9867 214.636C75.832 214.481 75.7451 214.271 75.7451 214.053C75.7451 213.834 75.832 213.624 75.9867 213.469C76.1413 213.315 76.3511 213.228 76.5698 213.228H89.2652C89.4839 213.228 89.6937 213.315 89.8483 213.469C90.003 213.624 90.0899 213.834 90.0899 214.053C90.0899 214.271 90.003 214.481 89.8483 214.636C89.6937 214.79 89.4839 214.877 89.2652 214.877Z" fill="black" fill-opacity="0.15"/>
<path d="M178.458 214.877H153.091C152.872 214.877 152.663 214.79 152.508 214.636C152.353 214.481 152.266 214.271 152.266 214.053C152.266 213.834 152.353 213.624 152.508 213.469C152.663 213.315 152.872 213.228 153.091 213.228H178.458C178.676 213.228 178.886 213.315 179.041 213.469C179.195 213.624 179.282 213.834 179.282 214.053C179.282 214.271 179.195 214.481 179.041 214.636C178.886 214.79 178.676 214.877 178.458 214.877Z" fill="black" fill-opacity="0.15"/>
<path d="M185.372 214.877H181.523C181.305 214.877 181.095 214.79 180.94 214.636C180.786 214.481 180.699 214.271 180.699 214.053C180.699 213.834 180.786 213.624 180.94 213.469C181.095 213.315 181.305 213.228 181.523 213.228H185.372C185.59 213.228 185.8 213.315 185.955 213.469C186.11 213.624 186.196 213.834 186.196 214.053C186.196 214.271 186.11 214.481 185.955 214.636C185.8 214.79 185.59 214.877 185.372 214.877Z" fill="black" fill-opacity="0.15"/>
<path d="M150.601 214.877H146.752C146.533 214.877 146.324 214.79 146.169 214.636C146.014 214.481 145.927 214.271 145.927 214.053C145.927 213.834 146.014 213.624 146.169 213.469C146.324 213.315 146.533 213.228 146.752 213.228H150.601C150.819 213.228 151.029 213.315 151.184 213.469C151.338 213.624 151.425 213.834 151.425 214.053C151.425 214.271 151.338 214.481 151.184 214.636C151.029 214.79 150.819 214.877 150.601 214.877Z" fill="black" fill-opacity="0.15"/>
<path d="M201.083 214.877H188.388C188.169 214.877 187.959 214.79 187.805 214.636C187.65 214.481 187.563 214.271 187.563 214.053C187.563 213.834 187.65 213.624 187.805 213.469C187.959 213.315 188.169 213.228 188.388 213.228H201.083C201.302 213.228 201.512 213.315 201.666 213.469C201.821 213.624 201.908 213.834 201.908 214.053C201.908 214.271 201.821 214.481 201.666 214.636C201.512 214.79 201.302 214.877 201.083 214.877Z" fill="black" fill-opacity="0.15"/>
<path d="M133.346 228.203H107.976C107.758 228.203 107.548 228.116 107.393 227.961C107.238 227.807 107.152 227.597 107.152 227.378C107.152 227.159 107.238 226.95 107.393 226.795C107.548 226.64 107.758 226.553 107.976 226.553H133.342C133.561 226.553 133.77 226.64 133.925 226.795C134.08 226.95 134.167 227.159 134.167 227.378C134.167 227.597 134.08 227.807 133.925 227.961C133.77 228.116 133.561 228.203 133.342 228.203H133.346Z" fill="black" fill-opacity="0.15"/>
<path d="M140.261 228.203H136.413C136.194 228.203 135.984 228.116 135.83 227.961C135.675 227.807 135.588 227.597 135.588 227.378C135.588 227.159 135.675 226.95 135.83 226.795C135.984 226.64 136.194 226.553 136.413 226.553H140.261C140.48 226.553 140.69 226.64 140.844 226.795C140.999 226.95 141.086 227.159 141.086 227.378C141.086 227.597 140.999 227.807 140.844 227.961C140.69 228.116 140.48 228.203 140.261 228.203Z" fill="black" fill-opacity="0.15"/>
<path d="M105.49 228.203H101.642C101.423 228.203 101.213 228.116 101.059 227.961C100.904 227.807 100.817 227.597 100.817 227.378C100.817 227.159 100.904 226.95 101.059 226.795C101.213 226.64 101.423 226.553 101.642 226.553H105.49C105.709 226.553 105.919 226.64 106.073 226.795C106.228 226.95 106.315 227.159 106.315 227.378C106.315 227.597 106.228 227.807 106.073 227.961C105.919 228.116 105.709 228.203 105.49 228.203Z" fill="black" fill-opacity="0.15"/>
<path d="M155.973 228.202H143.277C143.059 228.202 142.849 228.115 142.694 227.96C142.54 227.805 142.453 227.596 142.453 227.377C142.453 227.158 142.54 226.948 142.694 226.794C142.849 226.639 143.059 226.552 143.277 226.552H155.973C156.191 226.552 156.401 226.639 156.556 226.794C156.711 226.948 156.797 227.158 156.797 227.377C156.797 227.596 156.711 227.805 156.556 227.96C156.401 228.115 156.191 228.202 155.973 228.202Z" fill="black" fill-opacity="0.15"/>
<path d="M210.481 237H185.115C184.897 237 184.687 236.913 184.532 236.758C184.378 236.604 184.291 236.394 184.291 236.175C184.291 235.957 184.378 235.747 184.532 235.592C184.687 235.437 184.897 235.351 185.115 235.351H210.481C210.7 235.351 210.909 235.437 211.064 235.592C211.219 235.747 211.306 235.957 211.306 236.175C211.306 236.394 211.219 236.604 211.064 236.758C210.909 236.913 210.7 237 210.481 237Z" fill="black" fill-opacity="0.15"/>
<path d="M217.396 237H213.548C213.329 237 213.119 236.913 212.965 236.758C212.81 236.604 212.723 236.394 212.723 236.175C212.723 235.957 212.81 235.747 212.965 235.592C213.119 235.437 213.329 235.351 213.548 235.351H217.396C217.615 235.351 217.825 235.437 217.979 235.592C218.134 235.747 218.221 235.957 218.221 236.175C218.221 236.394 218.134 236.604 217.979 236.758C217.825 236.913 217.615 237 217.396 237Z" fill="black" fill-opacity="0.15"/>
<path d="M182.625 237H178.777C178.558 237 178.348 236.913 178.193 236.758C178.039 236.604 177.952 236.394 177.952 236.175C177.952 235.957 178.039 235.747 178.193 235.592C178.348 235.437 178.558 235.351 178.777 235.351H182.625C182.844 235.351 183.053 235.437 183.208 235.592C183.363 235.747 183.45 235.957 183.45 236.175C183.45 236.394 183.363 236.604 183.208 236.758C183.053 236.913 182.844 237 182.625 237Z" fill="black" fill-opacity="0.15"/>
<path d="M233.105 236.999H220.412C220.193 236.999 219.984 236.912 219.829 236.757C219.674 236.603 219.587 236.393 219.587 236.174C219.587 235.955 219.674 235.746 219.829 235.591C219.984 235.436 220.193 235.349 220.412 235.349H233.105C233.324 235.349 233.534 235.436 233.688 235.591C233.843 235.746 233.93 235.955 233.93 236.174C233.93 236.393 233.843 236.603 233.688 236.757C233.534 236.912 233.324 236.999 233.105 236.999Z" fill="black" fill-opacity="0.15"/>
<path d="M64.0018 237H38.6362C38.4175 237 38.2077 236.913 38.0531 236.758C37.8984 236.604 37.8115 236.394 37.8115 236.175C37.8115 235.957 37.8984 235.747 38.0531 235.592C38.2077 235.437 38.4175 235.351 38.6362 235.351H64.0018C64.2205 235.351 64.4303 235.437 64.5849 235.592C64.7396 235.747 64.8265 235.957 64.8265 236.175C64.8265 236.394 64.7396 236.604 64.5849 236.758C64.4303 236.913 64.2205 237 64.0018 237Z" fill="black" fill-opacity="0.15"/>
<path d="M70.9214 237H67.073C66.8542 237 66.6445 236.913 66.4898 236.758C66.3352 236.604 66.2483 236.394 66.2483 236.175C66.2483 235.957 66.3352 235.747 66.4898 235.592C66.6445 235.437 66.8542 235.351 67.073 235.351H70.9214C71.1401 235.351 71.3498 235.437 71.5045 235.592C71.6592 235.747 71.746 235.957 71.746 236.175C71.746 236.394 71.6592 236.604 71.5045 236.758C71.3498 236.913 71.1401 237 70.9214 237Z" fill="black" fill-opacity="0.15"/>
<path d="M36.1458 237H32.2973C32.0786 237 31.8688 236.913 31.7142 236.758C31.5595 236.604 31.4727 236.394 31.4727 236.175C31.4727 235.957 31.5595 235.747 31.7142 235.592C31.8688 235.437 32.0786 235.351 32.2973 235.351H36.1458C36.3645 235.351 36.5742 235.437 36.7289 235.592C36.8835 235.747 36.9704 235.957 36.9704 236.175C36.9704 236.394 36.8835 236.604 36.7289 236.758C36.5742 236.913 36.3645 237 36.1458 237Z" fill="black" fill-opacity="0.15"/>
<path d="M86.6285 236.999H73.9331C73.7143 236.999 73.5046 236.912 73.3499 236.757C73.1953 236.603 73.1084 236.393 73.1084 236.174C73.1084 235.955 73.1953 235.746 73.3499 235.591C73.5046 235.436 73.7143 235.349 73.9331 235.349H86.6285C86.8472 235.349 87.057 235.436 87.2116 235.591C87.3663 235.746 87.4532 235.955 87.4532 236.174C87.4532 236.393 87.3663 236.603 87.2116 236.757C87.057 236.912 86.8472 236.999 86.6285 236.999Z" fill="black" fill-opacity="0.15"/>
<path d="M65.1301 123.856L62.103 124.869L67.8078 141.92L70.8348 140.907L65.1301 123.856Z" fill="#3D4A5D"/>
<path d="M67.2796 142.971L61.054 124.355L65.6457 122.816L71.8714 141.432L67.2796 142.971ZM63.1409 125.395L68.3209 140.883L69.7833 140.393L64.6044 124.906L63.1409 125.395Z" fill="#3D4A5D"/>
<path d="M85.4926 123.852L82.4656 124.865L88.1703 141.916L91.1974 140.903L85.4926 123.852Z" fill="#3D4A5D"/>
<path d="M87.64 142.971L81.4143 124.355L86.0049 122.816L92.2306 141.432L87.64 142.971ZM83.5013 125.395L88.6802 140.883L90.1426 140.393L84.9626 124.906L83.5013 125.395Z" fill="#3D4A5D"/>
<path d="M96.2395 123.601C96.2401 123.879 96.1858 124.155 96.0796 124.413C95.9735 124.671 95.8176 124.905 95.621 125.102C95.4243 125.3 95.1907 125.456 94.9335 125.564C94.6762 125.671 94.4004 125.726 94.1218 125.726H50.9731C50.6942 125.726 50.418 125.671 50.1604 125.565C49.9028 125.458 49.6687 125.301 49.4717 125.104C49.2747 124.906 49.1186 124.672 49.0122 124.414C48.9059 124.156 48.8515 123.88 48.8521 123.601C48.8521 123.038 49.0755 122.499 49.4733 122.101C49.8711 121.703 50.4106 121.48 50.9731 121.48H94.1218C94.6837 121.48 95.2224 121.704 95.6194 122.102C96.0165 122.5 96.2395 123.039 96.2395 123.601Z" fill="#3D4A5D"/>
<path d="M94.1219 126.551H50.9733C50.192 126.551 49.4428 126.241 48.8904 125.688C48.3379 125.136 48.0276 124.386 48.0276 123.605C48.0276 122.824 48.3379 122.074 48.8904 121.522C49.4428 120.969 50.192 120.659 50.9733 120.659H94.1219C94.5088 120.659 94.8918 120.735 95.2492 120.883C95.6066 121.031 95.9313 121.248 96.2049 121.522C96.4784 121.796 96.6954 122.12 96.8434 122.478C96.9914 122.835 97.0676 123.218 97.0676 123.605C97.0676 123.992 96.9914 124.375 96.8434 124.732C96.6954 125.09 96.4784 125.415 96.2049 125.688C95.9313 125.962 95.6066 126.179 95.2492 126.327C94.8918 126.475 94.5088 126.551 94.1219 126.551ZM50.9766 122.309C50.6328 122.309 50.303 122.445 50.0599 122.688C49.8168 122.931 49.6802 123.261 49.6802 123.605C49.6802 123.949 49.8168 124.279 50.0599 124.522C50.303 124.765 50.6328 124.902 50.9766 124.902H94.1219C94.2922 124.902 94.4608 124.868 94.618 124.803C94.7753 124.738 94.9182 124.642 95.0386 124.522C95.159 124.401 95.2545 124.259 95.3196 124.101C95.3848 123.944 95.4183 123.775 95.4183 123.605C95.4183 123.435 95.3848 123.266 95.3196 123.109C95.2545 122.952 95.159 122.809 95.0386 122.688C94.9182 122.568 94.7753 122.472 94.618 122.407C94.4608 122.342 94.2922 122.309 94.1219 122.309H50.9766Z" fill="#3D4A5D"/>
<path d="M71.9636 141.177H66.7583V150.731H71.9636V141.177Z" fill="#80C46D"/>
<path d="M72.7907 151.556H65.9338V140.352H72.7907V151.556ZM67.5854 149.907H71.1413V142.001H67.5832L67.5854 149.907Z" fill="#3D4A5D"/>
<path d="M91.1883 214.054C105.239 214.054 116.63 202.533 116.63 188.322C116.63 174.11 105.239 162.59 91.1883 162.59C77.1373 162.59 65.7468 174.11 65.7468 188.322C65.7468 202.533 77.1373 214.054 91.1883 214.054Z" fill="#80C46D"/>
<path d="M91.1883 214.877C84.171 214.877 77.5736 212.114 72.6125 207.096C67.6844 202.09 64.9224 195.346 64.9224 188.321C64.9224 181.296 67.6844 174.553 72.6125 169.546C77.5736 164.529 84.171 161.765 91.1883 161.765C98.2057 161.765 104.803 164.529 109.764 169.546C114.692 174.553 117.454 181.296 117.454 188.321C117.454 195.346 114.692 202.09 109.764 207.096C104.803 212.114 98.2057 214.877 91.1883 214.877ZM91.1883 163.414C84.6152 163.414 78.4335 166.003 73.7846 170.705C69.1621 175.403 66.5714 181.729 66.5714 188.32C66.5714 194.911 69.1621 201.237 73.7846 205.935C78.4335 210.637 84.6141 213.227 91.1883 213.227C97.7625 213.227 103.943 210.637 108.592 205.935C113.215 201.237 115.805 194.911 115.805 188.32C115.805 181.729 113.215 175.403 108.592 170.705C103.942 166.004 97.7614 163.415 91.1883 163.415V163.414Z" fill="#3D4A5D"/>
<path d="M91.1883 206.334C101.024 206.334 108.997 198.27 108.997 188.322C108.997 178.374 101.024 170.31 91.1883 170.31C81.353 170.31 73.3799 178.374 73.3799 188.322C73.3799 198.27 81.353 206.334 91.1883 206.334Z" fill="#A9D79C"/>
<path d="M91.1882 207.159C80.914 207.159 72.5552 198.709 72.5552 188.322C72.5552 177.935 80.9118 169.485 91.1882 169.485C101.465 169.485 109.821 177.935 109.821 188.322C109.821 198.709 101.462 207.159 91.1882 207.159ZM91.1882 171.135C81.8233 171.135 74.2045 178.846 74.2045 188.323C74.2045 197.8 81.8233 205.51 91.1882 205.51C100.553 205.51 108.172 197.801 108.172 188.323C108.172 178.845 100.553 171.134 91.1882 171.134V171.135Z" fill="#3D4A5D"/>
<path d="M91.1884 200.93C98.0736 200.93 103.655 195.285 103.655 188.322C103.655 181.358 98.0736 175.713 91.1884 175.713C84.3032 175.713 78.7217 181.358 78.7217 188.322C78.7217 195.285 84.3032 200.93 91.1884 200.93Z" fill="#89919C"/>
<path d="M91.1884 201.755C83.8598 201.755 77.897 195.729 77.897 188.322C77.897 180.915 83.8587 174.888 91.1884 174.888C98.518 174.888 104.48 180.915 104.48 188.322C104.48 195.729 98.5202 201.755 91.1884 201.755ZM91.1884 176.538C84.7692 176.538 79.5463 181.824 79.5463 188.322C79.5463 194.82 84.7692 200.106 91.1884 200.106C97.6076 200.106 102.83 194.82 102.83 188.322C102.83 181.824 97.6076 176.538 91.1884 176.538Z" fill="#3D4A5D"/>
<path d="M205.676 214.054C219.727 214.054 231.117 202.533 231.117 188.322C231.117 174.11 219.727 162.59 205.676 162.59C191.625 162.59 180.234 174.11 180.234 188.322C180.234 202.533 191.625 214.054 205.676 214.054Z" fill="#80C46D"/>
<path d="M205.676 214.877C198.659 214.877 192.061 212.114 187.1 207.096C182.172 202.09 179.41 195.346 179.41 188.321C179.41 181.296 182.172 174.553 187.1 169.546C192.061 164.529 198.659 161.765 205.676 161.765C212.693 161.765 219.291 164.529 224.252 169.546C229.18 174.553 231.942 181.296 231.942 188.321C231.942 195.346 229.18 202.09 224.252 207.096C219.291 212.114 212.693 214.877 205.676 214.877ZM205.676 163.414C199.103 163.414 192.921 166.003 188.272 170.705C183.65 175.403 181.059 181.729 181.059 188.32C181.059 194.911 183.65 201.237 188.272 205.935C192.921 210.637 199.102 213.227 205.676 213.227C212.25 213.227 218.431 210.637 223.08 205.935C227.702 201.237 230.293 194.911 230.293 188.32C230.293 181.729 227.702 175.403 223.08 170.705C218.431 166.004 212.25 163.415 205.676 163.415V163.414Z" fill="#3D4A5D"/>
<path d="M205.676 206.334C215.511 206.334 223.484 198.27 223.484 188.322C223.484 178.374 215.511 170.31 205.676 170.31C195.841 170.31 187.867 178.374 187.867 188.322C187.867 198.27 195.841 206.334 205.676 206.334Z" fill="#A9D79C"/>
<path d="M205.676 207.159C195.402 207.159 187.043 198.709 187.043 188.322C187.043 177.935 195.399 169.485 205.676 169.485C215.952 169.485 224.309 177.936 224.309 188.322C224.309 198.708 215.952 207.159 205.676 207.159ZM205.676 171.135C196.311 171.135 188.692 178.846 188.692 188.323C188.692 197.8 196.311 205.51 205.676 205.51C215.041 205.51 222.659 197.799 222.659 188.322C222.659 178.845 215.041 171.134 205.676 171.134V171.135Z" fill="#3D4A5D"/>
<path d="M205.676 200.93C212.561 200.93 218.143 195.285 218.143 188.322C218.143 181.358 212.561 175.713 205.676 175.713C198.791 175.713 193.209 181.358 193.209 188.322C193.209 195.285 198.791 200.93 205.676 200.93Z" fill="#89919C"/>
<path d="M205.676 201.755C198.348 201.755 192.386 195.729 192.386 188.322C192.386 180.915 198.348 174.888 205.677 174.888C213.007 174.888 218.968 180.915 218.968 188.322C218.968 195.729 213.004 201.755 205.676 201.755ZM205.676 176.538C199.257 176.538 194.035 181.824 194.035 188.322C194.035 194.82 199.258 200.106 205.677 200.106C212.096 200.106 217.319 194.82 217.319 188.322C217.319 181.824 212.095 176.538 205.676 176.538Z" fill="#3D4A5D"/>
<path d="M206.44 161.571C202.648 151.323 195.281 131.738 192.301 126.197C191.151 124.057 175.218 125.613 175.218 125.613L181.454 167.93C181.454 173.219 179.061 176.546 168.671 179.036H140.546C133.018 176.898 124.031 175.031 123.031 166.674C121.639 155.04 128.272 139.77 128.272 139.77H73.7703C72.984 139.766 72.2283 140.074 71.6688 140.626C71.1094 141.179 70.7919 141.931 70.7861 142.717V147.137C70.7868 147.587 70.8912 148.03 71.0913 148.433C71.2913 148.836 71.5816 149.188 71.9395 149.46C67.4314 154.355 56.1378 161.043 58.2622 186.475L57.9983 187.245H171.5C182.978 187.245 192.453 183.828 197.134 177.587H229.499C229.5 169.03 219.294 162.037 206.44 161.571Z" fill="#9CD18D"/>
<path d="M171.5 188.071H56.8469L57.4297 186.374C56.6292 176.553 57.7024 168.636 60.7075 162.173C63.2683 156.666 66.7726 153.328 69.3312 150.891C69.8469 150.399 70.3428 149.927 70.7871 149.479C70.2537 148.816 69.9638 147.991 69.9657 147.14V142.72C69.9718 141.715 70.3762 140.754 71.0903 140.047C71.8043 139.34 72.7697 138.945 73.7745 138.949H129.527L129.027 140.102C128.962 140.253 122.5 155.306 123.849 166.579C124.711 173.784 132.034 175.817 139.115 177.783C139.634 177.929 140.148 178.073 140.655 178.214H168.573C173.436 177.038 176.557 175.678 178.39 173.935C179.949 172.454 180.619 170.672 180.629 167.989L174.279 124.876L175.141 124.792C175.197 124.792 180.828 124.242 185.611 124.242C191.407 124.242 192.614 125.032 193.03 125.807C195.95 131.24 202.969 149.813 207.026 160.776C213.206 161.09 218.953 162.89 223.262 165.871C227.819 169.023 230.327 173.185 230.327 177.593V178.417H197.54C192.697 184.557 183.239 188.071 171.5 188.071ZM59.0856 186.422H171.5C182.924 186.422 192.027 183.021 196.475 177.093L196.722 176.763H228.64C228.342 173.216 226.124 169.854 222.321 167.224C218.143 164.331 212.488 162.616 206.409 162.395L205.859 162.376L205.668 161.858C201.664 151.029 194.512 132.064 191.586 126.607C191.484 126.506 190.655 125.892 185.61 125.892C182.009 125.892 177.913 126.207 176.164 126.356L182.281 167.869V167.93C182.281 171.1 181.432 173.318 179.532 175.13C177.468 177.093 174.079 178.59 168.866 179.841L168.772 179.864H140.431L140.321 179.833C139.779 179.679 139.229 179.526 138.671 179.373C131.42 177.36 123.202 175.079 122.208 166.775C121.617 161.842 122.332 155.74 124.331 148.639C125.097 145.915 126 143.231 127.037 140.598H73.7701C73.2025 140.594 72.6564 140.815 72.2515 141.213C71.8466 141.61 71.6161 142.153 71.6106 142.72V147.14C71.6109 147.464 71.6861 147.783 71.8303 148.073C71.9745 148.362 72.1838 148.615 72.4419 148.81L73.1555 149.36L72.5452 150.02C71.9449 150.672 71.2258 151.358 70.4638 152.083C67.8633 154.56 64.6274 157.643 62.1984 162.866C59.2989 169.1 58.2807 176.801 59.0834 186.408L59.0856 186.422Z" fill="#3D4A5D"/>
<path d="M86.1734 129.46H129.056C129.837 129.46 130.586 129.77 131.139 130.323C131.691 130.875 132.002 131.624 132.002 132.406V136.826C132.002 137.608 131.691 138.357 131.139 138.909C130.586 139.462 129.837 139.772 129.056 139.772H86.1734C85.3918 139.772 84.6423 139.462 84.0897 138.909C83.537 138.356 83.2266 137.607 83.2266 136.825V132.406C83.2269 131.624 83.5375 130.875 84.0901 130.322C84.6427 129.77 85.392 129.46 86.1734 129.46Z" fill="#80C46D"/>
<path d="M129.059 140.597H86.1766C85.1768 140.596 84.2183 140.198 83.5115 139.491C82.8046 138.784 82.4071 137.825 82.4062 136.825V132.406C82.4071 131.406 82.8046 130.447 83.5115 129.74C84.2183 129.033 85.1768 128.635 86.1766 128.634H129.059C130.059 128.635 131.018 129.032 131.725 129.74C132.432 130.447 132.83 131.406 132.831 132.406V136.825C132.83 137.825 132.432 138.784 131.725 139.491C131.018 140.198 130.059 140.596 129.059 140.597ZM86.1766 130.283C85.6142 130.284 85.075 130.508 84.6774 130.906C84.2798 131.304 84.0562 131.843 84.0556 132.406V136.825C84.0562 137.388 84.2798 137.927 84.6774 138.325C85.075 138.723 85.6142 138.947 86.1766 138.948H129.059C129.622 138.947 130.161 138.723 130.559 138.325C130.957 137.927 131.181 137.388 131.181 136.825V132.406C131.181 131.843 130.957 131.304 130.559 130.906C130.161 130.508 129.622 130.284 129.059 130.283H86.1766Z" fill="#3D4A5D"/>
<path d="M122.16 187.344C120.807 176.085 116.801 167.721 110.253 162.487C103.876 157.389 96.3638 156.319 91.1838 156.319V154.669C96.6277 154.669 104.534 155.802 111.283 161.198C118.181 166.713 122.388 175.443 123.798 187.15L122.16 187.344Z" fill="#3D4A5D"/>
<path d="M167.361 111.862C167.361 116.267 169.863 120.162 174.825 122.536L175.218 125.615L186.839 125.065V98.7662C176.082 98.7662 167.361 104.628 167.361 111.862Z" fill="#9CD18D"/>
<path d="M174.499 126.472L174.065 123.079C171.699 121.879 169.846 120.314 168.554 118.427C167.224 116.497 166.521 114.205 166.538 111.862C166.538 108.08 168.694 104.549 172.608 101.917C176.421 99.3523 181.477 97.9404 186.842 97.9404H187.666V125.853L174.499 126.472ZM186.018 99.602C176.113 99.8868 168.189 105.276 168.189 111.861C168.189 116.105 170.673 119.632 175.183 121.791L175.588 121.984L175.942 124.752L186.017 124.278L186.018 99.602Z" fill="#3D4A5D"/>
<path d="M186.839 101.548V121.602C191.269 121.602 194.861 117.113 194.861 111.575C194.861 106.037 191.269 101.548 186.839 101.548Z" fill="#D0E9C9"/>
<path d="M186.84 122.426C186.621 122.426 186.411 122.339 186.256 122.185C186.102 122.03 186.015 121.82 186.015 121.602V101.548C186.015 101.33 186.102 101.12 186.256 100.965C186.411 100.81 186.621 100.724 186.84 100.724C191.717 100.724 195.685 105.592 195.685 111.575C195.685 117.558 191.717 122.426 186.84 122.426ZM187.664 102.432V120.716C191.245 120.192 194.036 116.292 194.036 111.575C194.036 106.857 191.245 102.958 187.664 102.434V102.432Z" fill="#3D4A5D"/>
<path d="M66.7585 149.94V141.965C64.9992 141.965 63.5698 143.75 63.5698 145.95C63.5698 148.151 64.9981 149.94 66.7585 149.94Z" fill="#D0E9C9"/>
<path d="M66.7583 150.762C64.546 150.762 62.7461 148.605 62.7461 145.952C62.7461 143.3 64.546 141.142 66.7583 141.142C66.977 141.142 67.1868 141.229 67.3414 141.384C67.4961 141.539 67.583 141.748 67.583 141.967V149.938C67.5827 150.157 67.4957 150.366 67.3411 150.521C67.1864 150.675 66.9768 150.762 66.7583 150.762ZM65.9337 142.99C65.0364 143.438 64.3943 144.597 64.3943 145.952C64.3943 147.307 65.0353 148.466 65.9337 148.915V142.99Z" fill="#3D4A5D"/>
<path d="M199.757 162.075L205.94 160.221L201.61 148.92L195.335 150.397L199.757 162.075Z" fill="#D0E9C9"/>
<path d="M199.757 162.9C199.59 162.9 199.427 162.849 199.29 162.754C199.152 162.659 199.047 162.524 198.987 162.368L194.564 150.69C194.522 150.58 194.503 150.462 194.51 150.344C194.517 150.226 194.549 150.112 194.605 150.007C194.66 149.903 194.736 149.812 194.83 149.74C194.923 149.668 195.031 149.617 195.146 149.59L201.421 148.113C201.615 148.067 201.819 148.094 201.995 148.187C202.172 148.281 202.308 148.435 202.38 148.621L206.71 159.922C206.75 160.028 206.769 160.141 206.763 160.255C206.758 160.368 206.73 160.479 206.68 160.581C206.63 160.683 206.559 160.774 206.473 160.847C206.386 160.92 206.285 160.975 206.176 161.008L199.995 162.862C199.918 162.886 199.838 162.899 199.757 162.9ZM196.439 150.982L200.256 161.063L204.851 159.685L201.096 149.887L196.439 150.982Z" fill="#3D4A5D"/>
<path d="M173.934 116.543C175.666 116.543 177.07 115.139 177.07 113.407C177.07 111.675 175.666 110.271 173.934 110.271C172.202 110.271 170.798 111.675 170.798 113.407C170.798 115.139 172.202 116.543 173.934 116.543Z" fill="#80C46D"/>
<path d="M173.934 117.367C173.151 117.367 172.386 117.135 171.735 116.7C171.084 116.265 170.577 115.646 170.277 114.923C169.978 114.2 169.899 113.404 170.052 112.636C170.205 111.868 170.582 111.162 171.135 110.609C171.689 110.055 172.394 109.678 173.162 109.525C173.93 109.373 174.726 109.451 175.449 109.751C176.172 110.05 176.791 110.558 177.225 111.209C177.66 111.86 177.893 112.625 177.893 113.408C177.891 114.458 177.473 115.463 176.731 116.205C175.989 116.947 174.984 117.365 173.934 117.367ZM173.934 111.099C173.478 111.099 173.031 111.234 172.651 111.488C172.272 111.742 171.976 112.102 171.801 112.524C171.626 112.946 171.58 113.411 171.67 113.859C171.759 114.307 171.979 114.718 172.301 115.041C172.624 115.364 173.036 115.584 173.484 115.673C173.932 115.762 174.396 115.716 174.818 115.542C175.24 115.367 175.6 115.071 175.854 114.691C176.108 114.311 176.243 113.865 176.243 113.408C176.244 113.105 176.184 112.804 176.068 112.523C175.953 112.243 175.783 111.988 175.568 111.773C175.354 111.558 175.099 111.388 174.819 111.272C174.538 111.155 174.238 111.096 173.934 111.096V111.099Z" fill="#3D4A5D"/>
<path d="M106.755 166.456C106.755 166.628 106.721 166.798 106.655 166.956C106.589 167.114 106.493 167.258 106.371 167.379C106.25 167.5 106.106 167.596 105.947 167.661C105.789 167.727 105.619 167.76 105.447 167.759H76.9248C76.5792 167.759 76.2478 167.622 76.0035 167.378C75.7591 167.133 75.6218 166.802 75.6218 166.456C75.6218 166.111 75.7591 165.779 76.0035 165.535C76.2478 165.29 76.5792 165.153 76.9248 165.153H105.447C105.793 165.153 106.124 165.29 106.369 165.535C106.613 165.779 106.75 166.111 106.75 166.456H106.755Z" fill="#8AC979"/>
<path d="M105.447 168.584H76.9248C76.3605 168.584 75.8193 168.36 75.4203 167.961C75.0213 167.562 74.7971 167.021 74.7971 166.456C74.7971 165.892 75.0213 165.351 75.4203 164.952C75.8193 164.553 76.3605 164.328 76.9248 164.328H105.447C106.011 164.328 106.553 164.553 106.952 164.952C107.351 165.351 107.575 165.892 107.575 166.456C107.575 167.021 107.351 167.562 106.952 167.961C106.553 168.36 106.011 168.584 105.447 168.584ZM76.9204 165.978C76.7935 165.978 76.6718 166.028 76.5821 166.118C76.4924 166.208 76.4421 166.329 76.4421 166.456C76.4421 166.583 76.4924 166.705 76.5821 166.795C76.6718 166.884 76.7935 166.935 76.9204 166.935H105.447C105.574 166.935 105.696 166.884 105.785 166.795C105.875 166.705 105.925 166.583 105.925 166.456C105.925 166.329 105.875 166.208 105.785 166.118C105.696 166.028 105.574 165.978 105.447 165.978H76.9204Z" fill="#3D4A5D"/>
<path d="M106.755 171.856C106.755 172.027 106.721 172.197 106.655 172.355C106.589 172.514 106.493 172.658 106.371 172.779C106.25 172.9 106.106 172.996 105.947 173.061C105.789 173.126 105.619 173.159 105.447 173.159H76.9248C76.5792 173.159 76.2478 173.021 76.0035 172.777C75.7591 172.533 75.6218 172.201 75.6218 171.856C75.6227 171.511 75.7604 171.18 76.0046 170.936C76.2489 170.693 76.5798 170.556 76.9248 170.556H105.447C105.793 170.556 106.124 170.693 106.369 170.938C106.613 171.182 106.75 171.513 106.75 171.859L106.755 171.856Z" fill="#8AC979"/>
<path d="M105.447 173.983H76.9248C76.3605 173.983 75.8193 173.759 75.4203 173.36C75.0213 172.961 74.7971 172.42 74.7971 171.856C74.7971 171.291 75.0213 170.75 75.4203 170.351C75.8193 169.952 76.3605 169.728 76.9248 169.728H105.447C106.011 169.728 106.553 169.952 106.952 170.351C107.351 170.75 107.575 171.291 107.575 171.856C107.575 172.42 107.351 172.961 106.952 173.36C106.553 173.759 106.011 173.983 105.447 173.983ZM76.9204 171.377C76.7935 171.377 76.6718 171.428 76.5821 171.517C76.4924 171.607 76.4421 171.729 76.4421 171.856C76.4421 171.982 76.4924 172.104 76.5821 172.194C76.6718 172.284 76.7935 172.334 76.9204 172.334H105.447C105.574 172.334 105.696 172.284 105.785 172.194C105.875 172.104 105.925 171.982 105.925 171.856C105.925 171.729 105.875 171.607 105.785 171.517C105.696 171.428 105.574 171.377 105.447 171.377H76.9204Z" fill="#3D4A5D"/>
<path d="M106.755 177.298C106.755 177.469 106.721 177.639 106.655 177.797C106.589 177.956 106.493 178.1 106.371 178.221C106.25 178.342 106.106 178.438 105.947 178.503C105.789 178.568 105.619 178.601 105.447 178.601H76.9248C76.5792 178.601 76.2478 178.464 76.0035 178.219C75.7591 177.975 75.6218 177.643 75.6218 177.298C75.6218 176.952 75.7591 176.621 76.0035 176.376C76.2478 176.132 76.5792 175.995 76.9248 175.995H105.447C105.793 175.995 106.124 176.132 106.369 176.376C106.613 176.621 106.75 176.952 106.75 177.298H106.755Z" fill="#8AC979"/>
<path d="M105.447 179.426H76.9248C76.3605 179.426 75.8193 179.201 75.4203 178.802C75.0213 178.403 74.7971 177.862 74.7971 177.298C74.7971 176.733 75.0213 176.192 75.4203 175.793C75.8193 175.394 76.3605 175.17 76.9248 175.17H105.447C106.011 175.17 106.553 175.394 106.952 175.793C107.351 176.192 107.575 176.733 107.575 177.298C107.575 177.862 107.351 178.403 106.952 178.802C106.553 179.201 106.011 179.426 105.447 179.426ZM76.9248 176.824C76.7979 176.824 76.6762 176.874 76.5865 176.964C76.4968 177.054 76.4464 177.175 76.4464 177.302C76.4464 177.429 76.4968 177.551 76.5865 177.64C76.6762 177.73 76.7979 177.781 76.9248 177.781H105.447C105.574 177.781 105.696 177.73 105.785 177.64C105.875 177.551 105.925 177.429 105.925 177.302C105.925 177.175 105.875 177.054 105.785 176.964C105.696 176.874 105.574 176.824 105.447 176.824H76.9248Z" fill="#3D4A5D"/>
<path d="M91.1884 144.551H77.5297C77.311 144.551 77.1013 144.464 76.9466 144.31C76.792 144.155 76.7051 143.945 76.7051 143.726C76.7051 143.508 76.792 143.298 76.9466 143.143C77.1013 142.989 77.311 142.902 77.5297 142.902H91.1884C91.4071 142.902 91.6169 142.989 91.7715 143.143C91.9262 143.298 92.0131 143.508 92.0131 143.726C92.0131 143.945 91.9262 144.155 91.7715 144.31C91.6169 144.464 91.4071 144.551 91.1884 144.551Z" fill="#3D4A5D"/>
<path d="M102.167 144.551H95.3378C95.1191 144.551 94.9094 144.464 94.7547 144.31C94.6001 144.155 94.5132 143.945 94.5132 143.726C94.5132 143.508 94.6001 143.298 94.7547 143.143C94.9094 142.989 95.1191 142.902 95.3378 142.902H102.167C102.386 142.902 102.596 142.989 102.75 143.143C102.905 143.298 102.992 143.508 102.992 143.726C102.992 143.945 102.905 144.155 102.75 144.31C102.596 144.464 102.386 144.551 102.167 144.551Z" fill="#3D4A5D"/>
<path d="M107.616 144.551H105.182C104.964 144.551 104.754 144.464 104.599 144.31C104.445 144.155 104.358 143.945 104.358 143.726C104.358 143.508 104.445 143.298 104.599 143.143C104.754 142.989 104.964 142.902 105.182 142.902H107.617C107.835 142.902 108.045 142.989 108.2 143.143C108.355 143.298 108.441 143.508 108.441 143.726C108.441 143.945 108.355 144.155 108.2 144.31C108.045 144.464 107.835 144.551 107.617 144.551H107.616Z" fill="#3D4A5D"/>
<path d="M218.833 175.69H212.004C211.785 175.69 211.575 175.603 211.421 175.448C211.266 175.294 211.179 175.084 211.179 174.865C211.179 174.647 211.266 174.437 211.421 174.282C211.575 174.128 211.785 174.041 212.004 174.041H218.833C219.052 174.041 219.262 174.128 219.416 174.282C219.571 174.437 219.658 174.647 219.658 174.865C219.658 175.084 219.571 175.294 219.416 175.448C219.262 175.603 219.052 175.69 218.833 175.69Z" fill="#3D4A5D"/>
<path d="M224.282 175.69H221.847C221.628 175.69 221.419 175.603 221.264 175.448C221.109 175.294 221.022 175.084 221.022 174.865C221.022 174.647 221.109 174.437 221.264 174.282C221.419 174.128 221.628 174.041 221.847 174.041H224.282C224.5 174.041 224.71 174.128 224.865 174.282C225.019 174.437 225.106 174.647 225.106 174.865C225.106 175.084 225.019 175.294 224.865 175.448C224.71 175.603 224.5 175.69 224.282 175.69Z" fill="#3D4A5D"/>
<path d="M61.3102 124.43H54.4809C54.2622 124.43 54.0524 124.343 53.8978 124.188C53.7431 124.034 53.6562 123.824 53.6562 123.605C53.6562 123.386 53.7431 123.177 53.8978 123.022C54.0524 122.867 54.2622 122.78 54.4809 122.78H61.3102C61.5289 122.78 61.7387 122.867 61.8933 123.022C62.048 123.177 62.1349 123.386 62.1349 123.605C62.1349 123.824 62.048 124.034 61.8933 124.188C61.7387 124.343 61.5289 124.43 61.3102 124.43Z" fill="#3D4A5D"/>
<path d="M66.7583 124.43H64.3239C64.1052 124.43 63.8955 124.343 63.7408 124.188C63.5862 124.034 63.4993 123.824 63.4993 123.605C63.4993 123.386 63.5862 123.177 63.7408 123.022C63.8955 122.867 64.1052 122.78 64.3239 122.78H66.7583C66.977 122.78 67.1868 122.867 67.3414 123.022C67.4961 123.177 67.583 123.386 67.583 123.605C67.583 123.824 67.4961 124.034 67.3414 124.188C67.1868 124.343 66.977 124.43 66.7583 124.43Z" fill="#3D4A5D"/>
<path d="M183.464 115.521C183.245 115.521 183.035 115.434 182.881 115.279C182.726 115.124 182.639 114.915 182.639 114.696V107.866C182.639 107.647 182.726 107.437 182.881 107.283C183.035 107.128 183.245 107.041 183.464 107.041C183.683 107.041 183.892 107.128 184.047 107.283C184.202 107.437 184.289 107.647 184.289 107.866V114.694C184.289 114.802 184.268 114.91 184.226 115.01C184.185 115.11 184.124 115.201 184.048 115.278C183.971 115.355 183.88 115.416 183.78 115.458C183.68 115.499 183.572 115.521 183.464 115.521Z" fill="#3D4A5D"/>
<path d="M183.464 105.676C183.245 105.676 183.035 105.59 182.881 105.435C182.726 105.28 182.639 105.07 182.639 104.852V102.417C182.639 102.198 182.726 101.989 182.881 101.834C183.035 101.679 183.245 101.592 183.464 101.592C183.683 101.592 183.892 101.679 184.047 101.834C184.202 101.989 184.288 102.198 184.288 102.417V104.852C184.288 105.07 184.202 105.28 184.047 105.435C183.892 105.59 183.683 105.676 183.464 105.676Z" fill="#3D4A5D"/>
<path d="M148.087 183.892H134.428C134.209 183.892 134 183.806 133.845 183.651C133.69 183.496 133.604 183.286 133.604 183.068C133.604 182.849 133.69 182.639 133.845 182.484C134 182.33 134.209 182.243 134.428 182.243H148.087C148.305 182.243 148.515 182.33 148.67 182.484C148.825 182.639 148.911 182.849 148.911 183.068C148.911 183.286 148.825 183.496 148.67 183.651C148.515 183.806 148.305 183.892 148.087 183.892Z" fill="#3D4A5D"/>
<path d="M159.067 183.892H152.238C152.019 183.892 151.809 183.806 151.655 183.651C151.5 183.496 151.413 183.286 151.413 183.068C151.413 182.849 151.5 182.639 151.655 182.484C151.809 182.33 152.019 182.243 152.238 182.243H159.067C159.286 182.243 159.496 182.33 159.65 182.484C159.805 182.639 159.892 182.849 159.892 183.068C159.892 183.286 159.805 183.496 159.65 183.651C159.496 183.806 159.286 183.892 159.067 183.892Z" fill="#3D4A5D"/>
<path d="M164.515 183.892H162.081C161.862 183.892 161.652 183.806 161.498 183.651C161.343 183.496 161.256 183.286 161.256 183.068C161.256 182.849 161.343 182.639 161.498 182.484C161.652 182.33 161.862 182.243 162.081 182.243H164.515C164.734 182.243 164.944 182.33 165.098 182.484C165.253 182.639 165.34 182.849 165.34 183.068C165.34 183.286 165.253 183.496 165.098 183.651C164.944 183.806 164.734 183.892 164.515 183.892Z" fill="#3D4A5D"/>
<path d="M180.913 143.19C180.721 143.189 180.535 143.121 180.388 142.997C180.241 142.874 180.142 142.703 180.107 142.515L177.618 129.084C177.578 128.869 177.625 128.646 177.749 128.466C177.873 128.286 178.063 128.162 178.278 128.123C178.493 128.083 178.716 128.13 178.896 128.254C179.076 128.378 179.2 128.568 179.239 128.783L181.729 142.214C181.751 142.334 181.746 142.456 181.715 142.573C181.685 142.69 181.629 142.799 181.551 142.892C181.474 142.985 181.377 143.06 181.267 143.112C181.158 143.163 181.038 143.19 180.917 143.19H180.913Z" fill="#3D4A5D"/>
<path d="M182.914 153.985C182.722 153.985 182.535 153.918 182.387 153.795C182.239 153.671 182.139 153.5 182.104 153.311L180.859 146.596C180.819 146.38 180.866 146.158 180.99 145.978C181.114 145.798 181.305 145.674 181.52 145.634C181.735 145.595 181.957 145.642 182.137 145.766C182.317 145.89 182.441 146.08 182.481 146.295L183.725 153.011C183.747 153.13 183.743 153.252 183.712 153.37C183.682 153.487 183.626 153.596 183.548 153.689C183.471 153.782 183.374 153.857 183.264 153.908C183.155 153.959 183.035 153.986 182.914 153.986V153.985Z" fill="#3D4A5D"/>
<path d="M183.907 159.339C183.715 159.339 183.528 159.272 183.38 159.149C183.232 159.026 183.132 158.855 183.097 158.665L182.657 156.271C182.637 156.165 182.639 156.056 182.661 155.95C182.684 155.844 182.727 155.743 182.788 155.654C182.85 155.565 182.928 155.488 183.019 155.429C183.11 155.37 183.211 155.33 183.318 155.31C183.424 155.291 183.534 155.292 183.639 155.315C183.745 155.337 183.846 155.38 183.935 155.442C184.024 155.503 184.101 155.581 184.16 155.672C184.219 155.763 184.259 155.865 184.279 155.971L184.719 158.365C184.74 158.484 184.736 158.607 184.705 158.724C184.675 158.841 184.619 158.95 184.541 159.043C184.464 159.136 184.367 159.211 184.257 159.262C184.148 159.314 184.028 159.34 183.907 159.34V159.339Z" fill="#3D4A5D"/>
<path d="M91.8778 86.7426H53.2856V121.305H91.8778V86.7426Z" fill="#80C46D"/>
<path d="M91.8777 122.129H53.2834C53.0647 122.129 52.8549 122.043 52.7003 121.888C52.5456 121.733 52.4587 121.523 52.4587 121.305V86.7426C52.4587 86.5239 52.5456 86.3141 52.7003 86.1595C52.8549 86.0048 53.0647 85.9179 53.2834 85.9179H91.8777C92.0964 85.9179 92.3062 86.0048 92.4608 86.1595C92.6155 86.3141 92.7024 86.5239 92.7024 86.7426V121.305C92.7024 121.523 92.6155 121.733 92.4608 121.888C92.3062 122.043 92.0964 122.129 91.8777 122.129ZM54.1103 120.48H91.0552V87.5674H54.1103V120.48Z" fill="#3D4A5D"/>
<path d="M59.4605 86.7426H56.3301V121.169H59.4605V86.7426Z" fill="#A9D79C"/>
<path d="M60.2854 121.994H55.5056V85.9179H60.2854V121.994ZM57.1549 120.345H58.636V87.5674H57.1549V120.345Z" fill="#3D4A5D"/>
<path d="M89.075 86.7426H85.9446V121.169H89.075V86.7426Z" fill="#A9D79C"/>
<path d="M89.8985 121.994H85.1199V85.9179H89.8996L89.8985 121.994ZM86.7681 120.345H88.2492V87.5674H86.7692L86.7681 120.345Z" fill="#3D4A5D"/>
<path d="M81.0549 99.7042H63.6819V108.208H81.0549V99.7042Z" fill="#E6F3E2"/>
<path d="M81.0548 109.033H63.6818C63.4631 109.033 63.2534 108.946 63.0987 108.791C62.9441 108.636 62.8572 108.427 62.8572 108.208V99.7042C62.8572 99.4855 62.9441 99.2757 63.0987 99.121C63.2534 98.9664 63.4631 98.8795 63.6818 98.8795H81.0548C81.2735 98.8795 81.4832 98.9664 81.6379 99.121C81.7925 99.2757 81.8794 99.4855 81.8794 99.7042V108.206C81.8797 108.314 81.8586 108.422 81.8173 108.522C81.776 108.622 81.7153 108.713 81.6387 108.79C81.5621 108.867 81.471 108.928 81.3708 108.97C81.2707 109.011 81.1632 109.033 81.0548 109.033ZM64.5065 107.383H80.2301V100.529H64.5065V107.383Z" fill="#3D4A5D"/>
<path d="M153.559 172.889V171.68H148.281V176.008C148.281 177.136 148.872 178.05 149.601 178.05H165.105C166.233 178.05 167.472 177.095 167.029 176.517C164.901 173.75 153.559 172.889 153.559 172.889Z" fill="#A9D79C"/>
<path d="M165.097 178.876H149.593C148.392 178.876 147.449 177.617 147.449 176.009V170.856H154.376V172.135C155.434 172.237 157.455 172.465 159.634 172.854C164.018 173.647 166.646 174.682 167.668 176.016C167.817 176.213 167.907 176.45 167.926 176.697C167.946 176.944 167.894 177.191 167.778 177.41C167.38 178.231 166.199 178.876 165.097 178.876ZM149.1 172.504V176.008C149.1 176.793 149.471 177.225 149.594 177.225H165.098C165.495 177.211 165.877 177.067 166.186 176.816C164.442 175.129 157.58 174.022 153.498 173.712L152.736 173.653V172.504H149.1Z" fill="#3D4A5D"/>
<path d="M152.925 124.107C151.183 118.411 126.579 115.791 126.579 115.791H106.514C106.436 116.388 106.397 116.989 106.397 117.591C106.397 123.54 110.136 128.467 115.022 129.325V129.459L141.076 130.41L146.794 172.608H155.205C155.205 172.608 156.082 134.434 152.925 124.107Z" fill="#717B89"/>
<path d="M155.209 173.434H146.797C146.598 173.433 146.405 173.361 146.255 173.23C146.105 173.099 146.007 172.918 145.98 172.72L140.352 131.21L114.992 130.284C114.788 130.277 114.594 130.194 114.448 130.052C112.029 129.511 109.83 128.034 108.216 125.859C106.511 123.562 105.577 120.626 105.577 117.591C105.577 116.953 105.618 116.317 105.7 115.684C105.726 115.486 105.824 115.303 105.974 115.171C106.125 115.039 106.318 114.966 106.518 114.966H126.583C126.612 114.965 126.641 114.965 126.67 114.966C126.731 114.973 132.937 115.641 139.275 117.003C148.165 118.911 152.889 121.155 153.717 123.862C156.877 134.199 156.073 171.06 156.037 172.624C156.033 172.841 155.944 173.047 155.789 173.199C155.634 173.35 155.425 173.434 155.209 173.434ZM147.519 171.784H154.401C154.502 166.224 154.967 133.608 152.136 124.348C151.281 121.554 142.612 119.411 138.926 118.619C132.946 117.336 127.09 116.676 126.534 116.616H107.258C107.234 116.94 107.222 117.266 107.222 117.591C107.222 120.274 108.046 122.861 109.541 124.875C110.999 126.839 112.997 128.131 115.165 128.513C115.284 128.534 115.397 128.581 115.495 128.65L141.104 129.585C141.298 129.592 141.484 129.668 141.628 129.798C141.772 129.929 141.865 130.106 141.891 130.299L147.519 171.784Z" fill="#3D4A5D"/>
<path d="M124.17 66.6652C132.274 66.6652 138.843 60.1645 138.843 52.1454C138.843 44.1264 132.274 37.6256 124.17 37.6256C116.067 37.6256 109.498 44.1264 109.498 52.1454C109.498 60.1645 116.067 66.6652 124.17 66.6652Z" fill="#E7F4E3"/>
<path d="M124.171 67.4888C115.626 67.4888 108.674 60.6061 108.674 52.1454C108.674 43.6847 115.627 36.8009 124.171 36.8009C132.716 36.8009 139.669 43.6847 139.669 52.1454C139.669 60.6061 132.716 67.4888 124.171 67.4888ZM124.171 38.4504C116.535 38.4504 110.324 44.5941 110.324 52.1454C110.324 59.6967 116.536 65.8394 124.171 65.8394C131.807 65.8394 138.019 59.6956 138.019 52.1454C138.019 44.5952 131.807 38.4504 124.171 38.4504Z" fill="#3D4A5D"/>
<path d="M134.407 54.5526C134.427 54.5106 134.437 54.4648 134.437 54.4184C134.44 54.2979 134.417 54.1782 134.369 54.0674C134.322 53.9566 134.251 53.8573 134.162 53.7762C133.668 53.3265 132.658 53.4243 131.767 53.5101C131.504 53.5445 131.239 53.5592 130.973 53.5541C130.909 53.5118 130.832 53.4933 130.755 53.5018C130.679 53.5104 130.608 53.5455 130.554 53.6009C130.501 53.6564 130.469 53.7288 130.463 53.8056C130.457 53.8824 130.479 53.9588 130.524 54.0214C130.718 54.2689 131.09 54.2337 131.831 54.1622C131.978 54.149 132.15 54.1314 132.329 54.1182C132.207 54.3445 132.143 54.5978 132.144 54.855C132.144 55.6082 132.659 56.2186 133.29 56.2186C133.921 56.2186 134.437 55.6071 134.437 54.855C134.437 54.7535 134.427 54.6522 134.407 54.5526Z" fill="#3D4A5D"/>
<path d="M133.92 54.9924C133.92 55.264 133.779 55.484 133.607 55.484C133.434 55.484 133.291 55.264 133.291 54.9924C133.291 54.7208 133.432 54.5009 133.607 54.5009C133.782 54.5009 133.92 54.7208 133.92 54.9924Z" fill="#F9FCF8"/>
<path d="M128.805 59.6011C129.739 59.6011 130.496 58.8439 130.496 57.9098C130.496 56.9757 129.739 56.2185 128.805 56.2185C127.871 56.2185 127.114 56.9757 127.114 57.9098C127.114 58.8439 127.871 59.6011 128.805 59.6011Z" fill="#CCE7C5"/>
<path d="M124.031 70.2919L116.436 69.5419L116.377 64.7101L124.579 66.6641L124.031 70.2919Z" fill="#E7F4E3"/>
<path d="M124.03 71.1166C124.003 71.1166 123.976 71.1166 123.948 71.1166L116.355 70.3666C116.153 70.3466 115.966 70.2529 115.828 70.1034C115.691 69.9539 115.614 69.7591 115.612 69.5562L115.551 64.7244C115.55 64.5989 115.577 64.4747 115.63 64.3613C115.684 64.2479 115.763 64.1482 115.861 64.0698C115.959 63.9915 116.073 63.9365 116.196 63.9091C116.318 63.8817 116.445 63.8826 116.567 63.9117L124.769 65.8658C124.97 65.9136 125.146 66.0354 125.262 66.2069C125.377 66.3784 125.424 66.5871 125.393 66.7917L124.843 70.4205C124.813 70.6144 124.714 70.791 124.565 70.9186C124.416 71.0462 124.226 71.1164 124.03 71.1166ZM117.251 68.7941L123.33 69.3946L123.648 67.292L117.213 65.7591L117.251 68.7941Z" fill="#3D4A5D"/>
<path d="M126.195 48.3847C127.909 46.7572 135.396 52.902 139.587 52.8602C140.639 52.8503 141.485 50.9842 141.978 50.2211C144.436 46.4152 136.069 36.3655 124.17 36.3655C116.067 36.3655 109.498 44.1235 109.498 52.1433C109.498 60.163 114.04 71.3432 125.683 62.381C127.46 61.0153 118.951 55.2619 126.195 48.3847Z" fill="#80C46D"/>
<path d="M117.944 66.5289C114.924 66.5289 112.436 64.798 110.749 61.5233C109.43 58.9644 108.674 55.5478 108.674 52.1509C108.674 48.0514 110.324 43.8783 113.182 40.7025C116.182 37.3793 120.084 35.5484 124.17 35.5484C132.563 35.5484 139.609 40.4243 142.23 45.2407C143.395 47.3807 143.55 49.3094 142.67 50.6763C142.591 50.7984 142.492 50.9699 142.388 51.1503C141.771 52.218 140.925 53.6795 139.595 53.6926H139.545C137.328 53.6926 134.548 52.2774 131.861 50.9083C129.962 49.9417 127.998 48.9411 127.023 48.9411C126.934 48.9315 126.845 48.9479 126.766 48.9883C122.333 53.1967 124.326 56.775 125.783 59.3877C126.153 60.0475 126.472 60.6227 126.638 61.1384C126.968 62.1699 126.578 62.7417 126.191 63.0397C123.182 65.3501 120.408 66.5289 117.944 66.5289ZM124.171 37.1979C120.558 37.1979 117.091 38.8353 114.408 41.8076C111.812 44.6843 110.324 48.4539 110.324 52.1509C110.324 55.2937 111.013 58.4354 112.215 60.7678C113.62 63.496 115.548 64.8794 117.944 64.8794C120.016 64.8794 122.425 63.8413 125.106 61.7927C125.058 61.4826 124.645 60.7436 124.336 60.1927C123.594 58.8621 122.577 57.04 122.419 54.9144C122.229 52.3852 123.307 49.9912 125.624 47.7908C125.974 47.4609 126.442 47.2894 127.016 47.2894C128.392 47.2894 130.344 48.2791 132.606 49.4359C135.003 50.6565 137.721 52.0399 139.542 52.0399H139.576C139.967 52.0399 140.712 50.7456 140.957 50.3222C141.067 50.1232 141.177 49.934 141.287 49.7779C141.818 48.9554 141.636 47.5885 140.785 46.027C139.61 43.8695 137.388 41.7108 134.689 40.1065C131.508 38.2088 127.875 37.2022 124.171 37.1924V37.1979Z" fill="#3D4A5D"/>
<path d="M123.428 63.8941L125.404 62.5965L128.805 65.9252L126.787 66.5311L123.428 63.8941Z" fill="#80C46D"/>
<path d="M126.787 67.3559C126.603 67.3558 126.423 67.2939 126.278 67.1799L122.919 64.5407C122.816 64.46 122.734 64.3559 122.679 64.237C122.624 64.1182 122.599 63.988 122.604 63.8572C122.609 63.7264 122.646 63.5989 122.711 63.485C122.775 63.3712 122.866 63.2743 122.975 63.2024L124.954 61.9037C125.112 61.8006 125.299 61.7542 125.487 61.7724C125.674 61.7906 125.849 61.8723 125.983 62.0038L129.384 65.3325C129.487 65.4328 129.561 65.5581 129.6 65.696C129.64 65.834 129.642 65.9797 129.608 66.1189C129.574 66.2582 129.504 66.386 129.405 66.4899C129.306 66.5938 129.182 66.6702 129.045 66.7115L127.027 67.3185C126.949 67.3427 126.869 67.3553 126.787 67.3559ZM124.839 63.9535L126.96 65.6184L127.23 65.537L125.302 63.65L124.839 63.9535Z" fill="#3D4A5D"/>
<path d="M133.021 62.4271C133.557 62.5962 134.11 62.7068 134.67 62.757L135.143 62.1379C133.475 62.028 132.215 61.5617 132.215 60.9987C132.215 60.9112 132.18 60.8273 132.118 60.7654C132.056 60.7036 131.972 60.6688 131.885 60.6688C131.797 60.6688 131.713 60.7036 131.652 60.7654C131.59 60.8273 131.555 60.9112 131.555 60.9987C131.556 61.4276 131.809 62.0203 133.021 62.4271Z" fill="#3D4A5D"/>
<path d="M131.556 116.453L103.688 115.218C103.688 115.218 108.925 74.0395 113.768 70.3128C115.478 68.9932 124.238 70.5965 125.603 71.7247C126.951 72.8376 129.359 75.9584 129.391 78.4403C129.505 87.6829 131.556 116.453 131.556 116.453Z" fill="#9CD18D"/>
<path d="M132.445 117.317L102.757 115.998L102.867 115.109C102.88 115.006 104.2 104.671 106.096 94.0135C107.212 87.7455 108.306 82.5849 109.348 78.6833C110.218 75.4305 111.57 70.9549 113.26 69.6541C113.842 69.2054 114.858 68.9877 116.367 68.9877C119.452 68.9877 124.84 70.0235 126.123 71.0836C127.531 72.2448 130.175 75.5922 130.21 78.4249C130.32 87.5377 132.353 116.101 132.374 116.388L132.445 117.317ZM104.626 114.434L130.672 115.588C130.321 110.583 128.673 86.6766 128.57 78.4513C128.558 77.5155 128.106 76.2937 127.296 75.0083C126.503 73.7481 125.608 72.7947 125.082 72.3603C124.336 71.7445 119.662 70.6415 116.376 70.6415C114.776 70.6415 114.345 70.9121 114.274 70.9659C113.736 71.3805 112.587 72.9904 110.95 79.1133C109.92 82.9697 108.835 88.082 107.728 94.306C106.155 103.119 104.982 111.708 104.621 114.433L104.626 114.434Z" fill="#3D4A5D"/>
<path d="M131.456 116.312L103.082 118.618L103.785 114.467H131.336L131.456 116.312Z" fill="#D0E9C9"/>
<path d="M103.082 119.443C102.962 119.443 102.844 119.417 102.735 119.366C102.626 119.316 102.53 119.242 102.453 119.15C102.375 119.059 102.319 118.951 102.287 118.836C102.256 118.72 102.25 118.599 102.27 118.481L102.973 114.33C103.006 114.137 103.105 113.963 103.254 113.837C103.403 113.711 103.591 113.642 103.786 113.642H131.336C131.545 113.642 131.747 113.722 131.899 113.865C132.052 114.008 132.145 114.203 132.159 114.412L132.279 116.257C132.294 116.474 132.223 116.688 132.081 116.853C131.94 117.017 131.739 117.12 131.522 117.137L103.154 119.446L103.082 119.443ZM104.482 115.292L104.072 117.711L130.58 115.557L130.562 115.292H104.482Z" fill="#3D4A5D"/>
<path d="M178.128 109.085C177.612 108.379 174.581 106.605 170.068 103.985L167.5 108.008C170.436 109.408 172.246 110.138 172.246 110.138C172.246 110.138 173.676 110.285 175.985 111.483C178.294 112.68 175.681 116.128 178.837 115.762C182.086 115.391 179.196 110.556 178.128 109.085Z" fill="#E7F4E3"/>
<path d="M178.404 116.616C176.314 116.616 176.279 114.907 176.259 113.989C176.237 112.982 176.168 112.511 175.6 112.217C173.492 111.117 172.168 110.962 172.156 110.961C172.08 110.953 172.006 110.934 171.936 110.905C171.861 110.876 170.067 110.15 167.143 108.755C167.037 108.705 166.944 108.633 166.868 108.544C166.793 108.454 166.737 108.35 166.705 108.238C166.673 108.125 166.665 108.007 166.682 107.892C166.699 107.776 166.74 107.665 166.803 107.567L169.372 103.544C169.486 103.365 169.666 103.237 169.872 103.186C170.079 103.136 170.297 103.168 170.481 103.275C176.052 106.509 178.211 107.806 178.793 108.603C179.117 109.042 181.933 113.001 180.952 115.244C180.719 115.777 180.183 116.442 178.932 116.585C178.757 116.605 178.58 116.616 178.404 116.616ZM172.458 109.337C172.887 109.404 174.314 109.689 176.362 110.752C177.855 111.522 177.887 112.986 177.908 113.951C177.93 114.965 177.938 114.965 178.403 114.965C178.513 114.964 178.623 114.957 178.732 114.943C179.3 114.878 179.392 114.662 179.431 114.579C179.734 113.886 179.011 111.709 177.451 109.572C177.046 109.023 173.603 106.996 170.327 105.096L168.688 107.662C170.737 108.619 172.103 109.195 172.459 109.337H172.458Z" fill="#3D4A5D"/>
<path d="M132.446 78.515C127.024 74.5112 121.262 73.1147 119.581 75.3953C117.9 77.676 120.926 82.7729 126.349 86.7778L166.541 110.269L170.211 104.07L132.446 78.515Z" fill="#9CD18D"/>
<path d="M166.829 111.395L125.855 87.4431C123.147 85.4428 120.92 83.1061 119.588 80.8639C118.128 78.4106 117.89 76.2948 118.915 74.9071C119.396 74.255 120.387 73.4775 122.367 73.4775C125.271 73.4775 129.215 75.1094 132.923 77.8442L171.311 103.822L166.829 111.395ZM126.805 86.0883L166.25 109.142L169.109 104.316L131.976 79.1891L131.963 79.1792C128.576 76.6786 124.903 75.1248 122.374 75.1248C121.66 75.1248 120.712 75.2568 120.248 75.8858C119.032 77.5254 121.43 82.112 126.8 86.0905L126.805 86.0883Z" fill="#3D4A5D"/>
<path d="M126.345 86.78L132.446 78.5173L135.576 80.6352L129.874 88.843L126.345 86.78Z" fill="#D0E9C9"/>
<path d="M129.874 89.6677C129.728 89.6686 129.584 89.6307 129.458 89.5578L125.928 87.4948C125.828 87.4367 125.741 87.3579 125.673 87.2637C125.605 87.1695 125.557 87.0619 125.534 86.9481C125.51 86.8343 125.511 86.7169 125.536 86.6034C125.561 86.4899 125.61 86.383 125.679 86.2896L131.779 78.0268C131.906 77.8554 132.093 77.7396 132.303 77.7035C132.513 77.6674 132.729 77.7139 132.905 77.8333L136.034 79.9512C136.125 80.012 136.203 80.0902 136.263 80.1814C136.324 80.2725 136.365 80.3747 136.386 80.482C136.406 80.5893 136.405 80.6996 136.382 80.8065C136.36 80.9135 136.316 81.0148 136.254 81.1048L130.553 89.3126C130.477 89.4224 130.376 89.5121 130.257 89.5739C130.139 89.6358 130.007 89.668 129.874 89.6677ZM127.554 86.5315L129.632 87.7412L134.421 80.8452L132.639 79.6356L127.554 86.5315Z" fill="#3D4A5D"/>
<path d="M163.52 108.615L167.361 102.417L170.208 104.07L166.465 109.973L163.52 108.615Z" fill="#D0E9C9"/>
<path d="M166.464 110.797C166.344 110.798 166.227 110.772 166.118 110.722L163.174 109.365C163.068 109.316 162.973 109.245 162.897 109.157C162.82 109.068 162.763 108.965 162.73 108.853C162.696 108.741 162.687 108.623 162.702 108.508C162.717 108.392 162.757 108.281 162.819 108.181L166.659 101.983C166.772 101.8 166.952 101.669 167.16 101.617C167.368 101.565 167.589 101.597 167.774 101.704L170.621 103.354C170.717 103.41 170.801 103.484 170.867 103.573C170.934 103.662 170.982 103.763 171.008 103.871C171.034 103.979 171.039 104.091 171.021 104.201C171.003 104.31 170.963 104.415 170.904 104.509L167.165 110.41C167.091 110.529 166.987 110.627 166.864 110.695C166.742 110.763 166.604 110.798 166.464 110.797ZM164.713 108.256L166.155 108.916L169.052 104.357L167.64 103.536L164.713 108.256Z" fill="#3D4A5D"/>
</g>
<defs>
<clipPath id="clip0">
<rect width="252" height="237" fill="white"/>
</clipPath>
</defs>
</svg>
