<svg width="64" height="58" viewBox="0 0 64 58" fill="none" xmlns="http://www.w3.org/2000/svg">
<path d="M23.1188 57.7208C26.332 57.7208 28.9368 55.116 28.9368 51.9028C28.9368 48.6896 26.332 46.0848 23.1188 46.0848C19.9056 46.0848 17.3008 48.6896 17.3008 51.9028C17.3008 55.116 19.9056 57.7208 23.1188 57.7208Z" fill="#969696"/>
<path d="M46.6978 57.7208C49.911 57.7208 52.5158 55.116 52.5158 51.9028C52.5158 48.6896 49.911 46.0848 46.6978 46.0848C43.4846 46.0848 40.8798 48.6896 40.8798 51.9028C40.8798 55.116 43.4846 57.7208 46.6978 57.7208Z" fill="#969696"/>
<path d="M60.9359 9.03322H24.7265V15.1574H57.1083L53.4338 30.7742C53.209 31.7873 52.6477 32.6944 51.8414 33.3478C51.0352 34.0011 50.0314 34.3622 48.9937 34.3722H23.8844C22.8336 34.3796 21.812 34.0265 20.99 33.3717C20.1681 32.7169 19.5955 31.8001 19.3678 30.7742L12.9374 2.37313C12.7815 1.6982 12.4015 1.09605 11.8592 0.665018C11.3169 0.233991 10.6445 -0.000443521 9.95185 6.29943e-07H0V6.12421H7.50216L13.3967 32.1521C13.9232 34.5346 15.2525 36.6637 17.1618 38.1828C19.0712 39.702 21.4446 40.5187 23.8844 40.4964H48.9937C51.4205 40.5012 53.7759 39.6764 55.6696 38.1587C57.5632 36.641 58.8811 34.5217 59.4049 32.1521L63.9215 12.7843C64.0252 12.3353 64.0262 11.8686 63.9244 11.4192C63.8227 10.9697 63.6208 10.549 63.3338 10.1884C63.0468 9.82783 62.6821 9.53668 62.2669 9.33667C61.8517 9.13665 61.3968 9.03292 60.9359 9.03322Z" fill="#969696"/>
</svg>
