<svg width="57" height="62" viewBox="0 0 57 62" fill="none" xmlns="http://www.w3.org/2000/svg">
<g opacity="0.5">
<path d="M18 45C23.514 45 28 40.514 28 35C28 29.486 23.514 25 18 25C12.486 25 8 29.486 8 35C8 40.514 12.486 45 18 45ZM18 27C22.411 27 26 30.589 26 35C26 39.411 22.411 43 18 43C13.589 43 10 39.411 10 35C10 30.589 13.589 27 18 27Z" fill="white"/>
<path d="M56.596 45.851L54.243 40.362C54.082 39.985 54 39.587 54 39.179V32C54 31.677 54.052 31.358 54.153 31.051L55.744 26.282C55.914 25.771 56 25.239 56 24.702V19.008C56 17.673 55.479 16.418 54.535 15.472L50 10.937V8C50 6.897 49.103 6 48 6V2C48 0.897 47.103 0 46 0H36C34.897 0 34 0.897 34 2V6C32.897 6 32 6.897 32 8V10.937L27.465 15.472C27.426 15.511 27.391 15.551 27.353 15.591C26.303 15.215 25.178 15 24 15C21.835 15 19.745 15.699 18.026 16.981L14.396 2.459C14.034 1.011 12.738 0 11.246 0C9.456 0 8 1.456 8 3.246V3.635C8 3.984 8.056 4.329 8.167 4.662L11.619 15.019C10.927 15.045 10.255 15.141 9.606 15.302L6.396 2.459C6.034 1.011 4.738 0 3.246 0C1.456 0 0 1.456 0 3.246V3.635C0 3.984 0.0559998 4.33 0.167 4.662L4.682 18.207C3.237 19.763 2.273 21.772 2.051 24H2C0.897 24 0 24.897 0 26V28C0 29.103 0.897 30 2 30V36.422C2 36.932 2.097 37.432 2.286 37.907L3.887 41.91C3.969 42.114 4.016 42.329 4.028 42.548L4.852 58.21C4.964 60.335 6.719 62 8.847 62H27.154C27.628 62 28.078 61.906 28.5 61.754L28.65 61.81L28.752 61.842C29.158 61.947 29.578 62 30 62H52C54.757 62 57 59.757 57 57V47.821C57 47.141 56.864 46.479 56.596 45.851ZM46 6H44V2H46V6ZM40 6V2H42V6H40ZM36 2H38V6H36V2ZM48 8V10.351H34V8H48ZM33.414 12.351H48.586L53.121 16.886C53.44 17.205 53.668 17.587 53.815 18H50V20H54V24.702C54 25.025 53.948 25.344 53.847 25.651L52.256 30.42C52.086 30.931 52 31.462 52 32V39.179C52 39.859 52.136 40.521 52.404 41.149L54.757 46.638C54.918 47.015 55 47.413 55 47.821V52H31.475L31.972 42.549C31.974 42.506 31.994 42.467 31.999 42.425V47C31.999 48.654 33.345 50 34.999 50H46.999C48.653 50 49.999 48.654 49.999 47V25C49.999 23.346 48.653 22 46.999 22H35C34.504 22 34.044 22.132 33.631 22.346C33.402 21.516 33.07 20.729 32.647 20H48V18H31.129C30.569 17.43 29.938 16.933 29.256 16.509L33.414 12.351ZM31.265 56L31.37 54H55V56H31.265ZM34 30C35.103 30 36 29.103 36 28V26C36 25.102 35.401 24.349 34.584 24.097C34.711 24.038 34.85 24 35 24H47C47.552 24 48 24.449 48 25V47C48 47.551 47.552 48 47 48H35C34.448 48 34 47.551 34 47V36.422V36.175V30ZM31.931 24H29.908C29.769 23.182 29.468 22.397 29.002 21.693L27.334 22.797C27.58 23.169 27.753 23.576 27.863 23.999H21.949C21.876 23.268 21.719 22.562 21.497 21.885C22.199 21.319 23.07 21 24 21C24.783 21 25.544 21.23 26.202 21.666L27.306 19.998C26.32 19.345 25.177 19 24 19C22.783 19 21.631 19.361 20.657 20.017C20.323 19.438 19.932 18.898 19.493 18.4C20.815 17.496 22.379 17 24 17C28.072 17 31.436 20.06 31.931 24ZM10 3.635V3.246C10 2.559 10.559 2 11.246 2C11.819 2 12.316 2.388 12.456 2.944L15.644 15.697C15.047 15.462 14.423 15.283 13.776 15.167L10.064 4.03C10.021 3.902 10 3.77 10 3.635ZM2 3.635V3.246C2 2.559 2.559 2 3.246 2C3.819 2 4.316 2.388 4.456 2.944L7.714 15.978C7.225 16.211 6.756 16.477 6.315 16.783L2.064 4.03C2.021 3.902 2 3.77 2 3.635ZM12 17C16.072 17 19.436 20.06 19.931 24H17.91C17.432 21.167 14.968 19 12 19C10.823 19 9.68 19.345 8.694 19.998L9.798 21.666C10.456 21.23 11.217 21 12 21C13.859 21 15.411 22.28 15.858 24H8.137C8.248 23.577 8.42 23.17 8.666 22.798L6.998 21.694C6.532 22.397 6.231 23.182 6.092 24.001H4.069C4.564 20.06 7.928 17 12 17ZM4.144 37.166C4.048 36.927 4 36.677 4 36.422V30H7V28H2V26H34V28H9V30H32V36.175V36.422C32 36.677 31.952 36.927 31.856 37.165L30.255 41.167C30.092 41.575 29.998 42.003 29.974 42.442L29.366 54H6.634L6.026 42.442C6.002 42.004 5.908 41.575 5.745 41.168L4.144 37.166ZM8.847 60C7.783 60 6.906 59.167 6.85 58.105L6.739 56H29.261L29.15 58.105C29.095 59.167 28.218 60 27.153 60H8.847ZM52 60H30.599C30.909 59.468 31.114 58.866 31.149 58.21L31.159 58H54.815C54.402 59.161 53.302 60 52 60Z" fill="white"/>
<path d="M40.838 36H41.162C43.83 36 46 33.83 46 31.162C46 30.204 45.719 29.276 45.188 28.478L41 22.197L36.812 28.479C36.281 29.276 36 30.205 36 31.162C36 33.83 38.17 36 40.838 36ZM38.477 29.588L41 25.803L43.523 29.588C43.835 30.056 44 30.6 44 31.162C44 32.727 42.727 34 41.162 34H40.838C39.273 34 38 32.727 38 31.162C38 30.6 38.165 30.056 38.477 29.588Z" fill="white"/>
</g>
</svg>
