<svg width="42" height="42" viewBox="0 0 42 42" fill="none" xmlns="http://www.w3.org/2000/svg">
<path d="M33.39 31.5998C33.0177 31.3416 32.5065 31.4345 32.2485 31.8068C31.9985 32.1677 31.7152 32.5187 31.406 32.85C31.1989 33.0722 30.9139 33.3401 30.6038 33.6039C30.2588 33.8976 30.2171 34.4153 30.5107 34.7604C30.673 34.951 30.9037 35.049 31.1359 35.049C31.3238 35.049 31.5127 34.9848 31.6672 34.8533C32.0289 34.5454 32.3537 34.2396 32.6059 33.9688C32.9686 33.5801 33.3021 33.1671 33.5971 32.7412C33.8551 32.3689 33.7624 31.8578 33.39 31.5998Z" fill="#80C46D"/>
<path d="M29.8162 35.2783C29.6237 34.8681 29.1355 34.6916 28.7252 34.884L28.6995 34.8955C28.285 35.0784 28.0973 35.5627 28.2803 35.9772C28.4157 36.284 28.716 36.4665 29.0311 36.4665C29.1418 36.4665 29.2543 36.444 29.3619 36.3965C29.3819 36.3877 29.4017 36.3787 29.4217 36.3694C29.8318 36.1769 30.0084 35.6886 29.8162 35.2783Z" fill="#80C46D"/>
<path d="M39.5493 2.13281H2.45068C1.0993 2.13281 0 3.23228 0 4.58349V27.5729C0 28.924 1.0993 30.0234 2.45068 30.0234H19.7253C20.4576 33.1217 22.1135 35.316 23.5608 36.7219C25.6733 38.7741 28.0948 39.867 29.0307 39.867C29.9665 39.867 32.3881 38.7742 34.5006 36.722C35.9479 35.316 37.604 33.1217 38.3362 30.0235H39.5493C40.9006 30.0235 42 28.9241 42 27.5729V4.58349C42 3.23228 40.9006 2.13281 39.5493 2.13281ZM37.0781 26.6616C37.0781 30.9836 35.0831 33.8505 33.4093 35.4945C31.4239 37.4447 29.3873 38.2032 29.0307 38.2262C28.674 38.2032 26.6374 37.4447 24.652 35.4945C22.9784 33.8505 20.9833 30.9836 20.9833 26.6616V22.6219C23.8076 21.8051 26.4504 20.6873 29.031 19.2182C31.5534 20.6499 34.3146 21.8175 37.0781 22.6214V26.6616ZM40.3594 27.5729C40.3594 28.0194 39.9959 28.3828 39.5493 28.3828H38.6215C38.6843 27.8331 38.7188 27.2598 38.7188 26.6616V21.9999C38.7188 21.6296 38.4707 21.3054 38.1135 21.2083C35.1347 20.3994 32.1372 19.1389 29.4451 17.5632C29.1891 17.4134 28.8723 17.4136 28.6162 17.5634C25.8478 19.1838 23.0124 20.376 19.948 21.2083C19.5907 21.3054 19.3427 21.6297 19.3427 21.9999V26.6616C19.3427 27.2598 19.3771 27.8331 19.44 28.3828H2.45068C2.00402 28.3828 1.64062 28.0194 1.64062 27.5729V13.617H40.3594V27.5729ZM40.3594 11.9765H1.64062V8.69538H40.3594V11.9765ZM40.3594 7.05468H1.64062V4.58349C1.64062 4.13683 2.00402 3.77343 2.45068 3.77343H39.5493C39.9959 3.77343 40.3594 4.13683 40.3594 4.58349V7.05468Z" fill="#80C46D"/>
<path d="M9.84353 19.3596C9.34896 19.3596 8.86063 19.4596 8.40864 19.6503C7.96707 19.4631 7.48177 19.3596 6.97285 19.3596C4.93741 19.3596 3.28137 21.0155 3.28137 23.0509C3.28137 25.0862 4.93733 26.7423 6.97285 26.7423C7.48177 26.7423 7.96707 26.6388 8.40856 26.4516C8.86063 26.6423 9.34896 26.7423 9.84353 26.7423C11.879 26.7423 13.5351 25.0862 13.5351 23.0509C13.5351 21.0155 11.879 19.3596 9.84353 19.3596ZM6.97285 25.1016C5.84197 25.1016 4.92199 24.1817 4.92199 23.0509C4.92199 21.9201 5.84197 21.0002 6.97285 21.0002C8.10357 21.0002 9.02354 21.9201 9.02354 23.0509C9.02354 24.1817 8.10357 25.1016 6.97285 25.1016ZM10.0469 25.0916C10.4365 24.5067 10.6642 23.8049 10.6642 23.0509C10.6642 22.297 10.4365 21.5954 10.047 21.0104C11.0826 21.1128 11.8944 21.9889 11.8944 23.0509C11.8944 24.113 11.0826 24.9892 10.0469 25.0916Z" fill="#80C46D"/>
<path d="M8.32087 15.668H4.10144C3.64838 15.668 3.28113 16.0352 3.28113 16.4883C3.28113 16.9413 3.64838 17.3086 4.10144 17.3086H8.32087C8.77393 17.3086 9.14118 16.9412 9.14118 16.4883C9.14118 16.0352 8.77393 15.668 8.32087 15.668Z" fill="#80C46D"/>
<path d="M33.5335 24.7754C33.2133 24.4552 32.694 24.455 32.3735 24.7753L27.9867 29.1617L25.688 26.8628C25.3676 26.5427 24.8481 26.5425 24.5278 26.8628C24.2075 27.1832 24.2074 27.7026 24.5278 28.023L27.4067 30.9019C27.5669 31.0621 27.7768 31.1423 27.9867 31.1423C28.1967 31.1423 28.4067 31.0621 28.5667 30.9019L33.5334 25.9355C33.8538 25.6153 33.8538 25.0958 33.5335 24.7754Z" fill="#80C46D"/>
</svg>
