<svg width="46" height="46" viewBox="0 0 46 46" fill="none" xmlns="http://www.w3.org/2000/svg">
<path d="M42.7798 25.7796L41.5886 21.0147C41.9143 20.9455 42.1586 20.6566 42.1586 20.3104V19.5422C42.1586 17.8741 40.8015 16.5171 39.1336 16.5171H33.7078V14.9326C33.7078 14.1118 33.04 13.444 32.2192 13.444H22.1303L28.2612 10.9917C28.6306 10.844 28.8102 10.4247 28.6625 10.0554C28.5148 9.68614 28.0958 9.50637 27.7262 9.65416L22.7063 11.6621C24.236 10.6806 25.7494 9.60043 26.3256 8.84503C27.4473 7.37437 27.1632 5.26538 25.6925 4.14368C24.2219 3.02189 22.1129 3.30607 20.9912 4.77672C20.1716 5.85143 19.0903 8.87117 18.3904 10.9991C17.6905 8.87135 16.6091 5.85143 15.7896 4.77672C14.668 3.30607 12.5589 3.02207 11.0882 4.14368C9.61759 5.26529 9.3336 7.37428 10.4552 8.84503C11.0314 9.60052 12.5447 10.6806 14.0745 11.6621L9.05454 9.65416C8.68501 9.50619 8.26598 9.68605 8.11828 10.0554C7.97049 10.4247 8.15017 10.844 8.51952 10.9917L14.6505 13.444H4.56155C3.74073 13.444 3.07302 14.1118 3.07302 14.9326V27.9932C3.07302 28.3909 3.39546 28.7134 3.79329 28.7134C4.19103 28.7134 4.51357 28.391 4.51357 27.9932V14.9326C4.51357 14.9061 4.53504 14.8846 4.56155 14.8846H32.2191C32.2456 14.8846 32.2671 14.9061 32.2671 14.9326V27.9933C32.2671 28.3911 32.5896 28.7136 32.9874 28.7136C33.3851 28.7136 33.7077 28.3912 33.7077 27.9933V27.1768H42.2038C42.2046 27.1768 42.2053 27.177 42.2061 27.177C42.2069 27.177 42.2076 27.1769 42.2084 27.1769C43.2538 27.1777 44.1415 27.864 44.4462 28.8095H42.2066C41.8089 28.8095 41.4863 29.1319 41.4863 29.5298V31.0663C41.4863 32.3107 42.4987 33.323 43.7431 33.323H44.5594V36.4921H42.6761C42.0575 34.7058 40.3593 33.419 38.3653 33.419C36.3712 33.419 34.6729 34.7057 34.0544 36.4921H33.7076V31.0662C33.7076 30.6684 33.3851 30.3459 32.9873 30.3459C32.5896 30.3459 32.267 30.6683 32.267 31.0662V36.492H17.3234C16.7047 34.7057 15.0066 33.4189 13.0125 33.4189C11.0184 33.4189 9.32021 34.7057 8.70164 36.492H4.56155C4.53504 36.492 4.51357 36.4705 4.51357 36.444V34.8595H7.63465C8.03239 34.8595 8.35493 34.537 8.35493 34.1392C8.35493 33.7414 8.03248 33.4189 7.63465 33.4189H0.720277C0.322539 33.4189 0 33.7414 0 34.1392C0 34.537 0.322449 34.8595 0.720277 34.8595H3.07311V36.444C3.07311 37.2649 3.74082 37.9326 4.56164 37.9326H8.45223C8.45205 37.9486 8.45097 37.9645 8.45097 37.9805C8.45097 40.4957 10.4973 42.5421 13.0125 42.5421C15.5277 42.5421 17.5741 40.4957 17.5741 37.9805C17.5741 37.9644 17.573 37.9486 17.5728 37.9326H33.8049C33.8047 37.9486 33.8036 37.9645 33.8036 37.9805C33.8036 40.4957 35.85 42.5421 38.3652 42.5421C40.8803 42.5421 42.9267 40.4957 42.9267 37.9805C42.9267 37.9644 42.9256 37.9486 42.9255 37.9326H45.2796C45.6774 37.9326 45.9999 37.6101 45.9999 37.2123V29.5297C46 27.6327 44.6005 26.0567 42.7798 25.7796ZM15.534 10.8764C12.6929 9.11087 11.8501 8.2986 11.6006 7.97139C10.9607 7.13233 11.1227 5.92906 11.9619 5.2891C12.3078 5.02532 12.7155 4.89783 13.1202 4.89783C13.6972 4.89783 14.2681 5.15712 14.6443 5.65036C15.341 6.56389 16.4322 9.63862 17.1525 11.8543C16.6664 11.568 16.1075 11.233 15.534 10.8764ZM19.6284 11.8542C20.3488 9.63862 21.44 6.56398 22.1366 5.65027C22.7766 4.81122 23.9798 4.64923 24.8189 5.2891C25.658 5.92906 25.82 7.13233 25.1801 7.97139C24.9306 8.29851 24.0879 9.11087 21.247 10.8763C20.6735 11.2328 20.1147 11.5679 19.6284 11.8542ZM33.7078 17.9575H39.1336C40.0073 17.9575 40.7182 18.6684 40.7182 19.5421V19.5901H33.7078V17.9575ZM33.7078 25.7363V21.0306H40.1078L41.2842 25.7363H33.7078ZM13.0125 41.1016C11.2916 41.1016 9.89144 39.7015 9.89144 37.9805C9.89144 36.2596 11.2916 34.8595 13.0125 34.8595C14.7335 34.8595 16.1336 36.2596 16.1336 37.9805C16.1336 39.7015 14.7335 41.1016 13.0125 41.1016ZM38.3653 41.1016C36.6444 41.1016 35.2443 39.7015 35.2443 37.9805C35.2443 36.2596 36.6444 34.8595 38.3653 34.8595C40.0863 34.8595 41.4864 36.2596 41.4864 37.9805C41.4864 39.7015 40.0863 41.1016 38.3653 41.1016ZM44.5595 31.8824H43.7432C43.2931 31.8824 42.9269 31.5162 42.9269 31.0661V30.2498H44.5594V31.8824H44.5595Z" fill="#80C46D"/>
<path d="M13.0125 36.4922C12.1917 36.4922 11.524 37.1599 11.524 37.9807C11.524 38.8015 12.1917 39.4692 13.0125 39.4692C13.8333 39.4692 14.5011 38.8015 14.5011 37.9807C14.5011 37.1599 13.8333 36.4922 13.0125 36.4922Z" fill="#80C46D"/>
<path d="M38.3654 36.4922C37.5446 36.4922 36.8768 37.1599 36.8768 37.9807C36.8768 38.8015 37.5446 39.4692 38.3654 39.4692C39.1862 39.4692 39.8539 38.8015 39.8539 37.9807C39.8539 37.1599 39.1862 36.4922 38.3654 36.4922Z" fill="#80C46D"/>
<path d="M29.9143 33.4189H19.1586C18.7609 33.4189 18.4384 33.7414 18.4384 34.1392C18.4384 34.5371 18.7608 34.8595 19.1586 34.8595H29.9143C30.3121 34.8595 30.6346 34.5371 30.6346 34.1392C30.6346 33.7414 30.3122 33.4189 29.9143 33.4189Z" fill="#80C46D"/>
<path d="M11.476 30.3459H2.25678C1.85904 30.3459 1.5365 30.6684 1.5365 31.0662C1.5365 31.464 1.85895 31.7865 2.25678 31.7865H11.476C11.8737 31.7865 12.1963 31.464 12.1963 31.0662C12.1963 30.6684 11.8737 30.3459 11.476 30.3459Z" fill="#80C46D"/>
<path d="M11.476 19.5901H8.40289C8.00516 19.5901 7.68262 19.9125 7.68262 20.3104V26.4565C7.68262 26.8542 8.00507 27.1768 8.40289 27.1768C8.80072 27.1768 9.12317 26.8543 9.12317 26.4565V24.1037H10.7077C11.1055 24.1037 11.428 23.7812 11.428 23.3834C11.428 22.9856 11.1056 22.6631 10.7077 22.6631H9.12317V21.0306H11.476C11.8737 21.0306 12.1963 20.7082 12.1963 20.3104C12.1962 19.9126 11.8737 19.5901 11.476 19.5901Z" fill="#80C46D"/>
<path d="M17.1442 24.4414C17.865 23.9693 18.3424 23.1551 18.3424 22.231C18.3424 20.7748 17.1577 19.5901 15.7014 19.5901H13.7808C13.383 19.5901 13.0605 19.9125 13.0605 20.3104V26.4565C13.0605 26.8542 13.3829 27.1768 13.7808 27.1768C14.1786 27.1768 14.501 26.8543 14.501 26.4565V24.8719H15.7001L17.0228 26.8559C17.1616 27.0641 17.3899 27.1768 17.6227 27.1768C17.76 27.1768 17.8988 27.1376 18.0215 27.0557C18.3526 26.8351 18.4419 26.3879 18.2212 26.057L17.1442 24.4414ZM15.7014 23.4315H14.501V21.0306H15.7014C16.3634 21.0306 16.9018 21.5691 16.9018 22.231C16.9018 22.893 16.3634 23.4315 15.7014 23.4315Z" fill="#80C46D"/>
<path d="M23 25.7363H20.6472V24.1013C20.6631 24.1024 20.679 24.1038 20.6951 24.1038H22.2316C22.6294 24.1038 22.9519 23.7813 22.9519 23.3835C22.9519 22.9856 22.6295 22.6632 22.2316 22.6632H20.6951C20.6789 22.6632 20.6631 22.6645 20.6472 22.6656V21.0306H23C23.3977 21.0306 23.7202 20.7082 23.7202 20.3104C23.7202 19.9126 23.3978 19.5901 23 19.5901H19.9269C19.5291 19.5901 19.2066 19.9125 19.2066 20.3104V26.4565C19.2066 26.8542 19.5291 27.1768 19.9269 27.1768H23C23.3977 27.1768 23.7202 26.8543 23.7202 26.4565C23.7202 26.0587 23.3977 25.7363 23 25.7363Z" fill="#80C46D"/>
<path d="M28.3779 25.7363H26.0251V24.1038H26.8414C27.2392 24.1038 27.5617 23.7813 27.5617 23.3835C27.5617 22.9856 27.2392 22.6632 26.8414 22.6632H26.0251V21.0306H28.3779C28.7757 21.0306 29.0982 20.7082 29.0982 20.3104C29.0982 19.9126 28.7758 19.5901 28.3779 19.5901H25.3048C24.9071 19.5901 24.5845 19.9125 24.5845 20.3104V26.4565C24.5845 26.8542 24.907 27.1768 25.3048 27.1768H28.3779C28.7757 27.1768 29.0982 26.8543 29.0982 26.4565C29.0982 26.0587 28.7757 25.7363 28.3779 25.7363Z" fill="#80C46D"/>
</svg>
