<svg width="65" height="52" viewBox="0 0 65 52" fill="none" xmlns="http://www.w3.org/2000/svg">
<g opacity="0.5">
<path d="M38.2741 42.4605C25.2741 42.4605 18.6941 36.5905 18.2741 36.2505C18.0985 36.067 17.9993 35.8234 17.9966 35.5694C17.994 35.3153 18.0882 35.0698 18.2601 34.8827C18.4319 34.6956 18.6685 34.5809 18.9219 34.5619C19.1752 34.5429 19.4263 34.6211 19.6241 34.7805C19.7441 34.8805 31.5441 45.2705 54.6241 37.5705C54.7506 37.5179 54.8866 37.4918 55.0236 37.4939C55.1606 37.496 55.2957 37.5263 55.4206 37.5828C55.5454 37.6393 55.6573 37.7209 55.7493 37.8224C55.8413 37.9239 55.9114 38.0433 55.9554 38.1731C55.9993 38.3029 56.0161 38.4403 56.0047 38.5768C55.9934 38.7134 55.9541 38.8461 55.8892 38.9669C55.8244 39.0876 55.7355 39.1937 55.628 39.2786C55.5204 39.3635 55.3966 39.4254 55.2641 39.4605C49.7987 41.3665 44.0618 42.3794 38.2741 42.4605Z" fill="white"/>
<path d="M48.1942 14.4604C47.1207 14.4731 46.0495 14.3556 45.0042 14.1104C44.8603 14.0736 44.7263 14.0051 44.6122 13.9099C44.498 13.8148 44.4065 13.6954 44.3442 13.5604C44.2803 13.4261 44.2471 13.2792 44.2471 13.1304C44.2471 12.9817 44.2803 12.8348 44.3442 12.7004C45.6536 10.238 47.6986 8.24536 50.1942 7.00043C52.7605 5.94471 55.5925 5.71745 58.2942 6.35043C58.4382 6.38731 58.5721 6.4558 58.6863 6.55094C58.8005 6.64608 58.892 6.76547 58.9542 6.90043C59.0182 7.03475 59.0514 7.18166 59.0514 7.33043C59.0514 7.47921 59.0182 7.62611 58.9542 7.76043C57.6554 10.2134 55.6294 12.2044 53.1542 13.4604C51.5908 14.1425 49.8999 14.4834 48.1942 14.4604ZM46.9342 12.3904C48.7622 12.6042 50.6144 12.346 52.3142 11.6404C53.9638 10.8202 55.3728 9.58683 56.4042 8.06043C54.5755 7.85159 52.7236 8.11319 51.0242 8.82043C49.3774 9.64016 47.969 10.8695 46.9342 12.3904Z" fill="white"/>
<path d="M46.1442 19.8905C45.879 19.8905 45.6247 19.7851 45.4371 19.5976C45.2496 19.4101 45.1442 19.1557 45.1442 18.8905C45.1442 12.0105 40.7842 9.69049 40.5942 9.59049C40.3569 9.47114 40.1766 9.26239 40.0932 9.01015C40.0097 8.75791 40.0299 8.48286 40.1492 8.24549C40.2686 8.00812 40.4773 7.82788 40.7296 7.74443C40.9818 7.66098 41.2569 7.68114 41.4942 7.80049C41.7242 7.92049 47.1442 10.7205 47.1442 18.8905C47.1442 19.1557 47.0389 19.4101 46.8514 19.5976C46.6638 19.7851 46.4095 19.8905 46.1442 19.8905Z" fill="white"/>
<path d="M46.0043 22.1805C45.2366 22.204 44.4743 22.046 43.7792 21.7193C43.0842 21.3926 42.476 20.9065 42.0043 20.3005C41.8557 20.0804 41.8007 19.8103 41.8514 19.5496C41.902 19.2889 42.0541 19.059 42.2743 18.9105C42.4944 18.762 42.7645 18.707 43.0252 18.7576C43.2859 18.8083 43.5157 18.9604 43.6643 19.1805C43.7343 19.2805 45.0543 21.0105 48.4143 19.6605C48.6609 19.5624 48.9364 19.5663 49.1802 19.6713C49.424 19.7763 49.6161 19.9739 49.7143 20.2205C49.8124 20.4672 49.8085 20.7427 49.7035 20.9865C49.5985 21.2303 49.4009 21.4224 49.1543 21.5205C48.1569 21.9425 47.0871 22.1666 46.0043 22.1805Z" fill="white"/>
<path d="M19.7842 10.5804C18.4048 10.588 17.0291 10.437 15.6842 10.1304C15.5361 10.0976 15.3974 10.0316 15.2786 9.93726C15.1598 9.84293 15.064 9.72281 14.9985 9.586C14.933 9.44918 14.8994 9.29925 14.9004 9.14756C14.9014 8.99587 14.9369 8.84639 15.0042 8.71044C16.6935 5.5222 19.3271 2.93408 22.5442 1.30044C25.8846 -0.0681307 29.5677 -0.365152 33.0842 0.45044C33.2283 0.487248 33.3624 0.555742 33.4767 0.650931C33.591 0.746121 33.6826 0.865609 33.7449 1.00069C33.8072 1.13577 33.8385 1.28304 33.8367 1.43177C33.8348 1.5805 33.7998 1.72695 33.7342 1.86044C32.0475 5.05066 29.4133 7.63949 26.1942 9.27044C24.1744 10.1562 21.9895 10.6027 19.7842 10.5804ZM17.5342 8.43044C20.1965 8.80761 22.9112 8.46223 25.3942 7.43044C27.7941 6.22245 29.8224 4.38762 31.2642 2.12044C28.602 1.73828 25.8859 2.08383 23.4042 3.12044C21.0043 4.32843 18.9759 6.16326 17.5342 8.43044Z" fill="white"/>
<path d="M17.0642 17.7905C16.799 17.7905 16.5447 17.6851 16.3571 17.4976C16.1696 17.31 16.0642 17.0557 16.0642 16.7905C16.0642 7.37047 9.90422 4.18047 9.84422 4.15047C9.6087 4.03058 9.43021 3.82234 9.34776 3.57125C9.26531 3.32016 9.28561 3.04664 9.40422 2.81047C9.52234 2.57319 9.72983 2.39251 9.98109 2.30813C10.2324 2.22375 10.5068 2.24258 10.7442 2.36047C11.0442 2.51047 18.0642 6.15047 18.0642 16.7905C18.0642 16.9218 18.0384 17.0518 17.9881 17.1732C17.9378 17.2945 17.8642 17.4047 17.7713 17.4976C17.6785 17.5904 17.5682 17.6641 17.4469 17.7143C17.3256 17.7646 17.1955 17.7905 17.0642 17.7905Z" fill="white"/>
<path d="M52.0942 14.5005C50.879 14.4816 49.6681 14.6503 48.5042 15.0005C47.7009 15.2576 46.8539 15.3494 46.0142 15.2705C45.5484 15.2419 45.0881 15.1545 44.6442 15.0105C43.4656 14.6486 42.2369 14.4765 41.0042 14.5005C39.0689 14.4971 37.1614 14.9618 35.4445 15.8551C33.7276 16.7484 32.2522 18.0437 31.1442 19.6305C30.7991 20.1129 30.4915 20.621 30.2242 21.1505C30.1442 21.3105 30.0742 21.4605 30.0042 21.6205C29.9342 21.7805 29.8242 22.0405 29.7542 22.2505C29.6827 22.4083 29.6258 22.5723 29.5842 22.7405C29.5238 22.8902 29.4736 23.0439 29.4342 23.2005C29.3815 23.368 29.3381 23.5382 29.3042 23.7105C29.3011 23.7438 29.3011 23.7772 29.3042 23.8105C29.3042 23.9805 29.2342 24.1505 29.2042 24.3205C29.1686 24.4721 29.1419 24.6257 29.1242 24.7805C29.0944 24.9425 29.0744 25.1061 29.0642 25.2705C29.019 25.6923 28.999 26.1164 29.0042 26.5405C29.0058 27.2911 29.0694 28.0403 29.1942 28.7805C29.1942 28.9905 29.2542 29.2105 29.3042 29.4205C29.3542 29.6305 29.4142 29.9805 29.4842 30.2605C29.5215 30.4461 29.5682 30.6297 29.6242 30.8105C29.6742 31.0305 29.7442 31.2505 29.8042 31.4705C30.0483 32.2766 30.3388 33.0679 30.6742 33.8405C30.7742 34.0905 30.8842 34.3405 31.0042 34.5805L31.1042 34.7905C31.4042 35.4205 31.6942 35.9505 31.9942 36.4505L32.1042 36.6305L32.3442 37.0205L32.8142 37.0805C36.0122 37.5066 39.2441 37.6205 42.4642 37.4205C43.1442 37.4205 43.8242 37.3205 44.4642 37.2505C45.4642 37.1405 46.4642 37.0005 47.4642 36.8205C50.1364 36.3477 52.7629 35.6451 55.3142 34.7205C55.7342 34.5605 56.1242 34.4405 56.4842 34.3405C57.5833 34.0698 58.6082 33.5574 59.4842 32.8405C59.9408 32.4257 60.4522 32.0758 61.0042 31.8005C61.2434 31.8216 61.4671 31.9281 61.6342 32.1005C61.6857 32.142 61.7327 32.189 61.7742 32.2405L62.7742 33.1605L63.2442 31.6605C63.3042 31.4805 63.3542 31.2905 63.4042 31.1105C63.853 29.6278 64.092 28.0895 64.1142 26.5405C64.1116 23.3516 62.845 20.2937 60.5919 18.0369C58.3389 15.7801 55.2832 14.5084 52.0942 14.5005ZM61.6742 29.8905C61.5832 29.861 61.4894 29.8409 61.3942 29.8305H61.3342H61.0142C60.5442 29.8305 59.8442 30.0105 58.2542 31.3405C57.5954 31.8658 56.8261 32.235 56.0042 32.4205C55.55 32.5392 55.1027 32.6828 54.6642 32.8505C49.7576 34.635 44.5753 35.5422 39.3542 35.5305C38.8342 35.5305 38.3542 35.5305 37.8042 35.5305C37.2542 35.5305 36.8042 35.5305 36.2342 35.4505C35.6642 35.3705 35.2342 35.3805 34.6542 35.3205L33.5442 35.2005C33.3542 34.8805 33.1642 34.5305 32.9642 34.1405L32.7842 33.7705C31.6884 31.5127 31.0818 29.049 31.0042 26.5405C31.0068 25.3311 31.2269 24.1319 31.6542 23.0005C31.7742 22.6905 31.9042 22.3805 32.0542 22.0805L32.1142 21.9605C32.9499 20.3203 34.2222 18.9427 35.7908 17.9793C37.3594 17.0159 39.1634 16.5042 41.0042 16.5005C42.0241 16.5107 43.0362 16.6794 44.0042 17.0005C44.5905 17.1928 45.1986 17.3104 45.8142 17.3505C46.92 17.4606 48.0366 17.3415 49.0942 17.0005C50.5957 16.5417 52.1837 16.4406 53.7313 16.7055C55.2788 16.9703 56.7429 17.5937 58.0063 18.5257C59.2698 19.4578 60.2975 20.6726 61.0074 22.073C61.7172 23.4734 62.0894 25.0205 62.0942 26.5905C62.0812 27.7213 61.93 28.8463 61.6442 29.9405L61.6742 29.8905Z" fill="white"/>
<path d="M32.1041 36.6304L32.0041 36.4504L31.7641 36.9304C31.9641 36.9304 32.1541 37.0004 32.3541 37.0204L32.1041 36.6304ZM64.0041 32.7904C63.992 32.1834 63.7891 31.5956 63.4241 31.1104C63.2974 30.9332 63.1534 30.7691 62.9941 30.6204C62.6247 30.2722 62.1746 30.0213 61.6841 29.8904C61.5931 29.8609 61.4992 29.8408 61.4041 29.8304H61.3441H61.0241C60.5541 29.8304 59.8541 30.0104 58.2641 31.3404C57.6023 31.8671 56.8295 32.2364 56.0041 32.4204C55.5499 32.5392 55.1026 32.6827 54.6641 32.8504C49.7575 34.635 44.5751 35.5422 39.3541 35.5304H37.8041C37.2841 35.5304 36.8041 35.5304 36.2341 35.4504C35.6641 35.3704 35.2341 35.3804 34.6541 35.3204C34.2841 35.3204 33.9141 35.2504 33.5441 35.1904H33.0641L32.6341 35.0004L31.3641 34.8004L31.1041 34.7504C31.4041 35.3804 31.6941 35.9104 31.9941 36.4104L31.7541 36.8904C31.9541 36.8904 32.1441 36.9604 32.3441 36.9804L32.8241 37.0504C36.0221 37.4765 39.254 37.5904 42.4741 37.3904C43.1541 37.3904 43.8341 37.2904 44.4741 37.2204C45.4741 37.1104 46.4741 36.9604 47.4741 36.7904C50.1463 36.3176 52.7727 35.615 55.3241 34.6904C55.7441 34.5304 56.1341 34.4104 56.4941 34.3104C57.5932 34.0398 58.6181 33.5273 59.4941 32.8104C59.9494 32.407 60.4574 32.0672 61.0041 31.8004C61.2433 31.8216 61.4669 31.928 61.6341 32.1004C61.6856 32.142 61.7325 32.1889 61.7741 32.2404C61.886 32.3798 61.9616 32.5447 61.9941 32.7204C61.7383 33.1004 61.4245 33.4378 61.0641 33.7204C60.7627 33.9885 60.5367 34.3307 60.4086 34.7132C60.2806 35.0956 60.2549 35.505 60.3341 35.9004C60.4529 36.6271 60.4256 37.3701 60.2539 38.0861C60.0822 38.8021 59.7695 39.4767 59.3341 40.0704L59.0141 40.3904C51.6641 47.8204 43.0041 51.0004 33.2141 49.7504C27.0041 49.0004 22.1241 47.0004 18.7141 43.8804L20.4141 45.4304L18.1241 45.6204H17.7041C21.4041 48.8504 26.5241 50.9004 32.9741 51.7104C34.4032 51.8967 35.8429 51.9902 37.2841 51.9904C46.0041 52.0004 53.7241 48.5804 60.4141 41.7904L60.7241 41.4704C61.4049 40.6436 61.8986 39.6792 62.1713 38.6435C62.4441 37.6078 62.4894 36.5253 62.3041 35.4704C62.2931 35.4169 62.2955 35.3614 62.3112 35.3091C62.327 35.2567 62.3554 35.2091 62.3941 35.1704C63.5041 34.2504 64.0041 33.5004 64.0041 32.7904ZM30.6141 34.7004C30.4341 34.7004 30.2641 34.6404 30.0941 34.6104L30.6141 34.7104V34.7004Z" fill="white"/>
<path d="M32.8041 33.7205C31.7082 31.4795 31.095 29.0334 31.0042 26.5405C31.0067 25.331 31.2269 24.1319 31.6542 23.0005C31.7742 22.6905 31.9042 22.3805 32.0541 22.0805L32.1142 21.9605L32.2742 21.6405L32.0442 21.1905C31.7856 20.6664 31.4951 20.1588 31.1742 19.6705C29.706 17.3452 27.6885 15.4166 25.2994 14.0547C22.9104 12.6927 20.223 11.9392 17.4741 11.8605H16.6142C16.2142 11.8605 15.8141 11.8605 15.4142 11.9305C11.2843 12.2833 7.42933 14.1459 4.58641 17.1623C1.7435 20.1786 0.112102 24.137 0.00415039 28.2805C0.00415039 28.2805 0.00415039 28.2305 0.00415039 28.2005C0.0522931 27.6208 0.256102 27.0648 0.594051 26.5913C0.932 26.1178 1.39154 25.7444 1.92415 25.5105L2.37415 25.3205C3.09735 22.2184 4.79752 19.4306 7.22429 17.3675C9.65105 15.3044 12.6762 14.075 15.8542 13.8605C16.1342 13.8605 16.4142 13.8605 16.6942 13.8605H16.9342C17.2442 13.8605 17.5642 13.8605 17.8742 13.8605C20.3887 14.0171 22.8219 14.8117 24.9442 16.1694C27.0665 17.5271 28.8079 19.4031 30.0042 21.6205C29.9142 21.8305 29.8242 22.0405 29.7542 22.2505C29.6827 22.4083 29.6258 22.5723 29.5842 22.7405C29.5237 22.8902 29.4736 23.0439 29.4342 23.2005C29.3815 23.368 29.3381 23.5382 29.3041 23.7105C29.3011 23.7437 29.3011 23.7772 29.3041 23.8105C29.3041 23.9805 29.2342 24.1505 29.2042 24.3205C29.1686 24.4721 29.1418 24.6257 29.1242 24.7805C29.0943 24.9425 29.0743 25.1061 29.0641 25.2705C29.019 25.6922 28.9989 26.1163 29.0042 26.5405C29.0057 27.2911 29.0693 28.0403 29.1942 28.7805C29.1942 28.9905 29.2542 29.2105 29.3041 29.4205C29.3541 29.6305 29.4142 29.9805 29.4841 30.2605C29.5214 30.4461 29.5681 30.6297 29.6242 30.8105C29.6742 31.0305 29.7442 31.2505 29.8041 31.4705C30.0482 32.2766 30.3387 33.0679 30.6742 33.8405L30.8242 34.1905L30.6142 34.7005C30.7754 34.741 30.9391 34.7711 31.1042 34.7905C31.4042 35.4205 31.6942 35.9505 31.9942 36.4505L32.0842 36.2805C32.2842 35.8805 32.4742 35.4605 32.6342 35.0405C32.7145 34.8579 32.7846 34.6709 32.8442 34.4805L33.0042 34.1005L32.8041 33.7205ZM31.8041 36.9405L31.0042 36.8205L31.8041 36.9405Z" fill="white"/>
<path d="M32.0042 36.4505L31.7642 36.9305L31.0042 36.8205C25.1914 35.8605 19.5805 33.9338 14.4042 31.1205C13.8359 30.8 13.3143 30.403 12.8542 29.9405L11.7042 28.7905C11.5443 28.6288 11.4268 28.43 11.3623 28.2119C11.2977 27.9939 11.2881 27.7632 11.3342 27.5405C11.3735 27.3189 11.4685 27.1109 11.6102 26.936C11.7518 26.7611 11.9356 26.625 12.1442 26.5405L12.6342 26.3205C12.7832 26.2582 12.9186 26.167 13.0324 26.0524C13.1463 25.9377 13.2365 25.8018 13.2977 25.6522C13.359 25.5027 13.3903 25.3426 13.3897 25.181C13.389 25.0194 13.3566 24.8595 13.2942 24.7105L13.0842 24.2205C12.9535 23.9229 12.7137 23.6866 12.4142 23.5605C12.2669 23.4986 12.1089 23.4667 11.9492 23.4667C11.7895 23.4667 11.6314 23.4986 11.4842 23.5605L2.74416 27.3405C2.5467 27.4302 2.37575 27.5695 2.24786 27.7446C2.11997 27.9198 2.03947 28.1251 2.01416 28.3405C2.01008 28.3904 2.01008 28.4406 2.01416 28.4905C2.0199 28.6389 2.05384 28.7848 2.11416 28.9205L2.32416 29.3905C2.38038 29.5504 2.47014 29.6965 2.58741 29.819C2.70469 29.9414 2.84678 30.0374 3.00416 30.1005C3.30513 30.2249 3.64318 30.2249 3.94416 30.1005L7.10416 28.7505L7.49416 28.9205C9.90958 29.94 11.8691 31.8071 13.0042 34.1705C13.2924 34.6363 13.5114 35.1416 13.6542 35.6705C14.597 38.7891 16.3458 41.6038 18.7242 43.8305L20.4242 45.3805L18.1342 45.5705H17.7142C17.5993 45.483 17.4891 45.3896 17.3842 45.2905C16.5238 44.5345 15.7277 43.7083 15.0042 42.8205L14.5442 42.1905C14.3975 41.9838 14.2575 41.7738 14.1242 41.5605C13.8542 41.1505 13.6142 40.7505 13.4042 40.3505L13.0942 39.7705C13.0942 39.6905 13.0242 39.6205 12.9842 39.5505C12.5342 38.6105 12.2042 37.7605 11.9842 37.0505L11.7542 36.3805C11.6545 36.0389 11.5308 35.7047 11.3842 35.3805L11.2742 35.2105L11.1842 35.0305C10.3187 33.2251 8.87107 31.7634 7.07416 30.8805L4.70416 31.8805C4.04758 32.1636 3.31457 32.2165 2.62416 32.0305L2.36416 32.0005H2.22416C1.82778 31.8367 1.46851 31.5946 1.16782 31.2888C0.867139 30.9829 0.631215 30.6196 0.474159 30.2205L0.264159 29.7505C0.11153 29.3886 0.0235313 29.0028 0.00415856 28.6105C-0.00138619 28.5139 -0.00138619 28.4171 0.00415856 28.3205C0.00415856 28.3205 0.00415856 28.2705 0.00415856 28.2405C0.0523013 27.6608 0.25611 27.1048 0.594059 26.6313C0.932008 26.1578 1.39155 25.7844 1.92416 25.5505L2.37416 25.3605L10.6942 21.8205C11.0835 21.6539 11.5018 21.5657 11.9252 21.561C12.3487 21.5563 12.7689 21.6351 13.1618 21.793C13.5547 21.951 13.9126 22.1848 14.215 22.4812C14.5174 22.7777 14.7584 23.1308 14.9242 23.5205L15.1342 24.0105C15.4225 24.7262 15.4459 25.5213 15.2003 26.2527C14.9546 26.9841 14.456 27.6039 13.7942 28.0005L14.2942 28.5005C14.6256 28.8352 15.0027 29.1213 15.4142 29.3505L15.8342 29.5805L16.2042 29.7805C16.8842 30.1405 17.8342 30.6105 19.0142 31.1205L19.4542 31.3105C20.1342 31.6005 20.8742 31.9005 21.6842 32.2005L22.6042 32.5405L23.2442 32.7605L24.3442 33.1205C25.4342 33.4605 26.6142 33.8005 27.8542 34.1205C28.2042 34.2105 28.5542 34.2905 28.9142 34.3605L30.0942 34.6105L30.6142 34.7105C30.7754 34.751 30.9391 34.7811 31.1042 34.8005C31.4042 35.4205 31.6942 36.0005 32.0042 36.4505Z" fill="white"/>
<path d="M17.5142 21.7705C16.6858 21.8095 15.8626 21.6202 15.1343 21.2235C14.4061 20.8267 13.8007 20.2377 13.3842 19.5205C13.2872 19.2874 13.2819 19.0263 13.3694 18.7894C13.4569 18.5526 13.6308 18.3576 13.8562 18.2437C14.0815 18.1298 14.3416 18.1053 14.5842 18.1752C14.8268 18.2451 15.034 18.4042 15.1642 18.6205C15.2742 18.8205 16.2742 20.4505 19.2642 19.4605C19.3907 19.4079 19.5267 19.3818 19.6637 19.384C19.8007 19.3861 19.9358 19.4163 20.0606 19.4728C20.1855 19.5293 20.2974 19.6109 20.3894 19.7124C20.4814 19.814 20.5515 19.9333 20.5954 20.0631C20.6394 20.1929 20.6562 20.3303 20.6448 20.4669C20.6335 20.6034 20.5941 20.7362 20.5293 20.8569C20.4645 20.9776 20.3756 21.0837 20.268 21.1686C20.1605 21.2535 20.0367 21.3155 19.9042 21.3505C19.1359 21.6204 18.3285 21.7623 17.5142 21.7705Z" fill="white"/>
<path d="M17.3742 45.3605C16.5143 44.5818 15.7215 43.7321 15.0042 42.8205C15.2042 43.0805 15.4142 43.3505 15.6342 43.6105C12.4798 43.3241 9.49699 42.0467 7.11321 39.9611C4.72942 37.8755 3.067 35.0889 2.36415 32.0005H2.22415C1.82777 31.8367 1.4685 31.5946 1.16782 31.2887C0.867131 30.9829 0.631207 30.6196 0.47415 30.2205L0.26415 29.7505C0.111522 29.3886 0.0235232 29.0027 0.00415039 28.6105L0.00415039 28.7405C0.00944781 33.228 1.79516 37.5301 4.96929 40.7024C8.14342 43.8747 12.4466 45.6578 16.9342 45.6605C17.1942 45.6605 17.4542 45.6605 17.7042 45.6605C17.5888 45.5665 17.4786 45.4664 17.3742 45.3605ZM12.0042 37.0505C12.2884 37.9026 12.6223 38.7374 13.0042 39.5505C12.5742 38.6105 12.2442 37.7605 12.0042 37.0505Z" fill="white"/>
</g>
</svg>
