<svg width="50" height="35" viewBox="0 0 50 35" fill="none" xmlns="http://www.w3.org/2000/svg">
<path fill-rule="evenodd" clip-rule="evenodd" d="M49.7636 0L40.8784 34.9967H33.5992C32.8115 34.9967 32.0489 34.7104 31.4475 34.1889C30.8028 33.6563 30.3225 32.9458 30.063 32.1404L25.6817 17.8101L21.3216 34.9967H6.64854C6.35058 34.9951 6.0652 34.8731 5.85451 34.657C5.64382 34.4417 5.52432 34.1491 5.52275 33.8445C5.52275 33.539 5.64146 33.2456 5.85215 33.0295C6.06363 32.8134 6.3498 32.6922 6.64854 32.6922C11.5031 32.6922 5.60136 32.6922 10.4709 32.6922C10.7696 32.6922 11.0558 32.571 11.2673 32.3549C11.4788 32.1388 11.5975 31.8453 11.5975 31.5399C11.5975 31.2337 11.4788 30.9411 11.2673 30.725C11.0558 30.5089 10.7696 30.3877 10.4709 30.3877C6.16819 30.3877 9.6179 30.3359 5.38674 30.3359C5.088 30.3359 4.80183 30.2146 4.59035 29.9985C4.37966 29.7824 4.26095 29.489 4.26095 29.1836C4.26095 28.8782 4.37966 28.5847 4.59035 28.3686C4.80183 28.1525 5.088 28.0313 5.38674 28.0313C9.77592 28.0313 11.2382 27.9875 15.6706 27.9875C15.9694 27.9875 16.2555 27.8663 16.467 27.6502C16.6785 27.4341 16.7972 27.1406 16.7972 26.8352C16.7972 26.5298 16.6785 26.2364 16.467 26.0203C16.2555 25.8042 15.9694 25.683 15.6706 25.683C11.7909 25.683 10.8294 25.683 6.99288 25.683C6.69414 25.683 6.40797 25.5618 6.19649 25.3457C5.98501 25.1296 5.8663 24.8361 5.8663 24.5307C5.8663 24.2245 5.98501 23.9319 6.19649 23.7158C6.40797 23.4997 6.69414 23.3785 6.99288 23.3785C12.1847 23.3785 13.1171 23.3785 18.3381 23.3785C18.6368 23.3785 18.923 23.2572 19.1345 23.0411C19.346 22.825 19.4647 22.5316 19.4647 22.2262C19.4631 21.9208 19.3436 21.6289 19.1329 21.4128C18.9222 21.1967 18.6368 21.0747 18.3389 21.0731H9.01649V21.0365C8.74133 20.9878 8.49368 20.8379 8.32072 20.6146C8.14777 20.3914 8.0605 20.1099 8.07701 19.8252C8.07701 19.5198 8.19572 19.2263 8.40642 19.0102C8.6179 18.7941 8.90406 18.6729 9.20281 18.6729H9.61869H15.3129C15.4607 18.6729 15.6069 18.6434 15.7437 18.5852C15.8805 18.527 16.0047 18.4425 16.1093 18.3356C16.2139 18.2288 16.2964 18.1012 16.3538 17.9616C16.4104 17.8221 16.4395 17.6722 16.4395 17.5207C16.4395 17.3692 16.4104 17.2193 16.3538 17.0797C16.2972 16.9402 16.2147 16.8126 16.1093 16.7057C16.0047 16.5989 15.8805 16.5136 15.7437 16.4561C15.6069 16.3979 15.4607 16.3684 15.3129 16.3684C8.59353 16.3684 7.85453 16.3684 1.12098 16.3684C0.968467 16.3676 0.818309 16.3357 0.678371 16.2735C0.538432 16.2113 0.412645 16.1212 0.308085 16.008C0.203524 15.8948 0.122549 15.7608 0.0698755 15.6149C0.0172021 15.4689 -0.00638299 15.3127 0.00147871 15.1572C0.00147871 14.8518 0.12019 14.5583 0.330884 14.3422C0.542363 14.1261 0.828529 14.0049 1.12727 14.0049C9.46067 14.0049 11.827 14.0049 20.1675 14.0049C20.4663 14.0049 20.7524 13.8837 20.9639 13.6676C21.1754 13.4515 21.2941 13.1581 21.2941 12.8526C21.2941 12.5472 21.1754 12.2538 20.9639 12.0377C20.7524 11.8216 20.4663 11.7004 20.1675 11.7004C13.6557 11.7004 11.5613 11.7004 5.03611 11.7004C4.73736 11.7004 4.4512 11.5792 4.23972 11.3631C4.02824 11.147 3.91031 10.8535 3.91031 10.5481C3.90324 10.3934 3.92761 10.2395 3.9795 10.0944C4.03217 9.94928 4.11315 9.81691 4.21613 9.70447C4.31991 9.59204 4.44491 9.50273 4.58249 9.44053C4.72085 9.37833 4.86944 9.34564 5.02117 9.34405C9.90486 9.34405 10.0409 9.34405 14.9175 9.34405C15.2162 9.34405 15.5024 9.22284 15.7139 9.00674C15.9253 8.79064 16.0441 8.4972 16.0441 8.19179C16.0441 7.88558 15.9253 7.59293 15.7139 7.37684C15.5024 7.16074 15.2162 7.03953 14.9175 7.03953C10.5786 7.03953 11.827 6.9877 7.47323 6.9877C7.32386 6.9869 7.17685 6.9558 7.03927 6.896C6.90169 6.83619 6.77747 6.74927 6.6737 6.64003C6.56993 6.53078 6.48816 6.4016 6.43313 6.25967C6.3781 6.11773 6.35137 5.96622 6.35452 5.81312C6.35452 5.50771 6.47323 5.21426 6.68471 4.99816C6.8954 4.78207 7.18235 4.66086 7.4811 4.66086C12.1926 4.66086 15.5779 4.66086 20.2894 4.66086C20.5881 4.66086 20.8743 4.53965 21.0858 4.32355C21.2972 4.10746 21.416 3.81401 21.416 3.5086C21.416 1.05657 16.8192 3.6625 16.8192 1.22562C16.8161 1.07331 16.8428 0.922603 16.8978 0.781461C16.9521 0.64032 17.0331 0.51114 17.1368 0.401894C17.2398 0.292649 17.364 0.205732 17.5 0.145129C17.636 0.0853228 17.7831 0.0534264 17.9316 0.0510342C25.519 0.0510342 19.9325 0.00717668 27.5339 0.00717668C28.3185 0.00558187 29.0787 0.28308 29.6857 0.792625C30.3366 1.32928 30.8162 2.05253 31.0623 2.87067L35.4514 17.2009L39.8115 0.00717668H49.7652L49.7636 0ZM9.44573 0C9.15878 0.00159482 8.88441 0.119611 8.68236 0.326938C8.47953 0.534264 8.36475 0.814953 8.36318 1.1084V1.21127C8.36475 1.50471 8.47953 1.7854 8.68236 1.99273C8.8852 2.20005 9.15957 2.31727 9.44573 2.31966H13.9277C14.2146 2.31807 14.489 2.20005 14.6911 1.99273C14.8939 1.7854 15.0087 1.50471 15.0102 1.21127V1.1084C15.0087 0.816547 14.8947 0.536657 14.6934 0.32933C14.4922 0.122004 14.2201 0.00398705 13.934 0H9.44573Z" fill="white"/>
</svg>
