<svg width="56" height="52" viewBox="0 0 56 52" fill="none" xmlns="http://www.w3.org/2000/svg">
<g opacity="0.5">
<path d="M2.33482 26.3284C1.99409 26.3284 1.66802 26.1925 1.4281 25.9506C1.18882 25.7088 1.05546 25.3808 1.05865 25.0401C1.06312 24.5826 1.31197 20.3935 8.60339 14.2666C10.7895 12.2662 13.8306 10.0597 15.6791 11.1145C16.2911 11.4635 16.5048 12.2433 16.1558 12.8552C15.8265 13.4327 15.1157 13.6553 14.5216 13.3861C13.8631 13.4224 11.8812 14.7286 10.2854 16.186C6.19461 19.6246 4.60705 22.2893 3.99385 23.776L5.90109 23.7754C6.60554 23.7754 7.17726 24.3465 7.17726 25.0516C7.17726 25.7567 6.60618 26.3277 5.90109 26.3277L2.33482 26.3284Z" fill="white"/>
<path d="M16.3867 51.4269C9.92354 51.4275 5.1666 47.8587 3.03156 45.0524C-0.286488 40.3363 -3.79597 30.8007 9.66767 19.4855C10.7677 18.5616 11.9067 17.6038 13.107 16.6875C12.8843 13.5666 13.784 10.9396 15.7856 8.8703C21.494 2.96864 34.368 3.79879 35.9951 3.92832C37.0001 3.73306 39.3668 1.9528 41.0558 0.350565C41.4578 -0.031011 42.0601 -0.108858 42.5457 0.15531C42.7965 0.29186 45.0005 1.55527 45.2646 3.82112C45.4024 5.00605 44.987 6.16354 44.0286 7.27189C44.2998 7.91891 44.4255 8.72992 44.0848 9.55178C43.7906 10.262 43.2272 10.8369 42.3734 11.2855C43.201 11.5892 44.0459 11.9606 44.8645 12.4142C45.3303 11.6843 46.2498 9.65004 46.9677 4.35201C47.013 4.01382 47.1929 3.70754 47.466 3.50208C47.7436 3.29406 50.243 1.49976 52.5516 2.51751C54.1168 3.20728 55.0439 4.9333 55.3075 7.64709C55.3413 7.99357 55.2322 8.33877 55.0044 8.60294C54.9865 8.62655 52.0168 12.441 55.1154 21.5484L55.2417 21.9128C55.2998 22.0787 55.3228 22.2554 55.3094 22.4309C55.2679 22.9867 54.2119 35.9392 46.8509 40.2284C46.4476 40.7995 45.2863 42.3813 42.0544 46.5398C42.034 46.5659 42.0129 46.5908 41.9906 46.615C39.0962 49.7959 36.0985 51.3248 33.0855 51.1563C30.2409 50.9981 28.1684 49.3486 27.1161 48.2849C23.1977 50.554 19.5835 51.4269 16.3867 51.4269ZM15.1176 18.365C13.8095 19.3388 12.5531 20.3948 11.3095 21.4393C6.2003 25.733 -1.40186 34.3153 5.09131 43.5452C5.39248 43.9338 13.3296 53.9562 26.6912 45.5603C27.2597 45.2036 28.0088 45.3478 28.4032 45.8921C28.4191 45.9132 30.3289 48.4578 33.2507 48.6084C35.4362 48.729 37.7384 47.4841 40.0719 44.9324C44.2341 39.5757 44.8684 38.6122 44.8932 38.5732C45.0094 38.3946 45.1734 38.2402 45.361 38.1381C51.2473 34.9495 52.5618 24.2775 52.7417 22.4922L52.7002 22.3709C49.7089 13.5781 51.8082 8.90284 52.7149 7.44162C52.5203 6.02124 52.1024 5.10878 51.5223 4.85291C50.9334 4.5932 50.0152 4.94288 49.4154 5.27851C48.2285 13.4983 46.3589 15.2467 44.9845 15.2467C44.7401 15.2467 44.5015 15.1765 44.296 15.0451C40.7795 12.7907 36.0998 12.4921 36.0532 12.4895C35.3743 12.45 34.8453 11.884 34.8517 11.2038C34.8581 10.5236 35.3966 9.96781 36.0762 9.94037C41.1892 9.73427 41.7073 8.62208 41.7271 8.57487C41.7992 8.40067 41.5573 8.0242 41.4871 7.94763C41.2555 7.69622 41.1343 7.36314 41.1509 7.0224C41.1668 6.68166 41.3193 6.36134 41.5733 6.13354C42.145 5.61988 42.8099 4.85482 42.7295 4.12485C42.6797 3.67244 42.3556 3.24875 42.0193 2.92844C40.6308 4.15356 37.9649 6.30264 36.1566 6.48322C36.0762 6.49151 35.9951 6.49151 35.9135 6.48386C35.782 6.47237 22.7357 5.35316 17.6176 10.648C16.4792 11.8259 15.8335 13.2246 15.6682 14.8849C18.3227 13.1908 21.2994 11.8782 24.789 11.5815C25.4865 11.5267 26.1086 12.0422 26.1686 12.7448C26.2286 13.4473 25.7073 14.0643 25.0054 14.1243C21.2528 14.444 18.1453 16.1368 15.2886 18.2393C15.2356 18.2853 15.1782 18.3274 15.1176 18.365Z" fill="white"/>
<path d="M31.1539 41.9168C30.8138 41.9168 30.4871 41.7808 30.2472 41.5384C30.0073 41.2965 29.8746 40.9686 29.8777 40.6278C29.8822 40.1703 30.1311 35.9813 37.4218 29.8544C39.6819 27.7857 42.806 25.5377 44.6367 26.789C46.3276 27.9439 45.5109 30.8058 44.4893 33.4545C44.2353 34.1117 43.4958 34.4371 42.8386 34.1857C42.1813 33.9317 41.854 33.1928 42.1073 32.535C42.8934 30.4988 43.0479 29.49 43.06 29.0363C42.226 29.3152 40.5134 30.4854 39.1045 31.7737C35.0137 35.213 33.4261 37.8777 32.8129 39.3644L37.2368 39.3631C37.2374 39.3631 37.2374 39.3631 37.2374 39.3631C37.9419 39.3631 38.5136 39.9342 38.5136 40.6387C38.5136 41.3431 37.9425 41.9155 37.2381 41.9155L31.1539 41.9168Z" fill="white"/>
</g>
</svg>
