<svg width="153" height="25" viewBox="0 0 153 25" fill="none" xmlns="http://www.w3.org/2000/svg">
<path fill-rule="evenodd" clip-rule="evenodd" d="M36.605 0.00224889L30.0692 24.9999H24.7148C24.1354 24.9999 23.5744 24.7954 23.132 24.4229C22.6578 24.0424 22.3045 23.5349 22.1137 22.9597L18.8909 12.7238L15.6837 24.9999H4.89051C4.67134 24.9988 4.46142 24.9116 4.30644 24.7573C4.15146 24.6035 4.06356 24.3944 4.06241 24.1769C4.06241 23.9587 4.14973 23.7491 4.30471 23.5947C4.46027 23.4404 4.67076 23.3538 4.89051 23.3538C8.46144 23.3538 4.12023 23.3538 7.70215 23.3538C7.9219 23.3538 8.1324 23.2672 8.28796 23.1129C8.44352 22.9585 8.53084 22.7489 8.53084 22.5308C8.53084 22.3121 8.44352 22.103 8.28796 21.9487C8.1324 21.7943 7.9219 21.7077 7.70215 21.7077C4.53718 21.7077 7.07471 21.6707 3.96236 21.6707C3.74261 21.6707 3.53212 21.5841 3.37656 21.4298C3.22157 21.2754 3.13425 21.0658 3.13425 20.8477C3.13425 20.6295 3.22157 20.4199 3.37656 20.2656C3.53212 20.1112 3.74261 20.0246 3.96236 20.0246C7.19094 20.0246 8.26656 19.9933 11.5269 19.9933C11.7467 19.9933 11.9572 19.9067 12.1128 19.7524C12.2683 19.598 12.3556 19.3884 12.3556 19.1703C12.3556 18.9521 12.2683 18.7425 12.1128 18.5882C11.9572 18.4338 11.7467 18.3472 11.5269 18.3472C8.6731 18.3472 7.96585 18.3472 5.1438 18.3472C4.92405 18.3472 4.71356 18.2606 4.558 18.1063C4.40244 17.9519 4.31512 17.7423 4.31512 17.5242C4.31512 17.3055 4.40244 17.0964 4.558 16.9421C4.71356 16.7877 4.92405 16.7011 5.1438 16.7011C8.96282 16.7011 9.64867 16.7011 13.4891 16.7011C13.7088 16.7011 13.9193 16.6146 14.0749 16.4602C14.2304 16.3059 14.3178 16.0963 14.3178 15.8781C14.3166 15.66 14.2287 15.4515 14.0737 15.2971C13.9187 15.1428 13.7088 15.0556 13.4897 15.0545H6.63232V15.0283C6.42992 14.9935 6.24776 14.8865 6.12053 14.727C5.99331 14.5675 5.92912 14.3664 5.94126 14.1631C5.94126 13.945 6.02859 13.7353 6.18357 13.581C6.33913 13.4266 6.54962 13.3401 6.76937 13.3401H7.07529H11.2638C11.3725 13.3401 11.4801 13.319 11.5807 13.2774C11.6814 13.2358 11.7727 13.1755 11.8496 13.0991C11.9265 13.0228 11.9873 12.9317 12.0295 12.832C12.0711 12.7323 12.0925 12.6252 12.0925 12.517C12.0925 12.4088 12.0711 12.3017 12.0295 12.202C11.9878 12.1024 11.9271 12.0112 11.8496 11.9349C11.7727 11.8586 11.6814 11.7976 11.5807 11.7566C11.4801 11.7151 11.3725 11.694 11.2638 11.694C6.3212 11.694 5.77761 11.694 0.82457 11.694C0.712382 11.6934 0.601929 11.6706 0.498994 11.6262C0.396059 11.5818 0.303532 11.5174 0.22662 11.4365C0.149708 11.3557 0.0901441 11.26 0.0513988 11.1557C0.0126535 11.0515 -0.00469518 10.9399 0.0010877 10.8288C0.0010877 10.6106 0.0884092 10.401 0.24339 10.2467C0.39895 10.0923 0.609447 10.0058 0.829196 10.0058C6.95905 10.0058 8.6997 10.0058 14.8348 10.0058C15.0545 10.0058 15.265 9.91918 15.4206 9.76482C15.5761 9.61046 15.6634 9.40086 15.6634 9.18271C15.6634 8.96456 15.5761 8.75496 15.4206 8.6006C15.265 8.44625 15.0545 8.35967 14.8348 8.35967C10.0448 8.35967 8.50424 8.35967 3.70444 8.35967C3.4847 8.35967 3.2742 8.27309 3.11864 8.11874C2.96308 7.96438 2.87634 7.75478 2.87634 7.53663C2.87113 7.42613 2.88906 7.3162 2.92723 7.21254C2.96597 7.10888 3.02553 7.01433 3.10129 6.93402C3.17762 6.85371 3.26957 6.78991 3.37077 6.74549C3.47255 6.70106 3.58185 6.67771 3.69346 6.67657C7.28578 6.67657 7.38583 6.67657 10.9729 6.67657C11.1927 6.67657 11.4032 6.58999 11.5588 6.43563C11.7143 6.28128 11.8016 6.07167 11.8016 5.85353C11.8016 5.63481 11.7143 5.42577 11.5588 5.27142C11.4032 5.11706 11.1927 5.03049 10.9729 5.03049C7.78138 5.03049 8.6997 4.99346 5.49714 4.99346C5.38726 4.99289 5.27912 4.97068 5.17792 4.92796C5.07672 4.88524 4.98535 4.82316 4.90902 4.74513C4.83269 4.66709 4.77254 4.57482 4.73206 4.47344C4.69158 4.37205 4.67192 4.26383 4.67423 4.15447C4.67423 3.93633 4.76156 3.72672 4.91712 3.57237C5.0721 3.41801 5.28317 3.33143 5.50292 3.33143C8.9686 3.33143 11.4587 3.33143 14.9244 3.33143C15.1441 3.33143 15.3546 3.24486 15.5102 3.0905C15.6658 2.93615 15.7531 2.72654 15.7531 2.50839C15.7531 0.75694 12.3718 2.61832 12.3718 0.877691C12.3695 0.768901 12.3892 0.661251 12.4297 0.560436C12.4696 0.45962 12.5291 0.367349 12.6055 0.289316C12.6812 0.211284 12.7726 0.1492 12.8726 0.105912C12.9727 0.0631938 13.0808 0.0404106 13.1901 0.0387019C18.7712 0.0387019 14.6618 0.00737509 20.2533 0.00737509C20.8304 0.00623593 21.3897 0.204449 21.8361 0.56841C22.3149 0.951736 22.6677 1.46834 22.8487 2.05273L26.0773 12.2886L29.2844 0.00737509H36.6061L36.605 0.00224889ZM147.74 0.395258C148.586 0.379879 149.425 0.542779 150.203 0.872564C150.89 1.16704 151.499 1.61529 151.981 2.18373C152.451 2.74591 152.773 3.41687 152.915 4.13454C153.057 4.92967 153.021 5.74588 152.81 6.52563L151.67 11.2765C151.288 12.6765 150.564 13.9609 149.561 15.0152C149.046 15.607 148.443 16.1162 147.772 16.5257C147.142 16.8994 146.465 17.187 145.757 17.3806C145.026 17.58 144.277 17.7064 143.521 17.7583C142.74 17.8073 141.915 17.8318 141.047 17.8318H139.627L137.881 24.4861H130.607L136.763 0.395827H147.74L147.74 0.395258ZM145.023 7.41189C145.081 7.24387 145.099 7.06445 145.076 6.88788C145.053 6.71131 144.99 6.54272 144.891 6.39462C144.788 6.25508 144.651 6.14344 144.494 6.0694C144.337 5.99535 144.163 5.96118 143.989 5.96972H142.702L141.183 11.7378H142.501C142.91 11.7333 143.303 11.5823 143.609 11.3129C143.943 11.0566 144.186 10.7001 144.3 10.2957L145.028 7.41132H145.023V7.41189ZM125.326 0.00224889H123.875C122.797 -0.0085731 121.726 0.169135 120.71 0.526261C118.872 1.17045 117.337 2.46624 116.401 4.1653C115.901 5.06808 115.524 6.03294 115.277 7.03369C115.003 8.08229 114.718 9.18385 114.439 10.2797C114.159 11.3756 113.911 12.3775 113.668 13.2951L112.877 16.4101C112.489 17.7235 112.401 19.1065 112.619 20.4587C112.787 21.4349 113.229 22.344 113.896 23.0804C114.52 23.7371 115.308 24.2179 116.179 24.4753C116.836 24.7464 117.541 24.8854 118.252 24.8843H121.581C122.832 24.8917 124.083 24.8199 125.327 24.6695C126.145 24.5477 126.923 24.2327 127.595 23.752C128.302 23.2046 128.875 22.5029 129.267 21.7015C129.822 20.5589 130.258 19.3622 130.565 18.1302C130.913 16.8612 131.287 15.566 131.651 14.2446C132.015 12.9231 132.359 11.4918 132.707 9.96531C133.066 8.59718 133.174 7.17609 133.023 5.77037C132.894 4.63178 132.467 3.54673 131.784 2.62402C131.1 1.74971 130.188 1.08046 129.146 0.68916C127.928 0.222676 126.632 -0.0108514 125.327 0.00224889H125.326ZM125.468 7.41189L122.773 18.1302C122.699 18.5665 122.48 18.9658 122.151 19.2631C121.815 19.487 121.414 19.5952 121.011 19.5724C120.844 19.5878 120.675 19.5627 120.519 19.4995C120.363 19.4368 120.224 19.3377 120.114 19.2101C119.935 18.9686 119.946 18.4338 120.157 17.6056L122.795 7.44322C122.871 7.01774 123.052 6.6179 123.322 6.279C123.649 6.03636 124.057 5.92586 124.461 5.96972C124.635 5.96118 124.809 5.99535 124.966 6.0694C125.124 6.14344 125.26 6.25508 125.364 6.39462C125.463 6.54272 125.526 6.71131 125.549 6.88788C125.572 7.06445 125.553 7.2433 125.496 7.41189H125.469H125.468ZM105.344 0.00224889C106.659 -0.0250909 107.968 0.197045 109.2 0.657833C110.241 1.04913 111.154 1.71896 111.838 2.59269C112.521 3.51541 112.949 4.60045 113.077 5.73904C113.228 7.14476 113.121 8.56643 112.76 9.93398C112.402 11.4599 112.059 12.8918 111.706 14.2132C111.352 15.5346 110.967 16.8356 110.619 18.0989C110.312 19.3309 109.876 20.5276 109.321 21.6701C108.929 22.4721 108.357 23.1733 107.649 23.7206C106.977 24.2019 106.2 24.5163 105.381 24.6382C104.138 24.7892 102.887 24.8609 101.636 24.8529H98.3072C97.5866 24.8558 96.8724 24.7151 96.208 24.4389C95.3365 24.1814 94.5483 23.7001 93.9238 23.044C93.2576 22.3075 92.8152 21.3985 92.6475 20.4222C92.4289 19.0706 92.5179 17.6877 92.9054 16.3736L93.6971 13.2586C93.929 12.341 94.1927 11.334 94.4673 10.2433C94.7415 9.15252 95.0318 8.07203 95.3059 6.99724C95.5522 5.99592 95.9298 5.03162 96.4295 4.12884C97.3732 2.44346 98.9069 1.16134 100.739 0.526261C101.755 0.168566 102.826 -0.0085731 103.904 0.00224889H105.344V0.00224889ZM105.487 7.41189C105.544 7.24387 105.563 7.06445 105.54 6.88788C105.517 6.71131 105.454 6.54272 105.354 6.39462C105.251 6.25508 105.115 6.14344 104.957 6.0694C104.8 5.99535 104.626 5.96118 104.452 5.96972C104.047 5.92586 103.64 6.03636 103.313 6.279C103.043 6.6179 102.862 7.01774 102.785 7.44322L100.147 17.6056C99.9362 18.4344 99.9252 18.9743 100.105 19.2101C100.215 19.3372 100.354 19.4363 100.509 19.4995C100.665 19.5627 100.834 19.5872 101.002 19.5724C101.406 19.5952 101.805 19.4864 102.141 19.2631C102.471 18.9658 102.69 18.5665 102.764 18.1302L105.46 7.41189H105.486H105.487ZM76.9834 24.7436H69.7704L75.9396 0.668655H83.1526L80.8174 9.78191H85.863L88.1981 0.668655H95.4111L89.2419 24.7436H82.0289L84.3554 15.6645H79.3098L76.9834 24.7436V24.7436ZM6.94806 0.00224889C6.73699 0.00338804 6.53517 0.0876856 6.38655 0.235776C6.23735 0.383866 6.15292 0.584358 6.15176 0.793963V0.867438C6.15292 1.07704 6.23735 1.27753 6.38655 1.42562C6.53574 1.57372 6.73757 1.65744 6.94806 1.65915H10.2449C10.456 1.65801 10.6578 1.57372 10.8064 1.42562C10.9556 1.27753 11.04 1.07704 11.0412 0.867438V0.793963C11.04 0.585497 10.9562 0.385575 10.8081 0.237485C10.6601 0.0893944 10.46 0.00509678 10.2495 0.00224889H6.94748H6.94806ZM74.9067 0.395258H56.1852L54.7349 5.96972H60.4738L55.6365 24.4913H62.695L67.5214 5.96972H73.424L74.9062 0.395258H74.9067ZM55.12 0.395258H47.8087L43.3461 17.4382C43.2229 17.838 42.9824 18.1923 42.655 18.4554C42.3491 18.7249 41.9559 18.8758 41.547 18.8804C41.3799 18.8889 41.2134 18.8541 41.0636 18.7795C40.9138 18.7049 40.786 18.5933 40.6929 18.4554C40.5952 18.3062 40.5339 18.137 40.5136 17.9605C40.4934 17.7839 40.5148 17.6051 40.5767 17.4382L44.7438 0.395258H37.6222L33.0277 18.0989C32.9606 18.3848 32.9219 18.6764 32.9115 18.9692C32.9011 19.2705 32.919 19.573 32.9641 19.8708C33.0034 20.5504 33.1833 21.2139 33.4915 21.8217C33.813 22.4493 34.2837 22.9899 34.8632 23.3948C35.5965 23.8892 36.4159 24.2446 37.2793 24.4434C38.4885 24.7311 39.7295 24.8632 40.9722 24.837C42.0704 24.8421 43.168 24.7789 44.2586 24.6479C45.0567 24.563 45.8426 24.387 46.6007 24.1233C47.1755 23.9211 47.7116 23.6215 48.1835 23.2371C48.5825 22.9004 48.9243 22.5017 49.1961 22.0575C49.3782 21.7647 49.5372 21.4577 49.6708 21.1399C49.8131 20.7987 49.9311 20.4484 50.0242 20.0913L55.12 0.395258V0.395258Z" fill="#80C46D"/>
</svg>
