<svg width="40" height="40" viewBox="0 0 40 40" fill="none" xmlns="http://www.w3.org/2000/svg">
<g clip-path="url(#clip0)">
<path d="M32.7784 29.4532C34.3426 31.0173 34.3429 33.549 32.7784 35.1134L31.8143 36.0775C31.5538 36.338 31.1314 36.3381 30.871 36.0775C30.6105 35.817 30.6104 35.3946 30.871 35.1341L31.8351 34.17C32.8779 33.1273 32.8781 31.4394 31.8351 30.3965L28.1206 26.6819C27.0802 25.6416 25.3874 25.6416 24.3471 26.6819L22.7944 28.2346C21.5344 29.4946 19.495 29.4948 18.2348 28.2346L11.356 21.3558C10.096 20.0958 10.0958 18.0563 11.356 16.7961L12.9087 15.2435C13.9491 14.2031 13.9491 12.5103 12.9087 11.47L9.19412 7.75548C8.15133 6.71268 6.46348 6.7126 5.42061 7.75548L4.06446 9.11154C0.414686 12.7614 0.414353 18.6686 4.06446 22.3188L17.2717 35.526C19.8944 38.1486 23.8216 38.9714 27.2776 37.6223C27.6208 37.4883 28.0075 37.6579 28.1415 38.001C28.2755 38.3442 28.1059 38.7311 27.7628 38.8651C23.8096 40.4084 19.3223 39.4634 16.3284 36.4694L3.12106 23.2622C-1.04035 19.1008 -1.04035 12.3296 3.12106 8.16822L4.47721 6.81216C6.04131 5.24797 8.57308 5.24772 10.1374 6.81216L13.852 10.5266C15.4125 12.0872 15.4125 14.6263 13.852 16.1869L12.2993 17.7395C11.5607 18.4782 11.5606 19.6737 12.2993 20.4125L19.1781 27.2913C19.915 28.0282 21.114 28.0282 21.851 27.2913L23.4037 25.7386C24.9642 24.1782 27.5034 24.1781 29.064 25.7386L32.7784 29.4532ZM36.6647 0.403564H19.988C18.1489 0.403564 16.6527 1.8998 16.6527 3.7389V10.4096C16.6527 12.2487 18.1489 13.7449 19.988 13.7449H20.6551V15.9129C20.6551 16.2819 20.9547 16.5799 21.3221 16.5799C21.5766 16.5799 21.238 16.7402 26.4088 13.6504C26.7251 13.4615 26.8282 13.0519 26.6393 12.7356C26.4503 12.4194 26.0407 12.3162 25.7245 12.5052L21.9892 14.7372V13.0778C21.9892 12.7094 21.6905 12.4108 21.3221 12.4108H19.988C18.8846 12.4108 17.9868 11.513 17.9868 10.4096V3.7389C17.9868 2.63549 18.8846 1.7377 19.988 1.7377H36.6647C37.7681 1.7377 38.6659 2.63549 38.6659 3.7389V10.4096C38.6659 11.513 37.7681 12.4108 36.6647 12.4108H29.7161C29.3477 12.4108 29.049 12.7094 29.049 13.0778C29.049 13.4462 29.3477 13.7449 29.7161 13.7449H36.6647C38.5038 13.7449 40 12.2487 40 10.4096V3.7389C40 1.8998 38.5038 0.403564 36.6647 0.403564V0.403564ZM21.9058 7.7413C22.9174 7.7413 23.7403 6.91839 23.7403 5.90687C23.7403 4.89534 22.9174 4.07243 21.9058 4.07243H20.7385C20.3701 4.07243 20.0714 4.37111 20.0714 4.7395C20.0714 5.10789 20.3701 5.40657 20.7385 5.40657H21.9058C22.1817 5.40657 22.4061 5.63095 22.4061 5.90687C22.4061 6.18278 22.1817 6.40717 21.9058 6.40717C20.8943 6.40717 20.0714 7.23008 20.0714 8.2416V9.40897C20.0714 9.77735 20.3701 10.076 20.7385 10.076H23.0732C23.4416 10.076 23.7403 9.77735 23.7403 9.40897C23.7403 9.04058 23.4416 8.7419 23.0732 8.7419H21.4055V8.2416C21.4055 7.96568 21.6299 7.7413 21.9058 7.7413ZM27.7427 10.076C28.1111 10.076 28.4097 9.77735 28.4097 9.40897C28.4097 8.84221 28.4097 5.30842 28.4097 4.7395C28.4097 4.37111 28.1111 4.07243 27.7427 4.07243C27.3743 4.07243 27.0756 4.37111 27.0756 4.7395V6.40717H26.075V4.7395C26.075 4.37111 25.7763 4.07243 25.4079 4.07243C25.0395 4.07243 24.7409 4.37111 24.7409 4.7395V7.07423C24.7409 7.44262 25.0395 7.7413 25.4079 7.7413H27.0756V9.40897C27.0756 9.77735 27.3742 10.076 27.7427 10.076ZM34.2901 10.0762C34.567 10.0762 34.8258 9.90243 34.9209 9.62585L36.526 4.95638C36.6748 4.5237 36.3527 4.07243 35.8952 4.07243H33.5796C33.2112 4.07243 32.9125 4.37111 32.9125 4.7395C32.9125 5.10789 33.2112 5.40657 33.5796 5.40657H34.9606L33.6593 9.19209C33.5096 9.62701 33.835 10.0765 34.2901 10.0762ZM30.7054 9.56898L31.8728 4.89951C31.9621 4.54205 31.7448 4.17991 31.3874 4.09053C31.03 4.00131 30.6678 4.21852 30.5784 4.5759L29.4111 9.24537C29.3218 9.60283 29.5391 9.96497 29.8965 10.0544C30.2544 10.1437 30.6162 9.92603 30.7054 9.56898Z" fill="#80C46D"/>
</g>
<defs>
<clipPath id="clip0">
<rect width="40" height="40" fill="white"/>
</clipPath>
</defs>
</svg>
