<svg width="62" height="62" viewBox="0 0 62 62" fill="none" xmlns="http://www.w3.org/2000/svg">
<path d="M31 0C24.8688 0 18.8753 1.81812 13.7773 5.22444C8.67941 8.63076 4.70606 13.4723 2.35975 19.1368C0.0134319 24.8013 -0.600471 31.0344 0.59567 37.0478C1.79181 43.0612 4.74427 48.5849 9.0797 52.9203C13.4151 57.2557 18.9388 60.2082 24.9522 61.4043C30.9656 62.6005 37.1987 61.9866 42.8632 59.6403C48.5277 57.2939 53.3692 53.3206 56.7756 48.2227C60.1819 43.1247 62 37.1312 62 31C61.9915 22.7809 58.7226 14.9009 52.9109 9.08913C47.0991 3.27735 39.2191 0.0085482 31 0ZM18.0833 53.3394V51.6667C18.0833 48.2409 19.4442 44.9555 21.8665 42.5332C24.2889 40.1109 27.5743 38.75 31 38.75C34.4257 38.75 37.7111 40.1109 40.1335 42.5332C42.5558 44.9555 43.9167 48.2409 43.9167 51.6667V53.3394C39.9967 55.6278 35.5391 56.8337 31 56.8337C26.4609 56.8337 22.0033 55.6278 18.0833 53.3394ZM23.25 25.8333C23.25 24.3005 23.7045 22.8021 24.5561 21.5277C25.4077 20.2532 26.6181 19.2598 28.0342 18.6733C29.4503 18.0867 31.0086 17.9332 32.512 18.2322C34.0153 18.5313 35.3962 19.2694 36.4801 20.3533C37.5639 21.4371 38.3021 22.818 38.6011 24.3214C38.9001 25.8247 38.7467 27.383 38.1601 28.7991C37.5735 30.2153 36.5802 31.4256 35.3057 32.2772C34.0312 33.1288 32.5328 33.5833 31 33.5833C28.9446 33.5833 26.9733 32.7668 25.5199 31.3134C24.0665 29.86 23.25 27.8888 23.25 25.8333ZM48.9477 49.5419C48.5993 46.6143 47.5403 43.8164 45.8631 41.3917C44.1859 38.9671 41.9413 36.9893 39.3248 35.6306C41.3497 33.9238 42.801 31.6358 43.4821 29.0766C44.1633 26.5174 44.0413 23.8107 43.1328 21.3231C42.2242 18.8356 40.573 16.6874 38.4028 15.1696C36.2326 13.6518 33.6483 12.8378 31 12.8378C28.3517 12.8378 25.7674 13.6518 23.5972 15.1696C21.427 16.6874 19.7758 18.8356 18.8673 21.3231C17.9587 23.8107 17.8367 26.5174 18.5179 29.0766C19.199 31.6358 20.6503 33.9238 22.6752 35.6306C20.0587 36.9893 17.8141 38.9671 16.1369 41.3917C14.4597 43.8164 13.4008 46.6143 13.0523 49.5419C9.34997 45.9657 6.80043 41.3649 5.73069 36.3298C4.66095 31.2948 5.1198 26.0549 7.04838 21.2824C8.97696 16.5098 12.2873 12.4222 16.5549 9.54395C20.8224 6.66565 25.8525 5.12788 31 5.12788C36.1475 5.12788 41.1776 6.66565 45.4451 9.54395C49.7127 12.4222 53.0231 16.5098 54.9516 21.2824C56.8802 26.0549 57.3391 31.2948 56.2693 36.3298C55.1996 41.3649 52.65 45.9657 48.9477 49.5419Z" fill="#969696"/>
</svg>
