<svg width="62" height="62" viewBox="0 0 62 62" fill="none" xmlns="http://www.w3.org/2000/svg">
<g opacity="0.5">
<path d="M57 16C59.757 16 62 13.757 62 11C62 9.913 61.637 8.862 60.981 8C61.637 7.138 62 6.087 62 5C62 2.243 59.757 0 57 0C55.913 0 54.862 0.363 54 1.019C53.138 0.363 52.087 0 51 0C48.243 0 46 2.243 46 5C46 7.048 47.24 8.807 49.006 9.58L45.5 13.086L45.309 12.895C44.087 11.673 42.463 11 40.734 11C38.71 11 36.775 11.967 35.559 13.588L35.52 13.641C34.739 11.73 33.092 10.269 31.337 9.544C31.32 7.714 30.605 5.977 29.314 4.687C27.781 3.154 25.658 2.434 23.518 2.7C22.194 0.998 20.178 0 18 0C15.822 0 13.806 0.998 12.482 2.699C10.346 2.437 8.22 3.154 6.687 4.687C5.396 5.977 4.68 7.714 4.664 9.544C2.239 10.545 0 12.935 0 16C0 18.065 1.233 19.739 2.213 20.743C1.64 23.112 2.316 25.58 4.05 27.312C4.69 27.953 5.437 28.453 6.272 28.799C7.306 29.229 8 30.319 8 31.514V38H3C1.346 38 0 39.346 0 41C0 42.391 0.957 43.554 2.243 43.891L6.228 55.846C7.455 59.527 10.886 62 14.766 62H47.235C51.115 62 54.546 59.527 55.772 55.847L59.757 43.892C61.043 43.554 62 42.391 62 41C62 39.346 60.654 38 59 38H56.949C56.546 32.746 53.012 28.364 48.209 26.713L48.528 26.458C50.099 25.201 51 23.326 51 21.314C51 19.58 50.297 17.882 49.07 16.656L48.914 16.5L52.42 12.994C53.193 14.76 54.952 16 57 16ZM7.038 26.952C6.447 26.707 5.918 26.353 5.465 25.899C4.12 24.555 3.669 22.587 4.287 20.761L4.497 20.14L4.012 19.7C3.26 19.02 2 17.634 2 16C2 13.63 4.047 11.759 5.973 11.201L6.774 10.969L6.689 10.14C6.536 8.623 7.051 7.15 8.101 6.101C9.309 4.894 11.034 4.396 12.72 4.768L13.405 4.919L13.78 4.327C14.705 2.87 16.283 2 18 2C19.717 2 21.295 2.87 22.221 4.327L22.596 4.919L23.281 4.768C24.967 4.395 26.693 4.894 27.9 6.101C28.95 7.151 29.464 8.623 29.311 10.14L29.227 10.969L30.028 11.201C31.953 11.759 34 13.63 34 16C34 17.634 32.74 19.02 31.988 19.7L31.503 20.14L31.713 20.761C32.331 22.586 31.88 24.555 30.534 25.9C30.082 26.353 29.553 26.707 28.963 26.952C27.296 27.643 26.187 29.234 26.032 31.074C25.693 31.03 25.35 31 25 31C24.308 31 23.641 31.097 23 31.263V26.123L23.881 22.599L30.581 17.813L29.419 16.186L24.628 19.608L25.969 14.242L24.03 13.758L21.03 25.758L21.004 32.08C20.249 32.518 19.573 33.075 19 33.726V13H17V38H15V26L11.97 13.758L10.031 14.242L11.372 19.608L6.581 16.186L5.419 17.813L12.119 22.599L13 26.123V38H10V31.514C10 29.488 8.837 27.698 7.038 26.952ZM25 33C27.967 33 30.431 35.167 30.91 38H19.09C19.569 35.167 22.033 33 25 33ZM8.458 56H10V58.113C9.365 57.521 8.842 56.808 8.458 56ZM48 56H50V59.41C49.37 59.681 48.701 59.862 48 59.939V56ZM46 60H44V56H46V60ZM42 60H40V56H42V60ZM38 60H36V56H38V60ZM34 60H32V56H34V60ZM30 60H28V56H30V60ZM26 60H24V56H26V60ZM22 60H20V56H22V60ZM18 60H16V56H18V60ZM14 59.939C13.299 59.862 12.63 59.682 12 59.41V56H14V59.939ZM52 58.113V56H53.542C53.158 56.808 52.635 57.521 52 58.113ZM54.28 54H7.72L4.387 44H57.613L54.28 54ZM60 41C60 41.552 59.552 42 59 42H3C2.448 42 2 41.552 2 41C2 40.448 2.448 40 3 40H59C59.552 40 60 40.448 60 41ZM33.051 38C33.205 36.296 33.755 34.709 34.6 33.318L38.996 35.078L43.995 33.078L48.998 35.078L53.401 33.318C54.246 34.71 54.796 36.297 54.95 38.001H33.051V38ZM52.166 31.656L48.997 32.923L43.994 30.923L38.995 32.923L35.833 31.657C37.849 29.418 40.758 28 44 28C47.242 28 50.151 29.418 52.166 31.656ZM47.278 24.896L46.74 25.326L41.706 20.292L40.292 21.706L44.616 26.03C44.411 26.021 44.208 26 44 26C43.193 26 42.406 26.084 41.639 26.225L39.707 24.293L38.293 25.707L39.431 26.845C38.684 27.127 37.971 27.474 37.297 27.883L35.707 26.293L34.293 27.707L35.643 29.057C33.878 30.543 32.522 32.492 31.742 34.712C30.853 33.319 29.548 32.219 28 31.59V31.515C28 30.321 28.694 29.23 29.729 28.801C30.563 28.454 31.31 27.954 31.949 27.315C33.683 25.583 34.36 23.114 33.787 20.745C34.707 19.802 35.837 18.264 35.973 16.37L37.159 14.79C37.999 13.67 39.336 13.002 40.734 13.002C41.928 13.002 43.05 13.467 43.894 14.311L47.656 18.073C48.51 18.925 49 20.106 49 21.314C49 22.716 48.372 24.021 47.278 24.896ZM46.914 14.5L52.293 9.121C53.378 8.036 54 6.534 54 5H52C52 6.008 51.592 6.994 50.879 7.707L50.624 7.962C49.149 7.775 48 6.526 48 5C48 3.346 49.346 2 51 2C51.864 2 52.662 2.369 53.247 3.038L54 3.899L54.753 3.038C55.338 2.369 56.136 2 57 2C58.654 2 60 3.346 60 5C60 5.864 59.631 6.662 58.962 7.247L58.101 8L58.962 8.753C59.631 9.338 60 10.136 60 11C60 12.654 58.654 14 57 14C55.474 14 54.225 12.851 54.038 11.376L54.293 11.121C55.006 10.408 55.992 10 57 10V8C55.466 8 53.964 8.622 52.879 9.707L47.5 15.086L46.914 14.5Z" fill="white"/>
<path d="M35 46H27V48H35V46Z" fill="white"/>
<path d="M35 50H27V52H35V50Z" fill="white"/>
<path d="M21 46H19V52H21V46Z" fill="white"/>
<path d="M25 46H23V52H25V46Z" fill="white"/>
<path d="M53 46H45V48H53V46Z" fill="white"/>
<path d="M53 50H45V52H53V50Z" fill="white"/>
<path d="M39 46H37V52H39V46Z" fill="white"/>
<path d="M43 46H41V52H43V46Z" fill="white"/>
<path d="M17 46H9V48H17V46Z" fill="white"/>
<path d="M17 50H9V52H17V50Z" fill="white"/>
</g>
</svg>
