<svg width="9" height="43" viewBox="0 0 9 43" fill="none" xmlns="http://www.w3.org/2000/svg">
<path d="M39.5493 2.28662H2.45068C1.0993 2.28662 0 3.38608 0 4.7373V27.7267C0 29.0778 1.0993 30.1772 2.45068 30.1772H19.7253C20.4576 33.2755 22.1135 35.4698 23.5608 36.8757C25.6733 38.9279 28.0948 40.0208 29.0307 40.0208C29.9665 40.0208 32.3881 38.928 34.5006 36.8758C35.9479 35.4698 37.604 33.2755 38.3362 30.1773H39.5493C40.9006 30.1773 42 29.0779 42 27.7268V4.7373C42 3.38608 40.9006 2.28662 39.5493 2.28662ZM37.0781 26.8154C37.0781 31.1374 35.0831 34.0043 33.4093 35.6483C31.4239 37.5985 29.3873 38.357 29.0307 38.3801C28.674 38.357 26.6374 37.5985 24.652 35.6483C22.9784 34.0043 20.9833 31.1374 20.9833 26.8154V22.7757C23.8076 21.9589 26.4504 20.8411 29.031 19.3721C31.5534 20.8037 34.3146 21.9713 37.0781 22.7752V26.8154ZM40.3594 27.7267C40.3594 28.1733 39.9959 28.5366 39.5493 28.5366H38.6215C38.6843 27.9869 38.7188 27.4136 38.7188 26.8154V22.1537C38.7188 21.7834 38.4707 21.4592 38.1135 21.3621C35.1347 20.5532 32.1372 19.2927 29.4451 17.717C29.1891 17.5672 28.8723 17.5674 28.6162 17.7172C25.8478 19.3376 23.0124 20.5298 19.948 21.3621C19.5907 21.4593 19.3427 21.7835 19.3427 22.1537V26.8154C19.3427 27.4136 19.3771 27.9869 19.44 28.5366H2.45068C2.00402 28.5366 1.64062 28.1732 1.64062 27.7267V13.7708H40.3594V27.7267ZM40.3594 12.1303H1.64062V8.84919H40.3594V12.1303ZM40.3594 7.20849H1.64062V4.7373C1.64062 4.29064 2.00402 3.92724 2.45068 3.92724H39.5493C39.9959 3.92724 40.3594 4.29064 40.3594 4.7373V7.20849Z" fill="#80C46D"/>
<path d="M9.84353 19.5134C9.34896 19.5134 8.86063 19.6134 8.40864 19.8041C7.96707 19.617 7.48177 19.5134 6.97285 19.5134C4.93741 19.5134 3.28137 21.1693 3.28137 23.2047C3.28137 25.24 4.93733 26.8961 6.97285 26.8961C7.48177 26.8961 7.96707 26.7926 8.40856 26.6054C8.86063 26.7961 9.34896 26.8961 9.84353 26.8961C11.879 26.8961 13.5351 25.24 13.5351 23.2047C13.5351 21.1693 11.879 19.5134 9.84353 19.5134ZM6.97285 25.2555C5.84197 25.2555 4.92199 24.3356 4.92199 23.2047C4.92199 22.0739 5.84197 21.1541 6.97285 21.1541C8.10357 21.1541 9.02354 22.0739 9.02354 23.2047C9.02354 24.3355 8.10357 25.2555 6.97285 25.2555ZM10.0469 25.2454C10.4365 24.6605 10.6642 23.9587 10.6642 23.2048C10.6642 22.4508 10.4365 21.7492 10.047 21.1642C11.0826 21.2666 11.8944 22.1427 11.8944 23.2048C11.8944 24.2668 11.0826 25.143 10.0469 25.2454Z" fill="#80C46D"/>
<path d="M8.32087 15.8218H4.10144C3.64838 15.8218 3.28113 16.189 3.28113 16.6421C3.28113 17.0951 3.64838 17.4624 4.10144 17.4624H8.32087C8.77393 17.4624 9.14118 17.095 9.14118 16.6421C9.14118 16.189 8.77393 15.8218 8.32087 15.8218Z" fill="#80C46D"/>
</svg>
