<svg width="46" height="47" viewBox="0 0 46 47" fill="none" xmlns="http://www.w3.org/2000/svg">
<path d="M42.7798 25.9334L41.5886 21.1685C41.9143 21.0994 42.1586 20.8104 42.1586 20.4642V19.696C42.1586 18.028 40.8015 16.671 39.1336 16.671H33.7078V15.0864C33.7078 14.2656 33.04 13.5978 32.2192 13.5978H22.1303L28.2612 11.1455C28.6306 10.9978 28.8102 10.5786 28.6625 10.2092C28.5148 9.83995 28.0958 9.66018 27.7262 9.80797L22.7063 11.8159C24.236 10.8344 25.7494 9.75424 26.3256 8.99883C27.4473 7.52818 27.1632 5.41919 25.6925 4.29749C24.2219 3.1757 22.1129 3.45988 20.9912 4.93053C20.1716 6.00524 19.0903 9.02498 18.3904 11.1529C17.6905 9.02516 16.6091 6.00524 15.7896 4.93053C14.668 3.45988 12.5589 3.17588 11.0882 4.29749C9.61759 5.4191 9.3336 7.52809 10.4552 8.99883C11.0314 9.75433 12.5447 10.8344 14.0745 11.8159L9.05454 9.80797C8.68501 9.66 8.26598 9.83986 8.11828 10.2092C7.97049 10.5786 8.15018 10.9978 8.51952 11.1455L14.6505 13.5978H4.56155C3.74073 13.5978 3.07302 14.2656 3.07302 15.0864V28.147C3.07302 28.5447 3.39546 28.8672 3.79329 28.8672C4.19103 28.8672 4.51357 28.5448 4.51357 28.147V15.0864C4.51357 15.0599 4.53504 15.0384 4.56155 15.0384H32.2191C32.2456 15.0384 32.2671 15.0599 32.2671 15.0864V28.1471C32.2671 28.5449 32.5896 28.8674 32.9874 28.8674C33.3851 28.8674 33.7077 28.545 33.7077 28.1471V27.3306H42.2038C42.2046 27.3306 42.2053 27.3308 42.2061 27.3308C42.2069 27.3308 42.2076 27.3307 42.2084 27.3307C43.2538 27.3315 44.1415 28.0178 44.4462 28.9633H42.2066C41.8089 28.9633 41.4863 29.2857 41.4863 29.6836V31.2201C41.4863 32.4645 42.4987 33.4769 43.7431 33.4769H44.5594V36.6459H42.6761C42.0575 34.8596 40.3593 33.5728 38.3653 33.5728C36.3712 33.5728 34.6729 34.8596 34.0544 36.6459H33.7076V31.22C33.7076 30.8222 33.3851 30.4997 32.9873 30.4997C32.5896 30.4997 32.267 30.8222 32.267 31.22V36.6458H17.3234C16.7047 34.8596 15.0066 33.5727 13.0125 33.5727C11.0184 33.5727 9.32021 34.8595 8.70164 36.6458H4.56155C4.53504 36.6458 4.51357 36.6244 4.51357 36.5978V35.0133H7.63465C8.03239 35.0133 8.35493 34.6908 8.35493 34.293C8.35493 33.8952 8.03248 33.5727 7.63465 33.5727H0.720277C0.322539 33.5727 0 33.8952 0 34.293C0 34.6908 0.322449 35.0133 0.720277 35.0133H3.07311V36.5978C3.07311 37.4187 3.74082 38.0864 4.56164 38.0864H8.45223C8.45205 38.1024 8.45097 38.1183 8.45097 38.1344C8.45097 40.6495 10.4973 42.6959 13.0125 42.6959C15.5277 42.6959 17.5741 40.6495 17.5741 38.1344C17.5741 38.1182 17.573 38.1024 17.5728 38.0864H33.8049C33.8047 38.1024 33.8036 38.1183 33.8036 38.1344C33.8036 40.6495 35.85 42.6959 38.3652 42.6959C40.8803 42.6959 42.9267 40.6495 42.9267 38.1344C42.9267 38.1182 42.9256 38.1024 42.9255 38.0864H45.2796C45.6774 38.0864 45.9999 37.7639 45.9999 37.3661V29.6835C46 27.7865 44.6005 26.2105 42.7798 25.9334ZM15.534 11.0302C12.6929 9.26468 11.8501 8.4524 11.6006 8.12519C10.9607 7.28614 11.1227 6.08287 11.9619 5.44291C12.3078 5.17913 12.7155 5.05164 13.1202 5.05164C13.6972 5.05164 14.2681 5.31093 14.6443 5.80417C15.341 6.7177 16.4321 9.79242 17.1525 12.0081C16.6664 11.7218 16.1075 11.3868 15.534 11.0302ZM19.6284 12.008C20.3488 9.79243 21.44 6.71779 22.1366 5.80408C22.7766 4.96503 23.9798 4.80304 24.8189 5.44291C25.658 6.08287 25.82 7.28614 25.1801 8.12519C24.9306 8.45232 24.0879 9.26468 21.247 11.0301C20.6735 11.3866 20.1147 11.7217 19.6284 12.008ZM33.7078 18.1113H39.1336C40.0073 18.1113 40.7182 18.8222 40.7182 19.6959V19.7439H33.7078V18.1113ZM33.7078 25.8901V21.1844H40.1078L41.2842 25.8901H33.7078ZM13.0125 41.2554C11.2916 41.2554 9.89144 39.8553 9.89144 38.1344C9.89144 36.4134 11.2916 35.0133 13.0125 35.0133C14.7335 35.0133 16.1336 36.4134 16.1336 38.1344C16.1336 39.8553 14.7335 41.2554 13.0125 41.2554ZM38.3653 41.2554C36.6444 41.2554 35.2443 39.8553 35.2443 38.1344C35.2443 36.4134 36.6444 35.0133 38.3653 35.0133C40.0863 35.0133 41.4864 36.4134 41.4864 38.1344C41.4864 39.8553 40.0863 41.2554 38.3653 41.2554ZM44.5595 32.0362H43.7432C43.2931 32.0362 42.9269 31.67 42.9269 31.2199V30.4036H44.5594V32.0362H44.5595Z" fill="#80C46D"/>
<path d="M13.0126 36.646C12.1918 36.646 11.524 37.3137 11.524 38.1345C11.524 38.9553 12.1918 39.6231 13.0126 39.6231C13.8334 39.6231 14.5011 38.9553 14.5011 38.1345C14.5011 37.3137 13.8334 36.646 13.0126 36.646Z" fill="#80C46D"/>
<path d="M38.3654 36.646C37.5446 36.646 36.8768 37.3137 36.8768 38.1345C36.8768 38.9553 37.5446 39.6231 38.3654 39.6231C39.1862 39.6231 39.8539 38.9553 39.8539 38.1345C39.8539 37.3137 39.1862 36.646 38.3654 36.646Z" fill="#80C46D"/>
<path d="M29.9143 33.5728H19.1586C18.7609 33.5728 18.4384 33.8952 18.4384 34.293C18.4384 34.6909 18.7608 35.0133 19.1586 35.0133H29.9143C30.3121 35.0133 30.6346 34.6909 30.6346 34.293C30.6346 33.8952 30.3122 33.5728 29.9143 33.5728Z" fill="#80C46D"/>
<path d="M11.476 30.4998H2.25678C1.85904 30.4998 1.5365 30.8222 1.5365 31.22C1.5365 31.6179 1.85895 31.9403 2.25678 31.9403H11.476C11.8737 31.9403 12.1963 31.6179 12.1963 31.22C12.1963 30.8222 11.8737 30.4998 11.476 30.4998Z" fill="#80C46D"/>
<path d="M11.476 19.7439H8.40289C8.00516 19.7439 7.68262 20.0663 7.68262 20.4642V26.6103C7.68262 27.008 8.00507 27.3306 8.40289 27.3306C8.80072 27.3306 9.12317 27.0081 9.12317 26.6103V24.2575H10.7077C11.1055 24.2575 11.428 23.935 11.428 23.5372C11.428 23.1394 11.1056 22.8169 10.7077 22.8169H9.12317V21.1845H11.476C11.8737 21.1845 12.1963 20.862 12.1963 20.4642C12.1962 20.0664 11.8737 19.7439 11.476 19.7439Z" fill="#80C46D"/>
<path d="M17.1441 24.5952C17.8649 24.1231 18.3423 23.3089 18.3423 22.3849C18.3423 20.9286 17.1577 19.7439 15.7014 19.7439H13.7807C13.383 19.7439 13.0604 20.0663 13.0604 20.4642V26.6103C13.0604 27.008 13.3829 27.3306 13.7807 27.3306C14.1785 27.3306 14.501 27.0081 14.501 26.6103V25.0257H15.7L17.0227 27.0098C17.1615 27.2179 17.3898 27.3306 17.6226 27.3306C17.76 27.3306 17.8987 27.2914 18.0214 27.2095C18.3525 26.9889 18.4419 26.5417 18.2211 26.2108L17.1441 24.5952ZM15.7014 23.5853H14.501V21.1845H15.7014C16.3634 21.1845 16.9018 21.7229 16.9018 22.3849C16.9018 23.0468 16.3634 23.5853 15.7014 23.5853Z" fill="#80C46D"/>
<path d="M22.9999 25.8901H20.6471V24.2551C20.663 24.2562 20.6789 24.2576 20.6951 24.2576H22.2316C22.6293 24.2576 22.9518 23.9351 22.9518 23.5373C22.9518 23.1395 22.6294 22.817 22.2316 22.817H20.6951C20.6788 22.817 20.663 22.8184 20.6471 22.8194V21.1845H22.9999C23.3976 21.1845 23.7202 20.862 23.7202 20.4642C23.7202 20.0664 23.3977 19.7439 22.9999 19.7439H19.9268C19.5291 19.7439 19.2065 20.0663 19.2065 20.4642V26.6103C19.2065 27.008 19.529 27.3306 19.9268 27.3306H22.9999C23.3976 27.3306 23.7202 27.0081 23.7202 26.6103C23.7202 26.2125 23.3976 25.8901 22.9999 25.8901Z" fill="#80C46D"/>
<path d="M28.3779 25.8901H26.025V24.2576H26.8414C27.2391 24.2576 27.5616 23.9351 27.5616 23.5373C27.5616 23.1395 27.2392 22.817 26.8414 22.817H26.025V21.1845H28.3779C28.7756 21.1845 29.0981 20.862 29.0981 20.4642C29.0981 20.0664 28.7757 19.7439 28.3779 19.7439H25.3048C24.907 19.7439 24.5845 20.0663 24.5845 20.4642V26.6103C24.5845 27.008 24.9069 27.3306 25.3048 27.3306H28.3779C28.7756 27.3306 29.0981 27.0081 29.0981 26.6103C29.0981 26.2125 28.7756 25.8901 28.3779 25.8901Z" fill="#80C46D"/>
</svg>
